<?xml version="1.0" encoding="utf-8"?>
<!DOCTYPE svg PUBLIC "-//W3C//DTD SVG 1.1//EN" "http://www.w3.org/Graphics/SVG/1.1/DTD/svg11.dtd">
<svg version="1.1" xmlns="http://www.w3.org/2000/svg" xmlns:xlink="http://www.w3.org/1999/xlink" x="0px" y="0px"
	 viewBox="0 0 300 200" enable-background="new 0 0 300 200" xml:space="preserve">
<g id="BG" display="none">
	<rect display="inline" width="300" height="199"/>
</g>
<g id="Mouse">
	<g id="Mouse_MMB" display="none">
		<path display="inline" fill="#FFFFFF" stroke="#FFFFFF" stroke-width="2" stroke-miterlimit="10" d="M68,72.6
			c0,5.8-4.1,10.6-9.1,10.6l0,0c-5,0-9.1-4.7-9.1-10.6V54.4c0-5.8,4.1-10.6,9.1-10.6l0,0c5,0,9.1,4.7,9.1,10.6V72.6z"/>
		<g display="inline">
			<path fill="none" stroke="#FFFFFF" stroke-width="2" stroke-miterlimit="10" d="M64.6,37.8c4.8,2.3,8.2,7.4,8.2,13.4v25.2
				c0,5.9-3.4,11.1-8.2,13.4v13.6h47.1V57.7c0-25.8-18.6-46.7-41.6-46.7h-5.4V37.8z"/>
			<path fill="none" stroke="#FFFFFF" stroke-width="2" stroke-miterlimit="10" d="M6,107.2v35.4c0,25.8,18.6,46.7,41.6,46.7h22.4
				c23,0,41.6-20.9,41.6-46.7v-35.4H6z"/>
			<path fill="none" stroke="#FFFFFF" stroke-width="2" stroke-miterlimit="10" d="M53.1,103.3V89.7c-4.8-2.3-8.2-7.4-8.2-13.4V51.1
				c0-5.9,3.4-11.1,8.2-13.4V11h-5.4C24.6,11,6,31.9,6,57.7v45.6H53.1z"/>
		</g>
	</g>
	<g id="Mouse_LMB" display="none">
		<path display="inline" fill="none" stroke="#FFFFFF" stroke-width="2" stroke-miterlimit="10" d="M68,72.6
			c0,5.8-4.1,10.6-9.1,10.6l0,0c-5,0-9.1-4.7-9.1-10.6V54.4c0-5.8,4.1-10.6,9.1-10.6l0,0c5,0,9.1,4.7,9.1,10.6V72.6z"/>
		<g display="inline">
			<path fill="none" stroke="#FFFFFF" stroke-width="2" stroke-miterlimit="10" d="M64.6,37.8c4.8,2.3,8.2,7.4,8.2,13.4v25.2
				c0,5.9-3.4,11.1-8.2,13.4v13.6h47.1V57.7c0-25.8-18.6-46.7-41.6-46.7h-5.4V37.8z"/>
			<path fill="none" stroke="#FFFFFF" stroke-width="2" stroke-miterlimit="10" d="M6,107.2v35.4c0,25.8,18.6,46.7,41.6,46.7h22.4
				c23,0,41.6-20.9,41.6-46.7v-35.4H6z"/>
			<path fill="#FFFFFF" stroke="#FFFFFF" stroke-width="2" stroke-miterlimit="10" d="M53.1,103.3V89.7c-4.8-2.3-8.2-7.4-8.2-13.4
				V51.1c0-5.9,3.4-11.1,8.2-13.4V11h-5.4C24.6,11,6,31.9,6,57.7v45.6H53.1z"/>
		</g>
	</g>
	<g id="Mouse_RMB">
		<path fill="none" stroke="#FFFFFF" stroke-width="2" stroke-miterlimit="10" d="M68,72.6c0,5.8-4.1,10.6-9.1,10.6l0,0
			c-5,0-9.1-4.7-9.1-10.6V54.4c0-5.8,4.1-10.6,9.1-10.6l0,0c5,0,9.1,4.7,9.1,10.6V72.6z"/>
		<g>
			<path fill="#FFFFFF" stroke="#FFFFFF" stroke-width="2" stroke-miterlimit="10" d="M64.6,37.8c4.8,2.3,8.2,7.4,8.2,13.4v25.2
				c0,5.9-3.4,11.1-8.2,13.4v13.6h47.1V57.7c0-25.8-18.6-46.7-41.6-46.7h-5.4V37.8z"/>
			<path fill="none" stroke="#FFFFFF" stroke-width="2" stroke-miterlimit="10" d="M6,107.2v35.4c0,25.8,18.6,46.7,41.6,46.7h22.4
				c23,0,41.6-20.9,41.6-46.7v-35.4H6z"/>
			<path fill="none" stroke="#FFFFFF" stroke-width="2" stroke-miterlimit="10" d="M53.1,103.3V89.7c-4.8-2.3-8.2-7.4-8.2-13.4V51.1
				c0-5.9,3.4-11.1,8.2-13.4V11h-5.4C24.6,11,6,31.9,6,57.7v45.6H53.1z"/>
		</g>
	</g>
</g>
<g id="Icons">
	<path display="none" fill="#FFFFFF" d="M213.9,129.4c-37.7,0-68.4-17.1-68.4-37.9c0-4.9,1.7-9.9,5.1-14.4l-22.5,4.7l-3.5-5.2
		l39.6-8.3l14.6,21.3l-9.4,2l-9-13.2c-3.2,4.1-4.9,8.5-4.9,12.9c0,17.8,26.1,25.4,58.3,25.4c32.2,0,58.5-7.8,58.5-24.8h10
		C282.3,112,251.6,129.4,213.9,129.4z"/>
	<g id="Brush" display="none">
		<path display="inline" fill="none" stroke="#FFFFFF" stroke-width="2" stroke-linejoin="round" stroke-miterlimit="10" d="
			M217.7,116.3c15.4,14.8,12.4,23.2,34.7,36"/>
		<g display="inline">
			<path fill="none" stroke="#FFFFFF" stroke-width="6" stroke-linejoin="round" stroke-miterlimit="10" d="M146.9,35.3
				c12.9,12.8,41.3,55.6,44.5,59.8c-4.3,26.8,45,58.4,55,62.1c10,3.7,36.7,5,36.7,5s-10-12-13.3-18c-3.3-6-17.8-49.4-44.7-66.3
				c-2.1-4.9-11.6-16.5-34.5-45.3"/>
		</g>
		<path display="inline" fill="none" stroke="#FFFFFF" stroke-width="2" stroke-miterlimit="10" d="M197.7,91c0,0,18-1.3,21.7-9"/>
	</g>
	<g id="Zoom" display="none">
		<circle display="inline" fill="none" stroke="#FFFFFF" stroke-width="10" stroke-miterlimit="10" cx="231.2" cy="74.8" r="47.2"/>
		<polyline display="inline" fill="none" stroke="#FFFFFF" stroke-width="10" stroke-miterlimit="10" points="202.9,115.8 
			156.5,162.2 142.5,146.2 188.9,100.8 		"/>
	</g>
	<line fill="none" stroke="#FFFFFF" stroke-width="10" stroke-miterlimit="10" x1="210" y1="24" x2="210" y2="173"/>
	<polygon fill="#FFFFFF" stroke="#FFFFFF" stroke-width="6" stroke-miterlimit="10" points="195.4,43 210.2,17.5 224.9,43 	"/>
	<polygon fill="#FFFFFF" stroke="#FFFFFF" stroke-width="6" stroke-miterlimit="10" points="224.9,158 210.2,183.5 195.4,158 	"/>
	<line fill="none" stroke="#FFFFFF" stroke-width="10" stroke-miterlimit="10" x1="285" y1="98" x2="136" y2="98"/>
	<polygon fill="#FFFFFF" stroke="#FFFFFF" stroke-width="6" stroke-miterlimit="10" points="266,83.8 291.5,98.5 266,113.2 	"/>
	<polygon fill="#FFFFFF" stroke="#FFFFFF" stroke-width="6" stroke-miterlimit="10" points="151,113.2 125.5,98.5 151,83.8 	"/>
	<line fill="none" stroke="#FFFFFF" stroke-width="10" stroke-miterlimit="10" x1="250.6" y1="55.6" x2="168.9" y2="137.4"/>
	<polygon fill="#FFFFFF" stroke="#FFFFFF" stroke-width="2" stroke-miterlimit="10" points="227.7,57.4 256.2,49.8 248.6,78.3 	"/>
	<polygon fill="#FFFFFF" stroke="#FFFFFF" stroke-width="8" stroke-miterlimit="10" points="190.3,136.6 161.8,144.2 169.4,115.7 	
		"/>
	<path display="none" fill="#FFFFFF" d="M193.7,107.4c0-37.7,13.5-68.4,29.9-68.4c3.9,0,7.8,1.7,11.4,5.1l-3.6-22.5l4.1-3.5
		l6.5,39.6l-16.8,14.6l-1.5-9.4l10.4-9c-3.2-3.2-6.6-4.9-10.2-4.9c-14,0-18.1,26.1-18.1,58.3c0,32.2,4.3,58.6,17.3,58.6v10
		C207,175.8,193.7,145.1,193.7,107.4z"/>
</g>
</svg>
