solid model
facet normal -0.0 -0.0 1.0
outer loop
vertex 100.0 0.0 9.0
vertex 0.0 100.0 9.0
vertex 0.0 0.0 9.0
endloop
endfacet
facet normal -0.0 -0.0 1.0
outer loop
vertex 0.0 100.0 9.0
vertex 100.0 0.0 9.0
vertex 100.0 100.0 9.0
endloop
endfacet
facet normal -0.0 1.0 0.0
outer loop
vertex 0.0 100.0 9.0
vertex 100.0 100.0 0.0
vertex 0.0 100.0 0.0
endloop
endfacet
facet normal -0.0 1.0 0.0
outer loop
vertex 100.0 100.0 0.0
vertex 0.0 100.0 9.0
vertex 100.0 100.0 9.0
endloop
endfacet
facet normal -0.0 -1.0 -0.0
outer loop
vertex 100.0 0.0 9.0
vertex 0.0 0.0 0.0
vertex 100.0 0.0 0.0
endloop
endfacet
facet normal -0.0 -1.0 -0.0
outer loop
vertex 0.0 0.0 0.0
vertex 100.0 0.0 9.0
vertex 0.0 0.0 9.0
endloop
endfacet
facet normal -1.0 0.0 0.0
outer loop
vertex 0.0 100.0 9.0
vertex 0.0 0.0 0.0
vertex 0.0 0.0 9.0
endloop
endfacet
facet normal -1.0 0.0 0.0
outer loop
vertex 0.0 0.0 0.0
vertex 0.0 100.0 9.0
vertex 0.0 100.0 0.0
endloop
endfacet
facet normal 1.0 0.0 0.0
outer loop
vertex 100.0 100.0 0.0
vertex 100.0 0.0 9.0
vertex 100.0 0.0 0.0
endloop
endfacet
facet normal 1.0 0.0 0.0
outer loop
vertex 100.0 0.0 9.0
vertex 100.0 100.0 0.0
vertex 100.0 100.0 9.0
endloop
endfacet
facet normal 0.0 0.0 -1.0
outer loop
vertex 100.0 100.0 0.0
vertex 0.0 0.0 0.0
vertex 0.0 100.0 0.0
endloop
endfacet
facet normal 0.0 0.0 -1.0
outer loop
vertex 0.0 0.0 0.0
vertex 100.0 100.0 0.0
vertex 100.0 0.0 0.0
endloop
endfacet
endsolid model
