solid pyramid
 facet normal 0.000000 -0.924912 0.380180
  outer loop
   vertex 27.540001 0.000000 0.000000
   vertex 13.770000 13.769999 33.500000
   vertex 0.000001 0.000000 0.000000
  endloop
 endfacet
 facet normal 0.924912 0.000000 0.380180
  outer loop
   vertex 27.540001 0.000000 0.000000
   vertex 27.540001 27.540001 0.000001
   vertex 13.770000 13.769999 33.500000
  endloop
 endfacet
 facet normal 0.000000 0.000000 -1.000000
  outer loop
   vertex 27.540001 0.000000 0.000000
   vertex 0.000001 27.540001 0.000001
   vertex 27.540001 27.540001 0.000001
  endloop
 endfacet
 facet normal 0.000000 0.000000 -1.000000
  outer loop
   vertex 0.000001 27.540001 0.000001
   vertex 27.540001 0.000000 0.000000
   vertex 0.000001 0.000000 0.000000
  endloop
 endfacet
 facet normal -0.924912 0.000000 0.380180
  outer loop
   vertex 13.770000 13.769999 33.500000
   vertex 0.000001 27.540001 0.000001
   vertex 0.000001 0.000000 0.000000
  endloop
 endfacet
 facet normal 0.000000 0.924912 0.380180
  outer loop
   vertex 0.000001 27.540001 0.000001
   vertex 13.770000 13.769999 33.500000
   vertex 27.540001 27.540001 0.000001
  endloop
 endfacet
endsolid pyramid
