solid model
facet normal 0.0 1.38777878078145e-16 1.0
outer loop
vertex 46.9 -0.314838023378388 59.3851619766216
vertex -30.6 -0.314838023378388 59.3851619766216
vertex -24.6 -7.31483802337842 59.3851619766216
endloop
endfacet
facet normal 0.0 -1.0 1.38777878078145e-16
outer loop
vertex -30.6 -39.3148380233784 59.3851619766216
vertex 46.9 -39.3148380233784 5.38516197662158
vertex 46.9 -39.3148380233784 59.3851619766216
endloop
endfacet
facet normal 0.0 -1.0 1.38777878078145e-16
outer loop
vertex -30.6 -44.9815080233784 5.38516197662162
vertex 46.9 -44.9815080233784 -0.614838023378428
vertex 46.9 -44.9815080233784 5.38516197662162
endloop
endfacet
facet normal 1.99506633444295e-32 1.86615319218424e-15 1.0
outer loop
vertex 46.9 5.35183197662157 5.38516197662159
vertex -30.6 5.35183197662157 5.38516197662159
vertex -30.6 -0.314838023378409 5.3851619766216
endloop
endfacet
facet normal 3.99013266888588e-32 5.41233724504764e-15 1.0
outer loop
vertex 46.9 -39.3148380233784 5.38516197662158
vertex -30.6 -39.3148380233784 5.38516197662158
vertex -30.6 -44.9815080233784 5.38516197662162
endloop
endfacet
facet normal 1.0 0.0 0.0
outer loop
vertex 46.9 5.35183197662158 -0.614838023378404
vertex 46.9 -39.3148380233784 5.38516197662158
vertex 46.9 -44.9815080233784 5.38516197662162
endloop
endfacet
facet normal 0.0 1.38777878078145e-16 1.0
outer loop
vertex 46.9 -0.314838023378388 59.3851619766216
vertex 40.9 -7.31483802337842 59.3851619766216
vertex 46.9 -39.3148380233784 59.3851619766216
endloop
endfacet
facet normal -3.99289851465676e-33 1.66533453693773e-16 -1.0
outer loop
vertex 46.9 -44.9815080233784 -0.614838023378428
vertex -30.6 -44.9815080233784 -0.614838023378428
vertex -24.6 -32.3148380233784 -0.614838023378417
endloop
endfacet
facet normal -1.0 0.0 0.0
outer loop
vertex -30.6 -0.314838023378409 5.3851619766216
vertex -30.6 5.35183197662158 -0.614838023378404
vertex -30.6 -39.3148380233784 5.38516197662158
endloop
endfacet
facet normal -1.0 0.0 0.0
outer loop
vertex -30.6 5.35183197662158 -0.614838023378404
vertex -30.6 -0.314838023378409 5.3851619766216
vertex -30.6 5.35183197662157 5.38516197662159
endloop
endfacet
facet normal 0.0 1.38777878078145e-16 1.0
outer loop
vertex 46.9 -39.3148380233784 59.3851619766216
vertex 40.9 -7.31483802337842 59.3851619766216
vertex 40.9 -32.3148380233784 59.3851619766216
endloop
endfacet
facet normal -1.0 0.0 0.0
outer loop
vertex 40.9 -7.31483802337841 -0.614838023378407
vertex 40.9 -32.3148380233784 59.3851619766216
vertex 40.9 -7.31483802337842 59.3851619766216
endloop
endfacet
facet normal -7.98579702931353e-33 1.66533453693773e-16 -1.0
outer loop
vertex 46.9 5.35183197662158 -0.614838023378404
vertex 40.9 -7.31483802337841 -0.614838023378407
vertex -30.6 5.35183197662158 -0.614838023378404
endloop
endfacet
facet normal 1.0 -0.0 -0.0
outer loop
vertex 46.9 -0.314838023378388 59.3851619766216
vertex 46.9 -39.3148380233784 59.3851619766216
vertex 46.9 -0.314838023378409 5.3851619766216
endloop
endfacet
facet normal 0.0 1.38777878078145e-16 1.0
outer loop
vertex 40.9 -32.3148380233784 59.3851619766216
vertex -24.6 -32.3148380233784 59.3851619766216
vertex -30.6 -39.3148380233784 59.3851619766216
endloop
endfacet
facet normal 8.3424208189668e-17 1.66533453693773e-16 -1.0
outer loop
vertex 46.9 -44.9815080233784 -0.614838023378428
vertex 40.9 -32.3148380233784 -0.614838023378417
vertex 40.9 -7.31483802337841 -0.614838023378407
endloop
endfacet
facet normal 0.0 1.38777878078145e-16 1.0
outer loop
vertex 46.9 -39.3148380233784 59.3851619766216
vertex 40.9 -32.3148380233784 59.3851619766216
vertex -30.6 -39.3148380233784 59.3851619766216
endloop
endfacet
facet normal -1.11799297027712e-32 1.66533453693773e-16 -1.0
outer loop
vertex 40.9 -7.31483802337841 -0.614838023378407
vertex -24.6 -7.31483802337841 -0.614838023378407
vertex -30.6 5.35183197662158 -0.614838023378404
endloop
endfacet
facet normal -0.0 1.0 -4.0145356175161e-16
outer loop
vertex 46.9 -0.314838023378388 59.3851619766216
vertex -30.6 -0.314838023378409 5.3851619766216
vertex -30.6 -0.314838023378388 59.3851619766216
endloop
endfacet
facet normal 5.24270363320557e-17 1.66533453693773e-16 -1.0
outer loop
vertex -24.6 -7.31483802337841 -0.614838023378407
vertex -30.6 -44.9815080233784 -0.614838023378428
vertex -30.6 5.35183197662158 -0.614838023378404
endloop
endfacet
facet normal -8.34242081896679e-17 1.66533453693773e-16 -1.0
outer loop
vertex -24.6 -32.3148380233784 -0.614838023378417
vertex -30.6 -44.9815080233784 -0.614838023378428
vertex -24.6 -7.31483802337841 -0.614838023378407
endloop
endfacet
facet normal 0.0 1.38777878078145e-16 1.0
outer loop
vertex -24.6 -32.3148380233784 59.3851619766216
vertex -30.6 -0.314838023378388 59.3851619766216
vertex -30.6 -39.3148380233784 59.3851619766216
endloop
endfacet
facet normal 0.0 1.0 -1.38777878078145e-16
outer loop
vertex 40.9 -32.3148380233784 59.3851619766216
vertex -24.6 -32.3148380233784 -0.614838023378417
vertex -24.6 -32.3148380233784 59.3851619766216
endloop
endfacet
facet normal -1.59445204815302e-32 -1.0 -8.32667268468867e-17
outer loop
vertex -24.6 -7.31483802337842 59.3851619766216
vertex 40.9 -7.31483802337841 -0.614838023378407
vertex 40.9 -7.31483802337842 59.3851619766216
endloop
endfacet
facet normal 0.0 1.38777878078145e-16 1.0
outer loop
vertex 46.9 -0.314838023378388 59.3851619766216
vertex -24.6 -7.31483802337842 59.3851619766216
vertex 40.9 -7.31483802337842 59.3851619766216
endloop
endfacet
facet normal 0.0 -1.0 1.38777878078145e-16
outer loop
vertex -30.6 -39.3148380233784 59.3851619766216
vertex -30.6 -39.3148380233784 5.38516197662158
vertex 46.9 -39.3148380233784 5.38516197662158
endloop
endfacet
facet normal 0.0 1.0 -1.38777878078145e-16
outer loop
vertex 40.9 -32.3148380233784 59.3851619766216
vertex 40.9 -32.3148380233784 -0.614838023378417
vertex -24.6 -32.3148380233784 -0.614838023378417
endloop
endfacet
facet normal -0.0 1.86615319218424e-15 1.0
outer loop
vertex 46.9 5.35183197662157 5.38516197662159
vertex -30.6 -0.314838023378409 5.3851619766216
vertex 46.9 -0.314838023378409 5.3851619766216
endloop
endfacet
facet normal -1.0 0.0 0.0
outer loop
vertex 40.9 -7.31483802337841 -0.614838023378407
vertex 40.9 -32.3148380233784 -0.614838023378417
vertex 40.9 -32.3148380233784 59.3851619766216
endloop
endfacet
facet normal -0.0 1.0 -4.0145356175161e-16
outer loop
vertex 46.9 -0.314838023378388 59.3851619766216
vertex 46.9 -0.314838023378409 5.3851619766216
vertex -30.6 -0.314838023378409 5.3851619766216
endloop
endfacet
facet normal 1.0 -0.0 -0.0
outer loop
vertex 46.9 5.35183197662158 -0.614838023378404
vertex 46.9 -0.314838023378409 5.3851619766216
vertex 46.9 -39.3148380233784 5.38516197662158
endloop
endfacet
facet normal 1.0 -0.0 -0.0
outer loop
vertex 46.9 -0.314838023378409 5.3851619766216
vertex 46.9 5.35183197662158 -0.614838023378404
vertex 46.9 5.35183197662157 5.38516197662159
endloop
endfacet
facet normal 1.0 0.0 0.0
outer loop
vertex 46.9 5.35183197662158 -0.614838023378404
vertex 46.9 -44.9815080233784 5.38516197662162
vertex 46.9 -44.9815080233784 -0.614838023378428
endloop
endfacet
facet normal -5.2427036332056e-17 1.66533453693773e-16 -1.0
outer loop
vertex 46.9 -44.9815080233784 -0.614838023378428
vertex 40.9 -7.31483802337841 -0.614838023378407
vertex 46.9 5.35183197662158 -0.614838023378404
endloop
endfacet
facet normal 1.0 -0.0 -0.0
outer loop
vertex 46.9 -0.314838023378409 5.3851619766216
vertex 46.9 -39.3148380233784 59.3851619766216
vertex 46.9 -39.3148380233784 5.38516197662158
endloop
endfacet
facet normal 3.99013266888588e-32 5.41233724504764e-15 1.0
outer loop
vertex 46.9 -39.3148380233784 5.38516197662158
vertex -30.6 -44.9815080233784 5.38516197662162
vertex 46.9 -44.9815080233784 5.38516197662162
endloop
endfacet
facet normal -1.0 0.0 0.0
outer loop
vertex -30.6 -0.314838023378388 59.3851619766216
vertex -30.6 -0.314838023378409 5.3851619766216
vertex -30.6 -39.3148380233784 59.3851619766216
endloop
endfacet
facet normal 0.0 1.0 1.52655665885959e-15
outer loop
vertex 46.9 5.35183197662157 5.38516197662159
vertex 46.9 5.35183197662158 -0.614838023378404
vertex -30.6 5.35183197662158 -0.614838023378404
endloop
endfacet
facet normal 1.7795520030147e-32 1.0 1.52655665885959e-15
outer loop
vertex 46.9 5.35183197662157 5.38516197662159
vertex -30.6 5.35183197662158 -0.614838023378404
vertex -30.6 5.35183197662157 5.38516197662159
endloop
endfacet
facet normal -1.0 0.0 0.0
outer loop
vertex -30.6 5.35183197662158 -0.614838023378404
vertex -30.6 -44.9815080233784 5.38516197662162
vertex -30.6 -39.3148380233784 5.38516197662158
endloop
endfacet
facet normal 0.0 -1.0 1.38777878078145e-16
outer loop
vertex -30.6 -44.9815080233784 5.38516197662162
vertex -30.6 -44.9815080233784 -0.614838023378428
vertex 46.9 -44.9815080233784 -0.614838023378428
endloop
endfacet
facet normal 1.0 0.0 0.0
outer loop
vertex -24.6 -7.31483802337841 -0.614838023378407
vertex -24.6 -7.31483802337842 59.3851619766216
vertex -24.6 -32.3148380233784 59.3851619766216
endloop
endfacet
facet normal 1.0 0.0 0.0
outer loop
vertex -24.6 -7.31483802337841 -0.614838023378407
vertex -24.6 -32.3148380233784 59.3851619766216
vertex -24.6 -32.3148380233784 -0.614838023378417
endloop
endfacet
facet normal -1.0 0.0 0.0
outer loop
vertex -30.6 -0.314838023378409 5.3851619766216
vertex -30.6 -39.3148380233784 5.38516197662158
vertex -30.6 -39.3148380233784 59.3851619766216
endloop
endfacet
facet normal -1.59445204815302e-32 -1.0 -8.32667268468867e-17
outer loop
vertex -24.6 -7.31483802337842 59.3851619766216
vertex -24.6 -7.31483802337841 -0.614838023378407
vertex 40.9 -7.31483802337841 -0.614838023378407
endloop
endfacet
facet normal -1.0 0.0 0.0
outer loop
vertex -30.6 5.35183197662158 -0.614838023378404
vertex -30.6 -44.9815080233784 -0.614838023378428
vertex -30.6 -44.9815080233784 5.38516197662162
endloop
endfacet
facet normal 0.0 1.38777878078145e-16 1.0
outer loop
vertex -24.6 -7.31483802337842 59.3851619766216
vertex -30.6 -0.314838023378388 59.3851619766216
vertex -24.6 -32.3148380233784 59.3851619766216
endloop
endfacet
facet normal -5.58996485138562e-33 1.66533453693773e-16 -1.0
outer loop
vertex 46.9 -44.9815080233784 -0.614838023378428
vertex -24.6 -32.3148380233784 -0.614838023378417
vertex 40.9 -32.3148380233784 -0.614838023378417
endloop
endfacet
endsolid model
