solid model
facet normal 0.0 -1.0 6.93889390390723e-17
outer loop
vertex -30.6 -44.9815080233784 5.38516197662161
vertex 46.9 -44.9815080233784 -0.614838023378416
vertex 46.9 -44.9815080233784 5.38516197662161
endloop
endfacet
facet normal -5.24270363320558e-17 2.91433543964104e-16 -1.0
outer loop
vertex 46.9 -44.9815080233784 -0.614838023378416
vertex 40.9 -7.31483802337841 -0.614838023378408
vertex 46.9 5.35183197662158 -0.614838023378404
endloop
endfacet
facet normal 0.0 -1.0 6.93889390390723e-17
outer loop
vertex -30.6 -38.3148380233784 59.3851619766216
vertex -30.6 -38.3148380233784 5.38516197662158
vertex 46.9 -38.3148380233784 5.38516197662158
endloop
endfacet
facet normal -4.78335614445907e-32 -1.0 -4.16333634234434e-17
outer loop
vertex -24.6 -7.31483802337842 59.3851619766216
vertex 40.9 -7.31483802337841 -0.614838023378408
vertex 40.9 -7.31483802337842 59.3851619766216
endloop
endfacet
facet normal 1.0 0.0 0.0
outer loop
vertex 46.9 5.35183197662158 -0.614838023378404
vertex 46.9 -44.9815080233784 5.38516197662161
vertex 46.9 -44.9815080233784 -0.614838023378416
endloop
endfacet
facet normal -1.11799297027712e-32 1.2490009027033e-16 -1.0
outer loop
vertex 40.9 -7.31483802337841 -0.614838023378408
vertex -24.6 -7.31483802337841 -0.614838023378408
vertex -30.6 5.35183197662158 -0.614838023378404
endloop
endfacet
facet normal 0.0 6.93889390390723e-17 1.0
outer loop
vertex 40.9 -32.3148380233784 59.3851619766216
vertex -24.6 -32.3148380233784 59.3851619766216
vertex -30.6 -38.3148380233784 59.3851619766216
endloop
endfacet
facet normal 1.0 -0.0 -0.0
outer loop
vertex 46.9 -1.31483802337838 59.3851619766216
vertex 46.9 -38.3148380233784 59.3851619766216
vertex 46.9 -1.31483802337841 5.3851619766216
endloop
endfacet
facet normal -2.81213156031952e-32 1.0 -4.63466713566899e-16
outer loop
vertex 46.9 -1.31483802337838 59.3851619766216
vertex -30.6 -1.31483802337841 5.3851619766216
vertex -30.6 -1.31483802337838 59.3851619766216
endloop
endfacet
facet normal 0.0 4.7045700668491e-15 1.0
outer loop
vertex 46.9 -38.3148380233784 5.38516197662158
vertex -30.6 -44.9815080233784 5.38516197662161
vertex 46.9 -44.9815080233784 5.38516197662161
endloop
endfacet
facet normal 1.0 0.0 0.0
outer loop
vertex -24.6 -7.31483802337841 -0.614838023378408
vertex -24.6 -7.31483802337842 59.3851619766216
vertex -24.6 -32.3148380233784 59.3851619766216
endloop
endfacet
facet normal -1.0 0.0 0.0
outer loop
vertex -30.6 -1.31483802337838 59.3851619766216
vertex -30.6 -1.31483802337841 5.3851619766216
vertex -30.6 -38.3148380233784 59.3851619766216
endloop
endfacet
facet normal -1.0 0.0 0.0
outer loop
vertex -30.6 -1.31483802337841 5.3851619766216
vertex -30.6 -38.3148380233784 5.38516197662158
vertex -30.6 -38.3148380233784 59.3851619766216
endloop
endfacet
facet normal -1.0 0.0 0.0
outer loop
vertex -30.6 5.35183197662158 -0.614838023378404
vertex -30.6 -44.9815080233784 -0.614838023378416
vertex -30.6 -44.9815080233784 5.38516197662161
endloop
endfacet
facet normal 1.0 -0.0 -0.0
outer loop
vertex 46.9 5.35183197662158 -0.614838023378404
vertex 46.9 -1.31483802337841 5.3851619766216
vertex 46.9 -38.3148380233784 5.38516197662158
endloop
endfacet
facet normal 1.0 -0.0 -0.0
outer loop
vertex 46.9 -1.31483802337841 5.3851619766216
vertex 46.9 5.35183197662158 -0.614838023378404
vertex 46.9 5.35183197662157 5.38516197662159
endloop
endfacet
facet normal -1.59445204815302e-32 -1.0 -4.16333634234434e-17
outer loop
vertex -24.6 -7.31483802337842 59.3851619766216
vertex -24.6 -7.31483802337841 -0.614838023378408
vertex 40.9 -7.31483802337841 -0.614838023378408
endloop
endfacet
facet normal 0.0 6.93889390390723e-17 1.0
outer loop
vertex 46.9 -38.3148380233784 59.3851619766216
vertex 40.9 -32.3148380233784 59.3851619766216
vertex -30.6 -38.3148380233784 59.3851619766216
endloop
endfacet
facet normal 0.0 6.93889390390723e-17 1.0
outer loop
vertex 46.9 -1.31483802337838 59.3851619766216
vertex -24.6 -7.31483802337842 59.3851619766216
vertex 40.9 -7.31483802337842 59.3851619766216
endloop
endfacet
facet normal -3.99289851465676e-33 1.2490009027033e-16 -1.0
outer loop
vertex 46.9 5.35183197662158 -0.614838023378404
vertex 40.9 -7.31483802337841 -0.614838023378408
vertex -30.6 5.35183197662158 -0.614838023378404
endloop
endfacet
facet normal 5.24270363320559e-17 2.91433543964104e-16 -1.0
outer loop
vertex -24.6 -7.31483802337841 -0.614838023378408
vertex -30.6 -44.9815080233784 -0.614838023378416
vertex -30.6 5.35183197662158 -0.614838023378404
endloop
endfacet
facet normal 1.7795520030147e-32 1.0 1.62370117351429e-15
outer loop
vertex 46.9 5.35183197662157 5.38516197662159
vertex -30.6 5.35183197662158 -0.614838023378404
vertex -30.6 5.35183197662157 5.38516197662159
endloop
endfacet
facet normal 0.0 6.93889390390723e-17 1.0
outer loop
vertex 46.9 -1.31483802337838 59.3851619766216
vertex -30.6 -1.31483802337838 59.3851619766216
vertex -24.6 -7.31483802337842 59.3851619766216
endloop
endfacet
facet normal 5.76574272402346e-32 4.7045700668491e-15 1.0
outer loop
vertex 46.9 -38.3148380233784 5.38516197662158
vertex -30.6 -38.3148380233784 5.38516197662158
vertex -30.6 -44.9815080233784 5.38516197662161
endloop
endfacet
facet normal 0.0 1.0 -6.93889390390723e-17
outer loop
vertex 40.9 -32.3148380233784 59.3851619766216
vertex -24.6 -32.3148380233784 -0.614838023378418
vertex -24.6 -32.3148380233784 59.3851619766216
endloop
endfacet
facet normal -1.7795520030147e-32 1.0 1.62370117351429e-15
outer loop
vertex 46.9 5.35183197662157 5.38516197662159
vertex 46.9 5.35183197662158 -0.614838023378404
vertex -30.6 5.35183197662158 -0.614838023378404
endloop
endfacet
facet normal -8.34242081896679e-17 2.91433543964104e-16 -1.0
outer loop
vertex -24.6 -32.3148380233784 -0.614838023378418
vertex -30.6 -44.9815080233784 -0.614838023378416
vertex -24.6 -7.31483802337841 -0.614838023378408
endloop
endfacet
facet normal -1.0 0.0 0.0
outer loop
vertex -30.6 -1.31483802337841 5.3851619766216
vertex -30.6 5.35183197662158 -0.614838023378404
vertex -30.6 -38.3148380233784 5.38516197662158
endloop
endfacet
facet normal -1.0 0.0 0.0
outer loop
vertex -30.6 5.35183197662158 -0.614838023378404
vertex -30.6 -1.31483802337841 5.3851619766216
vertex -30.6 5.35183197662157 5.38516197662159
endloop
endfacet
facet normal 0.0 1.0 -6.93889390390723e-17
outer loop
vertex 40.9 -32.3148380233784 59.3851619766216
vertex 40.9 -32.3148380233784 -0.614838023378418
vertex -24.6 -32.3148380233784 -0.614838023378418
endloop
endfacet
facet normal 0.0 6.93889390390723e-17 1.0
outer loop
vertex -24.6 -32.3148380233784 59.3851619766216
vertex -30.6 -1.31483802337838 59.3851619766216
vertex -30.6 -38.3148380233784 59.3851619766216
endloop
endfacet
facet normal 0.0 1.2490009027033e-16 -1.0
outer loop
vertex 46.9 -44.9815080233784 -0.614838023378416
vertex -24.6 -32.3148380233784 -0.614838023378418
vertex 40.9 -32.3148380233784 -0.614838023378418
endloop
endfacet
facet normal 8.34242081896688e-17 2.91433543964104e-16 -1.0
outer loop
vertex 46.9 -44.9815080233784 -0.614838023378416
vertex 40.9 -32.3148380233784 -0.614838023378418
vertex 40.9 -7.31483802337841 -0.614838023378408
endloop
endfacet
facet normal -0.0 1.37473297287562e-15 1.0
outer loop
vertex 46.9 5.35183197662157 5.38516197662159
vertex -30.6 5.35183197662157 5.38516197662159
vertex -30.6 -1.31483802337841 5.3851619766216
endloop
endfacet
facet normal -0.0 1.0 -4.63466713566899e-16
outer loop
vertex 46.9 -1.31483802337838 59.3851619766216
vertex 46.9 -1.31483802337841 5.3851619766216
vertex -30.6 -1.31483802337841 5.3851619766216
endloop
endfacet
facet normal 0.0 6.93889390390723e-17 1.0
outer loop
vertex 46.9 -1.31483802337838 59.3851619766216
vertex 40.9 -7.31483802337842 59.3851619766216
vertex 46.9 -38.3148380233784 59.3851619766216
endloop
endfacet
facet normal 1.0 0.0 0.0
outer loop
vertex 46.9 5.35183197662158 -0.614838023378404
vertex 46.9 -38.3148380233784 5.38516197662158
vertex 46.9 -44.9815080233784 5.38516197662161
endloop
endfacet
facet normal -1.0 0.0 0.0
outer loop
vertex -30.6 5.35183197662158 -0.614838023378404
vertex -30.6 -44.9815080233784 5.38516197662161
vertex -30.6 -38.3148380233784 5.38516197662158
endloop
endfacet
facet normal 0.0 6.93889390390723e-17 1.0
outer loop
vertex -24.6 -7.31483802337842 59.3851619766216
vertex -30.6 -1.31483802337838 59.3851619766216
vertex -24.6 -32.3148380233784 59.3851619766216
endloop
endfacet
facet normal -1.0 0.0 0.0
outer loop
vertex 40.9 -7.31483802337841 -0.614838023378408
vertex 40.9 -32.3148380233784 -0.614838023378418
vertex 40.9 -32.3148380233784 59.3851619766216
endloop
endfacet
facet normal 0.0 6.93889390390723e-17 1.0
outer loop
vertex 46.9 -38.3148380233784 59.3851619766216
vertex 40.9 -7.31483802337842 59.3851619766216
vertex 40.9 -32.3148380233784 59.3851619766216
endloop
endfacet
facet normal 1.0 0.0 0.0
outer loop
vertex -24.6 -7.31483802337841 -0.614838023378408
vertex -24.6 -32.3148380233784 59.3851619766216
vertex -24.6 -32.3148380233784 -0.614838023378418
endloop
endfacet
facet normal 1.44143568100587e-32 1.37473297287562e-15 1.0
outer loop
vertex 46.9 5.35183197662157 5.38516197662159
vertex -30.6 -1.31483802337841 5.3851619766216
vertex 46.9 -1.31483802337841 5.3851619766216
endloop
endfacet
facet normal 1.0 -0.0 -0.0
outer loop
vertex 46.9 -1.31483802337841 5.3851619766216
vertex 46.9 -38.3148380233784 59.3851619766216
vertex 46.9 -38.3148380233784 5.38516197662158
endloop
endfacet
facet normal -3.99289851465676e-33 1.2490009027033e-16 -1.0
outer loop
vertex 46.9 -44.9815080233784 -0.614838023378416
vertex -30.6 -44.9815080233784 -0.614838023378416
vertex -24.6 -32.3148380233784 -0.614838023378418
endloop
endfacet
facet normal 0.0 -1.0 6.93889390390723e-17
outer loop
vertex -30.6 -38.3148380233784 59.3851619766216
vertex 46.9 -38.3148380233784 5.38516197662158
vertex 46.9 -38.3148380233784 59.3851619766216
endloop
endfacet
facet normal 0.0 -1.0 6.93889390390723e-17
outer loop
vertex -30.6 -44.9815080233784 5.38516197662161
vertex -30.6 -44.9815080233784 -0.614838023378416
vertex 46.9 -44.9815080233784 -0.614838023378416
endloop
endfacet
facet normal -1.0 0.0 0.0
outer loop
vertex 40.9 -7.31483802337841 -0.614838023378408
vertex 40.9 -32.3148380233784 59.3851619766216
vertex 40.9 -7.31483802337842 59.3851619766216
endloop
endfacet
endsolid model
