solid model
facet normal -6.08836544308152e-15 0.637426377601092 -0.770511267366253
outer loop
vertex 16.0 -48.374175 5.92130399999998
vertex 8.66293703438714e-15 -50.3096400000001 4.32013800000001
vertex 4.33146851719357e-15 -48.374175 5.92130400000001
endloop
endfacet
facet normal -6.08836544308152e-15 0.637426377601092 -0.770511267366253
outer loop
vertex 8.66293703438714e-15 -50.3096400000001 4.32013800000001
vertex 16.0 -48.374175 5.92130399999998
vertex 16.0 -50.3096400000001 4.32013799999997
endloop
endfacet
facet normal 7.36584552114721e-16 0.0627898008147253 -0.998026773645701
outer loop
vertex 1.44382283906452e-14 72.9501400000001 0.657723999999995
vertex 16.0 70.4431600000001 0.499999999999998
vertex -1.58820512297098e-14 70.4431600000001 0.499999999999992
endloop
endfacet
facet normal 7.36584552114721e-16 0.0627898008147253 -0.998026773645701
outer loop
vertex 16.0 70.4431600000001 0.499999999999998
vertex 1.44382283906452e-14 72.9501400000001 0.657723999999995
vertex 16.0 72.9501400000001 0.657724000000004
endloop
endfacet
facet normal -4.1623204656408e-19 -0.992114885884907 -0.125331772530261
outer loop
vertex 16.0 -82.0298600000001 19.246532
vertex -2.59888111031614e-14 -81.715035 16.754406
vertex 16.0 -81.715035 16.754406
endloop
endfacet
facet normal -4.1623204656408e-19 -0.992114885884907 -0.125331772530261
outer loop
vertex -2.59888111031614e-14 -81.715035 16.754406
vertex 16.0 -82.0298600000001 19.246532
vertex 0.0 -82.0298600000001 19.246532
endloop
endfacet
facet normal -1.92957195871243e-18 -0.309016443553718 0.951056695267643
outer loop
vertex 16.0 63.0797550000001 39.1003555
vertex 4.33146851719357e-15 65.4687500000001 39.8765855
vertex -4.62023308500648e-14 63.0797550000001 39.1003555
endloop
endfacet
facet normal -1.92957195871243e-18 -0.309016443553718 0.951056695267643
outer loop
vertex 4.33146851719357e-15 65.4687500000001 39.8765855
vertex 16.0 63.0797550000001 39.1003555
vertex 16.0 65.4687500000001 39.8765855
endloop
endfacet
facet normal -1.35709686353233e-15 0.535827534262205 -0.844327456338171
outer loop
vertex 8.66293703438714e-15 -50.3096400000001 4.32013800000001
vertex 16.0 -52.430535 2.97417450000003
vertex 4.33146851719357e-15 -52.430535 2.97417449999999
endloop
endfacet
facet normal -1.35709686353233e-15 0.535827534262205 -0.844327456338171
outer loop
vertex 16.0 -52.430535 2.97417450000003
vertex 8.66293703438714e-15 -50.3096400000001 4.32013800000001
vertex 16.0 -50.3096400000001 4.32013799999997
endloop
endfacet
facet normal 5.27984720842071e-16 0.53582123061866 -0.844331456726743
outer loop
vertex 8.66293703438714e-15 82.2003600000001 4.32013799999999
vertex 16.0 80.0794300000001 2.97417449999999
vertex 4.33146851719357e-15 80.0794300000001 2.97417449999997
endloop
endfacet
facet normal 5.27984720842071e-16 0.53582123061866 -0.844331456726743
outer loop
vertex 16.0 80.0794300000001 2.97417449999999
vertex 8.66293703438714e-15 82.2003600000001 4.32013799999999
vertex 16.0 82.2003600000001 4.32013799999998
endloop
endfacet
facet normal 4.67874211423771e-16 -0.637426377601115 -0.770511267366234
outer loop
vertex 8.66293703438714e-15 -73.8240050000001 4.320138
vertex 16.0 -75.75947 5.92130399999997
vertex 4.33146851719357e-15 -75.75947 5.92130400000002
endloop
endfacet
facet normal 4.67874211423771e-16 -0.637426377601115 -0.770511267366234
outer loop
vertex 16.0 -75.75947 5.92130399999997
vertex 8.66293703438714e-15 -73.8240050000001 4.320138
vertex 16.0 -73.824005 4.32013799999999
endloop
endfacet
facet normal -8.63216700034354e-19 -0.187382487790081 0.982287026927262
outer loop
vertex 16.0 -67.04125 39.8765855
vertex 4.33146851719357e-15 -64.57382 40.347276
vertex 4.33146851719357e-15 -67.04125 39.8765855
endloop
endfacet
facet normal -8.63216700034354e-19 -0.187382487790081 0.982287026927262
outer loop
vertex 4.33146851719357e-15 -64.57382 40.347276
vertex 16.0 -67.04125 39.8765855
vertex 16.0 -64.57382 40.347276
endloop
endfacet
facet normal 1.3823686578749e-18 0.876309133528011 0.4817492112037
outer loop
vertex -1.58820512297098e-14 87.3318500000001 31.220375
vertex 16.0 88.0000000000001 30.005
vertex -2.59888111031614e-14 88.0000000000001 30.005
endloop
endfacet
facet normal 1.3823686578749e-18 0.876309133528011 0.4817492112037
outer loop
vertex 16.0 88.0000000000001 30.005
vertex -1.58820512297098e-14 87.3318500000001 31.220375
vertex 16.0 87.3318500000001 31.220375
endloop
endfacet
facet normal -2.63553317106668e-18 -0.809017613851294 0.587784399655486
outer loop
vertex 16.0 -77.47902 33.252573
vertex -1.58820512297098e-14 -78.955495 31.220375
vertex 16.0 -78.955495 31.220375
endloop
endfacet
facet normal -2.63553317106668e-18 -0.809017613851294 0.587784399655486
outer loop
vertex -1.58820512297098e-14 -78.955495 31.220375
vertex 16.0 -77.47902 33.252573
vertex 1.44382283906452e-14 -77.47902 33.252573
endloop
endfacet
facet normal 1.46936688411499e-18 -0.309016443553721 -0.951056695267643
outer loop
vertex 16.0 -67.04125 1.12841449999995
vertex 8.66293703438714e-15 -69.430245 1.90464449999998
vertex 8.66293703438714e-15 -67.04125 1.12841449999995
endloop
endfacet
facet normal 1.46936688411499e-18 -0.309016443553721 -0.951056695267643
outer loop
vertex 8.66293703438714e-15 -69.430245 1.90464449999998
vertex 16.0 -67.04125 1.12841449999995
vertex 16.0 -69.430245 1.90464449999998
endloop
endfacet
facet normal -3.25097996979828e-19 0.0627898008147204 0.998026773645701
outer loop
vertex 16.0 70.4431600000001 40.505
vertex 4.33146851719357e-15 72.9501400000001 40.347276
vertex -1.58820512297098e-14 70.4431600000001 40.505
endloop
endfacet
facet normal -3.25097996979828e-19 0.0627898008147204 0.998026773645701
outer loop
vertex 4.33146851719357e-15 72.9501400000001 40.347276
vertex 16.0 70.4431600000001 40.505
vertex 16.0 72.9501400000001 40.347276
endloop
endfacet
facet normal -3.38547685456041e-18 0.3090164435537 0.95105669526765
outer loop
vertex 4.33146851719357e-15 -57.092395 39.8765855
vertex 16.0 -54.7034 39.1003555
vertex -4.62023308500648e-14 -54.7034 39.1003555
endloop
endfacet
facet normal -3.38547685456041e-18 0.3090164435537 0.95105669526765
outer loop
vertex 16.0 -54.7034 39.1003555
vertex 4.33146851719357e-15 -57.092395 39.8765855
vertex 16.0 -57.092395 39.8765855
endloop
endfacet
facet normal 0.0 -1.0 0.0
outer loop
vertex 16.0 -82.0298600000001 21.758468
vertex 0.0 -82.0298600000001 19.246532
vertex 16.0 -82.0298600000001 19.246532
endloop
endfacet
facet normal 0.0 -1.0 0.0
outer loop
vertex 0.0 -82.0298600000001 19.246532
vertex 16.0 -82.0298600000001 21.758468
vertex 8.66293703438714e-15 -82.0298600000001 21.758468
endloop
endfacet
facet normal 1.9147923465576e-15 0.425784957816814 -0.904824386108671
outer loop
vertex 16.0 80.0794300000001 2.97417449999999
vertex 8.66293703438714e-15 77.8066000000001 1.90464449999999
vertex 4.33146851719357e-15 80.0794300000001 2.97417449999997
endloop
endfacet
facet normal 1.9147923465576e-15 0.425784957816814 -0.904824386108671
outer loop
vertex 8.66293703438714e-15 77.8066000000001 1.90464449999999
vertex 16.0 80.0794300000001 2.97417449999999
vertex 16.0 77.8066000000001 1.9046445
endloop
endfacet
facet normal 3.36861884270534e-18 0.187379923169142 -0.982287516154576
outer loop
vertex 16.0 -57.0923950000001 1.12841449999999
vertex 1.44382283906452e-14 -59.5598600000001 0.657724
vertex 8.66293703438714e-15 -57.0923950000001 1.12841449999999
endloop
endfacet
facet normal 3.36861884270534e-18 0.187379923169142 -0.982287516154576
outer loop
vertex 1.44382283906452e-14 -59.5598600000001 0.657724
vertex 16.0 -57.0923950000001 1.12841449999999
vertex 16.0 -59.5598600000001 0.657724000000001
endloop
endfacet
facet normal -3.68373256337453e-15 0.728966432830532 -0.684549442923102
outer loop
vertex 4.33146851719357e-15 -48.374175 5.92130400000001
vertex 16.0 -46.654625 7.75242700000001
vertex 16.0 -48.374175 5.92130399999998
endloop
endfacet
facet normal -3.68373256337453e-15 0.728966432830532 -0.684549442923102
outer loop
vertex 16.0 -46.654625 7.75242700000001
vertex 4.33146851719357e-15 -48.374175 5.92130400000001
vertex -5.77529135625809e-15 -46.6546250000001 7.75242699999999
endloop
endfacet
facet normal -0.0 0.728973385830091 0.68454203870282
outer loop
vertex 1.44382283906452e-14 84.1358250000001 35.083696
vertex 16.0 85.8553400000001 33.252573
vertex 1.44382283906452e-14 85.8553400000001 33.252573
endloop
endfacet
facet normal -0.0 0.728973385830091 0.68454203870282
outer loop
vertex 16.0 85.8553400000001 33.252573
vertex 1.44382283906452e-14 84.1358250000001 35.083696
vertex 16.0 84.1358250000001 35.083696
endloop
endfacet
facet normal -4.83896092249157e-18 -0.637426377601113 0.770511267366236
outer loop
vertex 1.44382283906452e-14 -75.75947 35.083696
vertex 16.0 -73.824005 36.684862
vertex -2.59888111031614e-14 -73.824005 36.684862
endloop
endfacet
facet normal -4.83896092249157e-18 -0.637426377601113 0.770511267366236
outer loop
vertex 16.0 -73.824005 36.684862
vertex 1.44382283906452e-14 -75.75947 35.083696
vertex 16.0 -75.75947 35.083696
endloop
endfacet
facet normal -4.83896092248996e-18 0.637426377601107 0.770511267366241
outer loop
vertex 16.0 -50.30964 36.684862
vertex 1.44382283906452e-14 -48.374175 35.083696
vertex -2.59888111031614e-14 -50.30964 36.684862
endloop
endfacet
facet normal -4.83896092248996e-18 0.637426377601107 0.770511267366241
outer loop
vertex 1.44382283906452e-14 -48.374175 35.083696
vertex 16.0 -50.30964 36.684862
vertex 16.0 -48.374175 35.083696
endloop
endfacet
facet normal 0.0 -1.44767609420351e-17 -1.0
outer loop
vertex 16.0 52.8863200000001 11.0
vertex 0.0 -44.51 11.0
vertex 0.0 52.8863200000001 11.0
endloop
endfacet
facet normal 0.0 -1.44767609420351e-17 -1.0
outer loop
vertex 0.0 -44.51 11.0
vertex 16.0 52.8863200000001 11.0
vertex 16.0 -44.51 11.0
endloop
endfacet
facet normal -4.75283951959639e-16 0.809017613851279 -0.587784399655505
outer loop
vertex 8.66293703438714e-15 -45.17815 9.78462499999999
vertex 16.0 -46.654625 7.75242700000001
vertex -5.77529135625809e-15 -46.6546250000001 7.75242699999999
endloop
endfacet
facet normal -4.75283951959639e-16 0.809017613851279 -0.587784399655505
outer loop
vertex 16.0 -46.654625 7.75242700000001
vertex 8.66293703438714e-15 -45.17815 9.78462499999999
vertex 16.0 -45.17815 9.78462499999999
endloop
endfacet
facet normal -1.15531086590992e-18 0.425784957816818 0.904824386108669
outer loop
vertex 16.0 77.8066000000001 39.1003555
vertex -5.77529135625809e-15 80.0794300000001 38.0308255
vertex -4.62023308500648e-14 77.8066000000001 39.1003555
endloop
endfacet
facet normal -1.15531086590992e-18 0.425784957816818 0.904824386108669
outer loop
vertex -5.77529135625809e-15 80.0794300000001 38.0308255
vertex 16.0 77.8066000000001 39.1003555
vertex 16.0 80.0794300000001 38.0308255
endloop
endfacet
facet normal 1.46936688411674e-18 0.309016443553713 -0.951056695267645
outer loop
vertex 16.0 -54.7034000000001 1.90464449999999
vertex 8.66293703438714e-15 -57.0923950000001 1.12841449999999
vertex 8.66293703438714e-15 -54.7034000000001 1.90464449999999
endloop
endfacet
facet normal 1.46936688411674e-18 0.309016443553713 -0.951056695267645
outer loop
vertex 8.66293703438714e-15 -57.0923950000001 1.12841449999999
vertex 16.0 -54.7034000000001 1.90464449999999
vertex 16.0 -57.0923950000001 1.12841449999999
endloop
endfacet
facet normal -1.70321998787265e-15 -0.87629847991568 -0.481768589778816
outer loop
vertex 16.0 52.8863200000001 11.0
vertex 8.66293703438714e-15 53.5545050000001 9.784625
vertex 16.0 53.5545050000001 9.78462499999999
endloop
endfacet
facet normal -1.70321998787265e-15 -0.87629847991568 -0.481768589778816
outer loop
vertex 8.66293703438714e-15 53.5545050000001 9.784625
vertex 16.0 52.8863200000001 11.0
vertex 0.0 52.8863200000001 11.0
endloop
endfacet
facet normal -4.83708156184149e-18 -0.637419534268102 0.770516928648187
outer loop
vertex 1.44382283906452e-14 56.7504950000001 35.083696
vertex 16.0 58.6859950000001 36.684862
vertex -2.59888111031614e-14 58.6859950000001 36.684862
endloop
endfacet
facet normal -4.83708156184149e-18 -0.637419534268102 0.770516928648187
outer loop
vertex 16.0 58.6859950000001 36.684862
vertex 1.44382283906452e-14 56.7504950000001 35.083696
vertex 16.0 56.7504950000001 35.083696
endloop
endfacet
facet normal 2.54118943608896e-18 -0.809017613851269 -0.587784399655519
outer loop
vertex 16.0 -77.47902 7.75242700000001
vertex 8.66293703438714e-15 -78.9554950000001 9.784625
vertex -5.77529135625809e-15 -77.47902 7.75242700000001
endloop
endfacet
facet normal 2.54118943608896e-18 -0.809017613851269 -0.587784399655519
outer loop
vertex 8.66293703438714e-15 -78.9554950000001 9.784625
vertex 16.0 -77.47902 7.75242700000001
vertex 16.0 -78.9554950000001 9.784625
endloop
endfacet
facet normal -2.05342142108457e-18 -0.187382487790068 -0.982287026927265
outer loop
vertex 1.44382283906452e-14 -64.5738200000001 0.657724000000023
vertex 16.0 -67.04125 1.12841449999995
vertex 8.66293703438714e-15 -67.04125 1.12841449999995
endloop
endfacet
facet normal -2.05342142108457e-18 -0.187382487790068 -0.982287026927265
outer loop
vertex 16.0 -67.04125 1.12841449999995
vertex 1.44382283906452e-14 -64.5738200000001 0.657724000000023
vertex 16.0 -64.5738200000001 0.657724000000024
endloop
endfacet
facet normal -1.15170237019063e-18 0.425779589784403 0.904826912134595
outer loop
vertex 16.0 -54.7034 39.1003555
vertex -5.77529135625809e-15 -52.430535 38.0308255
vertex -4.62023308500648e-14 -54.7034 39.1003555
endloop
endfacet
facet normal -1.15170237019063e-18 0.425779589784403 0.904826912134595
outer loop
vertex -5.77529135625809e-15 -52.430535 38.0308255
vertex 16.0 -54.7034 39.1003555
vertex 16.0 -52.430535 38.0308255
endloop
endfacet
facet normal -1.70485235145814e-15 -0.809017613851289 -0.587784399655492
outer loop
vertex 16.0 55.0309800000001 7.752427
vertex 8.66293703438714e-15 53.5545050000001 9.784625
vertex -5.77529135625809e-15 55.0309800000001 7.752427
endloop
endfacet
facet normal -1.70485235145814e-15 -0.809017613851289 -0.587784399655492
outer loop
vertex 8.66293703438714e-15 53.5545050000001 9.784625
vertex 16.0 55.0309800000001 7.752427
vertex 16.0 53.5545050000001 9.78462499999999
endloop
endfacet
facet normal 2.49024486596418e-18 0.809010988089067 0.587793519146947
outer loop
vertex 1.44382283906452e-14 85.8553400000001 33.252573
vertex 16.0 87.3318500000001 31.220375
vertex -1.58820512297098e-14 87.3318500000001 31.220375
endloop
endfacet
facet normal 2.49024486596418e-18 0.809010988089067 0.587793519146947
outer loop
vertex 16.0 87.3318500000001 31.220375
vertex 1.44382283906452e-14 85.8553400000001 33.252573
vertex 16.0 85.8553400000001 33.252573
endloop
endfacet
facet normal -3.25097996997837e-19 0.062789800814743 0.9980267736457
outer loop
vertex 16.0 -62.06684 40.505
vertex 4.33146851719357e-15 -59.55986 40.347276
vertex -1.58820512297098e-14 -62.06684 40.505
endloop
endfacet
facet normal -3.25097996997837e-19 0.062789800814743 0.9980267736457
outer loop
vertex 4.33146851719357e-15 -59.55986 40.347276
vertex 16.0 -62.06684 40.505
vertex 16.0 -59.55986 40.347276
endloop
endfacet
facet normal -1.44914043064101e-15 -0.728973385830093 -0.684542038702818
outer loop
vertex 16.0 55.0309800000001 7.752427
vertex 4.33146851719357e-15 56.7504950000001 5.92130399999999
vertex 16.0 56.7504950000001 5.92130399999995
endloop
endfacet
facet normal -1.44914043064101e-15 -0.728973385830093 -0.684542038702818
outer loop
vertex 4.33146851719357e-15 56.7504950000001 5.92130399999999
vertex 16.0 55.0309800000001 7.752427
vertex -5.77529135625809e-15 55.0309800000001 7.752427
endloop
endfacet
facet normal -1.48149915197858e-18 -0.968581036723077 0.248698161031498
outer loop
vertex 16.0 -81.09032 26.683612
vertex 2.88764567812905e-14 -81.715035 24.2505940000001
vertex 16.0 -81.715035 24.2505940000001
endloop
endfacet
facet normal -1.48149915197858e-18 -0.968581036723077 0.248698161031498
outer loop
vertex 2.88764567812905e-14 -81.715035 24.2505940000001
vertex 16.0 -81.09032 26.683612
vertex -2.02135197469033e-14 -81.09032 26.683612
endloop
endfacet
facet normal 2.92233970059553e-18 0.187382487790088 0.982287026927261
outer loop
vertex 16.0 72.9501400000001 40.347276
vertex 4.33146851719357e-15 75.4175700000001 39.8765855
vertex 4.33146851719357e-15 72.9501400000001 40.347276
endloop
endfacet
facet normal 2.92233970059553e-18 0.187382487790088 0.982287026927261
outer loop
vertex 4.33146851719357e-15 75.4175700000001 39.8765855
vertex 16.0 72.9501400000001 40.347276
vertex 16.0 75.4175700000001 39.8765855
endloop
endfacet
facet normal 2.50378818784245e-18 -0.809017613851291 0.587784399655489
outer loop
vertex 16.0 55.0309800000001 33.252573
vertex -1.58820512297098e-14 53.5545050000001 31.220375
vertex 16.0 53.5545050000001 31.220375
endloop
endfacet
facet normal 2.50378818784245e-18 -0.809017613851291 0.587784399655489
outer loop
vertex -1.58820512297098e-14 53.5545050000001 31.220375
vertex 16.0 55.0309800000001 33.252573
vertex 1.44382283906452e-14 55.0309800000001 33.252573
endloop
endfacet
facet normal -2.23884666810424e-15 -0.637419534268095 -0.770516928648193
outer loop
vertex 8.66293703438714e-15 58.6859950000001 4.32013799999999
vertex 16.0 56.7504950000001 5.92130399999995
vertex 4.33146851719357e-15 56.7504950000001 5.92130399999999
endloop
endfacet
facet normal -2.23884666810424e-15 -0.637419534268095 -0.770516928648193
outer loop
vertex 16.0 56.7504950000001 5.92130399999995
vertex 8.66293703438714e-15 58.6859950000001 4.32013799999999
vertex 16.0 58.6859950000001 4.32013799999998
endloop
endfacet
facet normal 2.1447124268969e-18 0.876309133528009 -0.481749211203704
outer loop
vertex 0.0 88.0 11.0
vertex 16.0 87.3318500000001 9.78462499999999
vertex 8.66293703438714e-15 87.3318500000001 9.78462499999999
endloop
endfacet
facet normal 2.1447124268969e-18 0.876309133528009 -0.481749211203704
outer loop
vertex 16.0 87.3318500000001 9.78462499999999
vertex 0.0 88.0 11.0
vertex 16.0 88.0 11.0
endloop
endfacet
facet normal -1.92957195871873e-18 -0.309016443553711 0.951056695267646
outer loop
vertex 16.0 -69.4302450000001 39.1003555
vertex 4.33146851719357e-15 -67.04125 39.8765855
vertex -4.62023308500648e-14 -69.4302450000001 39.1003555
endloop
endfacet
facet normal -1.92957195871873e-18 -0.309016443553711 0.951056695267646
outer loop
vertex 4.33146851719357e-15 -67.04125 39.8765855
vertex 16.0 -69.4302450000001 39.1003555
vertex 16.0 -67.04125 39.8765855
endloop
endfacet
facet normal 9.61552633374497e-18 0.809010988089067 -0.587793519146946
outer loop
vertex 8.66293703438714e-15 87.3318500000001 9.78462499999999
vertex 16.0 85.8553400000001 7.75242699999999
vertex -5.77529135625809e-15 85.8553400000001 7.75242699999999
endloop
endfacet
facet normal 9.61552633374497e-18 0.809010988089067 -0.587793519146946
outer loop
vertex 16.0 85.8553400000001 7.75242699999999
vertex 8.66293703438714e-15 87.3318500000001 9.78462499999999
vertex 16.0 87.3318500000001 9.78462499999999
endloop
endfacet
facet normal 1.71099583115931e-15 0.425779589784396 -0.904826912134598
outer loop
vertex 16.0 -52.430535 2.97417450000003
vertex 8.66293703438714e-15 -54.7034000000001 1.90464449999999
vertex 4.33146851719357e-15 -52.430535 2.97417449999999
endloop
endfacet
facet normal 1.71099583115931e-15 0.425779589784396 -0.904826912134598
outer loop
vertex 8.66293703438714e-15 -54.7034000000001 1.90464449999999
vertex 16.0 -52.430535 2.97417450000003
vertex 16.0 -54.7034000000001 1.90464449999999
endloop
endfacet
facet normal -2.40725276319681e-15 0.637426377601105 -0.770511267366243
outer loop
vertex 16.0 84.1358250000001 5.92130399999995
vertex 8.66293703438714e-15 82.2003600000001 4.32013799999999
vertex 4.33146851719357e-15 84.1358250000001 5.92130399999999
endloop
endfacet
facet normal -2.40725276319681e-15 0.637426377601105 -0.770511267366243
outer loop
vertex 8.66293703438714e-15 82.2003600000001 4.32013799999999
vertex 16.0 84.1358250000001 5.92130399999995
vertex 16.0 82.2003600000001 4.32013799999998
endloop
endfacet
facet normal 6.16048429313437e-16 -0.0627906739804742 -0.998026718711016
outer loop
vertex 16.0 70.4431600000001 0.499999999999998
vertex 1.44382283906452e-14 67.9362150000001 0.657723999999996
vertex -1.58820512297098e-14 70.4431600000001 0.499999999999992
endloop
endfacet
facet normal 6.16048429313437e-16 -0.0627906739804742 -0.998026718711016
outer loop
vertex 1.44382283906452e-14 67.9362150000001 0.657723999999996
vertex 16.0 70.4431600000001 0.499999999999998
vertex 16.0 67.9362150000001 0.657724000000003
endloop
endfacet
facet normal 4.6315548760772e-18 -0.876308000960546 0.481751271355388
outer loop
vertex 16.0 -78.955495 31.220375
vertex -2.59888111031614e-14 -80.16562 29.0191514999999
vertex 16.0 -80.16562 29.0191514999999
endloop
endfacet
facet normal 4.6315548760772e-18 -0.876308000960546 0.481751271355388
outer loop
vertex -2.59888111031614e-14 -80.16562 29.0191514999999
vertex 16.0 -78.955495 31.220375
vertex -1.58820512297098e-14 -78.955495 31.220375
endloop
endfacet
facet normal 1.13925080278392e-15 -0.425779589784397 -0.904826912134598
outer loop
vertex 8.66293703438714e-15 63.0797550000001 1.90464449999999
vertex 16.0 60.8068900000001 2.9741745
vertex 4.33146851719357e-15 60.8068900000001 2.97417449999998
endloop
endfacet
facet normal 1.13925080278392e-15 -0.425779589784397 -0.904826912134598
outer loop
vertex 16.0 60.8068900000001 2.9741745
vertex 8.66293703438714e-15 63.0797550000001 1.90464449999999
vertex 16.0 63.0797550000001 1.90464449999999
endloop
endfacet
facet normal -4.68567340687063e-18 0.86602527612904 0.500000221105571
outer loop
vertex -2.02135197469033e-14 -73.039369583881 20.5025
vertex 16.0 -67.553095416119 11.0
vertex 8.66293703438714e-15 -67.553095416119 11.0
endloop
endfacet
facet normal -4.68567340687063e-18 0.86602527612904 0.500000221105571
outer loop
vertex 16.0 -67.553095416119 11.0
vertex -2.02135197469033e-14 -73.039369583881 20.5025
vertex 16.0 -73.039369583881 20.5025
endloop
endfacet
facet normal -1.08674505173426e-16 -0.728966432830518 -0.684549442923117
outer loop
vertex 16.0 -77.47902 7.75242700000001
vertex 4.33146851719357e-15 -75.75947 5.92130400000002
vertex 16.0 -75.75947 5.92130399999997
endloop
endfacet
facet normal -1.08674505173426e-16 -0.728966432830518 -0.684549442923117
outer loop
vertex 4.33146851719357e-15 -75.75947 5.92130400000002
vertex 16.0 -77.47902 7.75242700000001
vertex -5.77529135625809e-15 -77.47902 7.75242700000001
endloop
endfacet
facet normal 0.0 -0.728966432830514 0.684549442923121
outer loop
vertex 16.0 -75.75947 35.083696
vertex 1.44382283906452e-14 -77.47902 33.252573
vertex 16.0 -77.47902 33.252573
endloop
endfacet
facet normal 0.0 -0.728966432830514 0.684549442923121
outer loop
vertex 1.44382283906452e-14 -77.47902 33.252573
vertex 16.0 -75.75947 35.083696
vertex 1.44382283906452e-14 -75.75947 35.083696
endloop
endfacet
facet normal -5.11349840755939e-18 -0.866025276129038 -0.500000221105575
outer loop
vertex 16.0 -56.580549583881 30.005
vertex -1.58820512297098e-14 -51.094275416119 20.5025
vertex 16.0 -51.094275416119 20.5025
endloop
endfacet
facet normal -5.11349840755939e-18 -0.866025276129038 -0.500000221105575
outer loop
vertex -1.58820512297098e-14 -51.094275416119 20.5025
vertex 16.0 -56.580549583881 30.005
vertex -2.59888111031614e-14 -56.580549583881 30.005
endloop
endfacet
facet normal -2.45337114785565e-18 -0.876298479915671 0.481768589778833
outer loop
vertex 16.0 53.5545050000001 31.220375
vertex -2.59888111031614e-14 52.8863200000001 30.005
vertex 16.0 52.8863200000001 30.005
endloop
endfacet
facet normal -2.45337114785565e-18 -0.876298479915671 0.481768589778833
outer loop
vertex -2.59888111031614e-14 52.8863200000001 30.005
vertex 16.0 53.5545050000001 31.220375
vertex -1.58820512297098e-14 53.5545050000001 31.220375
endloop
endfacet
facet normal 3.83036423347682e-16 -0.535827534262198 -0.844327456338175
outer loop
vertex 16.0 60.8068900000001 2.9741745
vertex 8.66293703438714e-15 58.6859950000001 4.32013799999999
vertex 4.33146851719357e-15 60.8068900000001 2.97417449999998
endloop
endfacet
facet normal 3.83036423347682e-16 -0.535827534262198 -0.844327456338175
outer loop
vertex 8.66293703438714e-15 58.6859950000001 4.32013799999999
vertex 16.0 60.8068900000001 2.9741745
vertex 16.0 58.6859950000001 4.32013799999998
endloop
endfacet
facet normal 2.02374929727152e-15 -0.0627898008147215 -0.998026773645701
outer loop
vertex 16.0 -62.06684 0.500000000000043
vertex 1.44382283906452e-14 -64.5738200000001 0.657724000000023
vertex -1.58820512297098e-14 -62.0668400000001 0.50000000000001
endloop
endfacet
facet normal 2.02374929727152e-15 -0.0627898008147215 -0.998026773645701
outer loop
vertex 1.44382283906452e-14 -64.5738200000001 0.657724000000023
vertex 16.0 -62.06684 0.500000000000043
vertex 16.0 -64.5738200000001 0.657724000000024
endloop
endfacet
facet normal 2.80399658880122e-18 -0.425779589784398 0.904826912134597
outer loop
vertex -5.77529135625809e-15 -71.7031100000001 38.0308255
vertex 16.0 -69.4302450000001 39.1003555
vertex -4.62023308500648e-14 -69.4302450000001 39.1003555
endloop
endfacet
facet normal 2.80399658880122e-18 -0.425779589784398 0.904826912134597
outer loop
vertex 16.0 -69.4302450000001 39.1003555
vertex -5.77529135625809e-15 -71.7031100000001 38.0308255
vertex 16.0 -71.7031100000001 38.0308255
endloop
endfacet
facet normal 5.29867275516393e-19 -0.992114885884908 0.125331772530259
outer loop
vertex 16.0 -81.715035 24.2505940000001
vertex 8.66293703438714e-15 -82.0298600000001 21.758468
vertex 16.0 -82.0298600000001 21.758468
endloop
endfacet
facet normal 5.29867275516393e-19 -0.992114885884908 0.125331772530259
outer loop
vertex 8.66293703438714e-15 -82.0298600000001 21.758468
vertex 16.0 -81.715035 24.2505940000001
vertex 2.88764567812905e-14 -81.715035 24.2505940000001
endloop
endfacet
facet normal 4.65520540822974e-16 0.187382487790085 -0.982287026927262
outer loop
vertex 16.0 75.4175700000001 1.12841449999998
vertex 1.44382283906452e-14 72.9501400000001 0.657723999999995
vertex 8.66293703438714e-15 75.4175700000001 1.12841449999998
endloop
endfacet
facet normal 4.65520540822974e-16 0.187382487790085 -0.982287026927262
outer loop
vertex 1.44382283906452e-14 72.9501400000001 0.657723999999995
vertex 16.0 75.4175700000001 1.12841449999998
vertex 16.0 72.9501400000001 0.657724000000004
endloop
endfacet
facet normal -1.93301843979246e-18 0.309012348668274 0.95105802576421
outer loop
vertex 4.33146851719357e-15 75.4175700000001 39.8765855
vertex 16.0 77.8066000000001 39.1003555
vertex -4.62023308500648e-14 77.8066000000001 39.1003555
endloop
endfacet
facet normal -1.93301843979246e-18 0.309012348668274 0.95105802576421
outer loop
vertex 16.0 77.8066000000001 39.1003555
vertex 4.33146851719357e-15 75.4175700000001 39.8765855
vertex 16.0 75.4175700000001 39.8765855
endloop
endfacet
facet normal 1.84642046789442e-15 0.0627898008147131 -0.998026773645702
outer loop
vertex 1.44382283906452e-14 -59.5598600000001 0.657724
vertex 16.0 -62.06684 0.500000000000043
vertex -1.58820512297098e-14 -62.0668400000001 0.50000000000001
endloop
endfacet
facet normal 1.84642046789442e-15 0.0627898008147131 -0.998026773645702
outer loop
vertex 16.0 -62.06684 0.500000000000043
vertex 1.44382283906452e-14 -59.5598600000001 0.657724
vertex 16.0 -59.5598600000001 0.657724000000001
endloop
endfacet
facet normal -2.66897156038684e-17 0.866024693569739 -0.500001230125926
outer loop
vertex -5.77529135625809e-15 64.9569046595838 30.005
vertex 16.0 59.9431600000001 21.320968
vertex -2.02135197469033e-14 59.9431600000001 21.320968
endloop
endfacet
facet normal -2.66897156038684e-17 0.866024693569739 -0.500001230125926
outer loop
vertex 16.0 59.9431600000001 21.320968
vertex -5.77529135625809e-15 64.9569046595838 30.005
vertex 16.0 64.9569046595838 30.005
endloop
endfacet
facet normal -2.26253178286633e-15 0.866024693569739 0.500001230125927
outer loop
vertex -4.04270394938067e-14 59.9431600000001 19.6840319999999
vertex 16.0 64.9569046595838 11.0
vertex 0.0 64.9569046595838 11.0
endloop
endfacet
facet normal -2.26253178286633e-15 0.866024693569739 0.500001230125927
outer loop
vertex 16.0 64.9569046595838 11.0
vertex -4.04270394938067e-14 59.9431600000001 19.6840319999999
vertex 16.0 59.9431600000001 19.684032
endloop
endfacet
facet normal -4.83896092248965e-18 0.637426377601106 0.770511267366242
outer loop
vertex 16.0 82.2003600000001 36.684862
vertex 1.44382283906452e-14 84.1358250000001 35.083696
vertex -2.59888111031614e-14 82.2003600000001 36.684862
endloop
endfacet
facet normal -4.83896092248965e-18 0.637426377601106 0.770511267366242
outer loop
vertex 1.44382283906452e-14 84.1358250000001 35.083696
vertex 16.0 82.2003600000001 36.684862
vertex 16.0 84.1358250000001 35.083696
endloop
endfacet
facet normal -2.13314929643085e-18 -0.535827534262202 0.844327456338173
outer loop
vertex 16.0 -73.824005 36.684862
vertex -5.77529135625809e-15 -71.7031100000001 38.0308255
vertex -2.59888111031614e-14 -73.824005 36.684862
endloop
endfacet
facet normal -2.13314929643085e-18 -0.535827534262202 0.844327456338173
outer loop
vertex -5.77529135625809e-15 -71.7031100000001 38.0308255
vertex 16.0 -73.824005 36.684862
vertex 16.0 -71.7031100000001 38.0308255
endloop
endfacet
facet normal -2.06748512757016e-18 0.876309133527994 -0.48174921120373
outer loop
vertex 0.0 -44.51 11.0
vertex 16.0 -45.17815 9.78462499999999
vertex 8.66293703438714e-15 -45.17815 9.78462499999999
endloop
endfacet
facet normal -2.06748512757016e-18 0.876309133527994 -0.48174921120373
outer loop
vertex 16.0 -45.17815 9.78462499999999
vertex 0.0 -44.51 11.0
vertex 16.0 -44.51 11.0
endloop
endfacet
facet normal -8.64727722499817e-19 -0.187379923169136 0.982287516154577
outer loop
vertex 16.0 65.4687500000001 39.8765855
vertex 4.33146851719357e-15 67.9362150000001 40.347276
vertex 4.33146851719357e-15 65.4687500000001 39.8765855
endloop
endfacet
facet normal -8.64727722499817e-19 -0.187379923169136 0.982287516154577
outer loop
vertex 4.33146851719357e-15 67.9362150000001 40.347276
vertex 16.0 65.4687500000001 39.8765855
vertex 16.0 67.9362150000001 40.347276
endloop
endfacet
facet normal 3.47933365605036e-16 -0.187379923169141 -0.982287516154576
outer loop
vertex 1.44382283906452e-14 67.9362150000001 0.657723999999996
vertex 16.0 65.4687500000001 1.12841449999999
vertex 8.66293703438714e-15 65.4687500000001 1.12841449999999
endloop
endfacet
facet normal 3.47933365605036e-16 -0.187379923169141 -0.982287516154576
outer loop
vertex 16.0 65.4687500000001 1.12841449999999
vertex 1.44382283906452e-14 67.9362150000001 0.657723999999996
vertex 16.0 67.9362150000001 0.657724000000003
endloop
endfacet
facet normal -0.0 2.31628175072561e-16 1.0
outer loop
vertex 16.0 -44.51 30.005
vertex -2.59888111031614e-14 52.8863200000001 30.005
vertex -2.59888111031614e-14 -44.51 30.005
endloop
endfacet
facet normal -0.0 2.31628175072561e-16 1.0
outer loop
vertex -2.59888111031614e-14 52.8863200000001 30.005
vertex 16.0 -44.51 30.005
vertex 16.0 52.8863200000001 30.005
endloop
endfacet
facet normal -2.63553317108741e-18 0.809017613851283 0.587784399655499
outer loop
vertex 1.44382283906452e-14 -46.654625 33.252573
vertex 16.0 -45.17815 31.220375
vertex -1.58820512297098e-14 -45.17815 31.220375
endloop
endfacet
facet normal -2.63553317108741e-18 0.809017613851283 0.587784399655499
outer loop
vertex 16.0 -45.17815 31.220375
vertex 1.44382283906452e-14 -46.654625 33.252573
vertex 16.0 -46.654625 33.252573
endloop
endfacet
facet normal -6.81818328702018e-18 -0.535827534262197 0.844327456338176
outer loop
vertex 16.0 58.6859950000001 36.684862
vertex -5.77529135625809e-15 60.8068900000001 38.0308255
vertex -2.59888111031614e-14 58.6859950000001 36.684862
endloop
endfacet
facet normal -6.81818328702018e-18 -0.535827534262197 0.844327456338176
outer loop
vertex -5.77529135625809e-15 60.8068900000001 38.0308255
vertex 16.0 58.6859950000001 36.684862
vertex 16.0 60.8068900000001 38.0308255
endloop
endfacet
facet normal 5.64234709811579e-19 0.5358275342622 0.844327456338174
outer loop
vertex -5.77529135625809e-15 -52.430535 38.0308255
vertex 16.0 -50.30964 36.684862
vertex -2.59888111031614e-14 -50.30964 36.684862
endloop
endfacet
facet normal 5.64234709811579e-19 0.5358275342622 0.844327456338174
outer loop
vertex 16.0 -50.30964 36.684862
vertex -5.77529135625809e-15 -52.430535 38.0308255
vertex 16.0 -52.430535 38.0308255
endloop
endfacet
facet normal 1.58484338458241e-32 1.79901416495694e-15 1.0
outer loop
vertex 8.66293703438714e-15 -67.553095416119 11.0
vertex 16.0 -56.5805495838811 11.0
vertex 0.0 -56.5805495838811 11.0
endloop
endfacet
facet normal 1.58484338458241e-32 1.79901416495694e-15 1.0
outer loop
vertex 16.0 -56.5805495838811 11.0
vertex 8.66293703438714e-15 -67.553095416119 11.0
vertex 16.0 -67.553095416119 11.0
endloop
endfacet
facet normal -3.524745130847e-16 1.24894603212201e-16 1.0
outer loop
vertex 16.0 64.9569046595838 11.0
vertex 0.0 88.0 11.0
vertex 0.0 64.9569046595838 11.0
endloop
endfacet
facet normal -3.524745130847e-16 1.24894603212201e-16 1.0
outer loop
vertex 0.0 88.0 11.0
vertex 16.0 64.9569046595838 11.0
vertex 16.0 88.0 11.0
endloop
endfacet
facet normal 7.04991620636954e-16 1.0 3.44542056934162e-15
outer loop
vertex -2.02135197469033e-14 59.9431600000001 21.320968
vertex 16.0 59.9431600000001 19.684032
vertex -4.04270394938067e-14 59.9431600000001 19.6840319999999
endloop
endfacet
facet normal 7.04991620636954e-16 1.0 3.44542056934162e-15
outer loop
vertex 16.0 59.9431600000001 19.684032
vertex -2.02135197469033e-14 59.9431600000001 21.320968
vertex 16.0 59.9431600000001 21.320968
endloop
endfacet
facet normal 1.0 9.64406287519563e-18 1.45324098526515e-16
outer loop
vertex 16.0 -81.715035 16.754406
vertex 16.0 -82.0298600000001 21.758468
vertex 16.0 -82.0298600000001 19.246532
endloop
endfacet
facet normal 1.0 9.64406287519563e-18 1.45324098526515e-16
outer loop
vertex 16.0 -82.0298600000001 21.758468
vertex 16.0 -81.715035 16.754406
vertex 16.0 -81.715035 24.2505940000001
endloop
endfacet
facet normal 1.0 9.64406287519563e-18 1.45324098526515e-16
outer loop
vertex 16.0 -81.715035 24.2505940000001
vertex 16.0 -81.715035 16.754406
vertex 16.0 -81.09032 14.321388
endloop
endfacet
facet normal 1.0 9.64406287519563e-18 1.45324098526515e-16
outer loop
vertex 16.0 -81.715035 24.2505940000001
vertex 16.0 -81.09032 14.321388
vertex 16.0 -81.09032 26.683612
endloop
endfacet
facet normal 1.0 9.64406287519563e-18 1.45324098526515e-16
outer loop
vertex 16.0 -81.09032 26.683612
vertex 16.0 -81.09032 14.321388
vertex 16.0 -80.16562 29.0191514999999
endloop
endfacet
facet normal 1.0 9.64406287519563e-18 1.45324098526515e-16
outer loop
vertex 16.0 -80.16562 29.0191514999999
vertex 16.0 -81.09032 14.321388
vertex 16.0 -80.16562 11.9858485000001
endloop
endfacet
facet normal 1.0 9.64406287519563e-18 1.45324098526515e-16
outer loop
vertex 16.0 -80.16562 29.0191514999999
vertex 16.0 -80.16562 11.9858485000001
vertex 16.0 -78.955495 31.220375
endloop
endfacet
facet normal 1.0 9.64406287519563e-18 1.45324098526515e-16
outer loop
vertex 16.0 -78.955495 31.220375
vertex 16.0 -80.16562 11.9858485000001
vertex 16.0 -78.9554950000001 9.784625
endloop
endfacet
facet normal 1.0 9.64406287519563e-18 1.45324098526515e-16
outer loop
vertex 16.0 -78.955495 31.220375
vertex 16.0 -78.9554950000001 9.784625
vertex 16.0 -77.47902 7.75242700000001
endloop
endfacet
facet normal 1.0 9.64406287519563e-18 1.45324098526515e-16
outer loop
vertex 16.0 -78.955495 31.220375
vertex 16.0 -77.47902 7.75242700000001
vertex 16.0 -77.47902 33.252573
endloop
endfacet
facet normal 1.0 9.64406287519563e-18 1.45324098526515e-16
outer loop
vertex 16.0 -77.47902 33.252573
vertex 16.0 -77.47902 7.75242700000001
vertex 16.0 -75.75947 35.083696
endloop
endfacet
facet normal 1.0 9.64406287519563e-18 1.45324098526515e-16
outer loop
vertex 16.0 -75.75947 35.083696
vertex 16.0 -77.47902 7.75242700000001
vertex 16.0 -75.75947 5.92130399999997
endloop
endfacet
facet normal 1.0 9.64406287519563e-18 1.45324098526515e-16
outer loop
vertex 16.0 -75.75947 35.083696
vertex 16.0 -75.75947 5.92130399999997
vertex 16.0 -73.824005 36.684862
endloop
endfacet
facet normal 1.0 9.64406287519563e-18 1.45324098526515e-16
outer loop
vertex 16.0 -73.824005 36.684862
vertex 16.0 -75.75947 5.92130399999997
vertex 16.0 -73.824005 4.32013799999999
endloop
endfacet
facet normal 1.0 9.64406287519563e-18 1.45324098526515e-16
outer loop
vertex 16.0 -73.824005 36.684862
vertex 16.0 -73.824005 4.32013799999999
vertex 16.0 -73.039369583881 20.5025
endloop
endfacet
facet normal 1.0 9.64406287519563e-18 1.45324098526515e-16
outer loop
vertex 16.0 -73.039369583881 20.5025
vertex 16.0 -73.824005 4.32013799999999
vertex 16.0 -71.70311 2.9741745
endloop
endfacet
facet normal 1.0 9.64406287519563e-18 1.45324098526515e-16
outer loop
vertex 16.0 -73.039369583881 20.5025
vertex 16.0 -71.70311 2.9741745
vertex 16.0 -67.553095416119 11.0
endloop
endfacet
facet normal 1.0 9.64406287519563e-18 1.45324098526515e-16
outer loop
vertex 16.0 -67.553095416119 11.0
vertex 16.0 -71.70311 2.9741745
vertex 16.0 -69.430245 1.90464449999998
endloop
endfacet
facet normal 1.0 9.64406287519563e-18 1.45324098526515e-16
outer loop
vertex 16.0 -67.553095416119 11.0
vertex 16.0 -69.430245 1.90464449999998
vertex 16.0 -67.04125 1.12841449999995
endloop
endfacet
facet normal 1.0 9.64406287519563e-18 1.45324098526515e-16
outer loop
vertex 16.0 -67.553095416119 11.0
vertex 16.0 -67.04125 1.12841449999995
vertex 16.0 -56.5805495838811 11.0
endloop
endfacet
facet normal 1.0 9.64406287519563e-18 1.45324098526515e-16
outer loop
vertex 16.0 -56.5805495838811 11.0
vertex 16.0 -67.04125 1.12841449999995
vertex 16.0 -64.5738200000001 0.657724000000024
endloop
endfacet
facet normal 1.0 9.64406287519563e-18 1.45324098526515e-16
outer loop
vertex 16.0 -56.5805495838811 11.0
vertex 16.0 -64.5738200000001 0.657724000000024
vertex 16.0 -62.06684 0.500000000000043
endloop
endfacet
facet normal 1.0 9.64406287519563e-18 1.45324098526515e-16
outer loop
vertex 16.0 -56.5805495838811 11.0
vertex 16.0 -62.06684 0.500000000000043
vertex 16.0 -59.5598600000001 0.657724000000001
endloop
endfacet
facet normal 1.0 9.64406287519563e-18 1.45324098526515e-16
outer loop
vertex 16.0 -56.5805495838811 11.0
vertex 16.0 -59.5598600000001 0.657724000000001
vertex 16.0 -57.0923950000001 1.12841449999999
endloop
endfacet
facet normal 1.0 9.64406287519563e-18 1.45324098526515e-16
outer loop
vertex 16.0 -56.5805495838811 11.0
vertex 16.0 -57.0923950000001 1.12841449999999
vertex 16.0 -54.7034000000001 1.90464449999999
endloop
endfacet
facet normal 1.0 9.64406287519563e-18 1.45324098526515e-16
outer loop
vertex 16.0 -56.5805495838811 11.0
vertex 16.0 -54.7034000000001 1.90464449999999
vertex 16.0 -51.094275416119 20.5025
endloop
endfacet
facet normal 1.0 9.64406287519563e-18 1.45324098526515e-16
outer loop
vertex 16.0 -51.094275416119 20.5025
vertex 16.0 -54.7034000000001 1.90464449999999
vertex 16.0 -52.430535 2.97417450000003
endloop
endfacet
facet normal 1.0 9.64406287519563e-18 1.45324098526515e-16
outer loop
vertex 16.0 -51.094275416119 20.5025
vertex 16.0 -52.430535 2.97417450000003
vertex 16.0 -50.3096400000001 4.32013799999997
endloop
endfacet
facet normal 1.0 9.64406287519563e-18 1.45324098526515e-16
outer loop
vertex 16.0 -73.039369583881 20.5025
vertex 16.0 -71.7031100000001 38.0308255
vertex 16.0 -73.824005 36.684862
endloop
endfacet
facet normal 1.0 9.64406287519563e-18 1.45324098526515e-16
outer loop
vertex 16.0 -71.7031100000001 38.0308255
vertex 16.0 -73.039369583881 20.5025
vertex 16.0 -67.553095416119 30.005
endloop
endfacet
facet normal 1.0 9.64406287519563e-18 1.45324098526515e-16
outer loop
vertex 16.0 -71.7031100000001 38.0308255
vertex 16.0 -67.553095416119 30.005
vertex 16.0 -69.4302450000001 39.1003555
endloop
endfacet
facet normal 1.0 9.64406287519563e-18 1.45324098526515e-16
outer loop
vertex 16.0 -69.4302450000001 39.1003555
vertex 16.0 -67.553095416119 30.005
vertex 16.0 -67.04125 39.8765855
endloop
endfacet
facet normal 1.0 9.64406287519563e-18 1.45324098526515e-16
outer loop
vertex 16.0 -67.04125 39.8765855
vertex 16.0 -67.553095416119 30.005
vertex 16.0 -56.580549583881 30.005
endloop
endfacet
facet normal 1.0 9.64406287519563e-18 1.45324098526515e-16
outer loop
vertex 16.0 -67.04125 39.8765855
vertex 16.0 -56.580549583881 30.005
vertex 16.0 -64.57382 40.347276
endloop
endfacet
facet normal 1.0 9.64406287519563e-18 1.45324098526515e-16
outer loop
vertex 16.0 -64.57382 40.347276
vertex 16.0 -56.580549583881 30.005
vertex 16.0 -62.06684 40.505
endloop
endfacet
facet normal 1.0 9.64406287519563e-18 1.45324098526515e-16
outer loop
vertex 16.0 -62.06684 40.505
vertex 16.0 -56.580549583881 30.005
vertex 16.0 -59.55986 40.347276
endloop
endfacet
facet normal 1.0 9.64406287519563e-18 1.45324098526515e-16
outer loop
vertex 16.0 -59.55986 40.347276
vertex 16.0 -56.580549583881 30.005
vertex 16.0 -57.092395 39.8765855
endloop
endfacet
facet normal 1.0 9.64406287519563e-18 1.45324098526515e-16
outer loop
vertex 16.0 -57.092395 39.8765855
vertex 16.0 -56.580549583881 30.005
vertex 16.0 -54.7034 39.1003555
endloop
endfacet
facet normal 1.0 9.64406287519563e-18 1.45324098526515e-16
outer loop
vertex 16.0 -54.7034 39.1003555
vertex 16.0 -56.580549583881 30.005
vertex 16.0 -51.094275416119 20.5025
endloop
endfacet
facet normal 1.0 9.64406287519563e-18 1.45324098526515e-16
outer loop
vertex 16.0 -54.7034 39.1003555
vertex 16.0 -51.094275416119 20.5025
vertex 16.0 -52.430535 38.0308255
endloop
endfacet
facet normal 1.0 9.64406287519563e-18 1.45324098526515e-16
outer loop
vertex 16.0 -52.430535 38.0308255
vertex 16.0 -51.094275416119 20.5025
vertex 16.0 -50.30964 36.684862
endloop
endfacet
facet normal 1.0 9.64406287519563e-18 1.45324098526515e-16
outer loop
vertex 16.0 -50.30964 36.684862
vertex 16.0 -51.094275416119 20.5025
vertex 16.0 -50.3096400000001 4.32013799999997
endloop
endfacet
facet normal 1.0 9.64406287519563e-18 1.45324098526515e-16
outer loop
vertex 16.0 -50.30964 36.684862
vertex 16.0 -50.3096400000001 4.32013799999997
vertex 16.0 -48.374175 5.92130399999998
endloop
endfacet
facet normal 1.0 9.64406287519563e-18 1.45324098526515e-16
outer loop
vertex 16.0 -50.30964 36.684862
vertex 16.0 -48.374175 5.92130399999998
vertex 16.0 -48.374175 35.083696
endloop
endfacet
facet normal 1.0 9.64406287519563e-18 1.45324098526515e-16
outer loop
vertex 16.0 -48.374175 35.083696
vertex 16.0 -48.374175 5.92130399999998
vertex 16.0 -46.654625 33.252573
endloop
endfacet
facet normal 1.0 9.64406287519563e-18 1.45324098526515e-16
outer loop
vertex 16.0 -46.654625 33.252573
vertex 16.0 -48.374175 5.92130399999998
vertex 16.0 -46.654625 7.75242700000001
endloop
endfacet
facet normal 1.0 9.64406287519563e-18 1.45324098526515e-16
outer loop
vertex 16.0 -46.654625 33.252573
vertex 16.0 -46.654625 7.75242700000001
vertex 16.0 -45.17815 9.78462499999999
endloop
endfacet
facet normal 1.0 9.64406287519563e-18 1.45324098526515e-16
outer loop
vertex 16.0 -46.654625 33.252573
vertex 16.0 -45.17815 9.78462499999999
vertex 16.0 -45.17815 31.220375
endloop
endfacet
facet normal 1.0 9.64406287519563e-18 1.45324098526515e-16
outer loop
vertex 16.0 -45.17815 31.220375
vertex 16.0 -45.17815 9.78462499999999
vertex 16.0 -44.51 11.0
endloop
endfacet
facet normal 1.0 9.64406287519563e-18 1.45324098526515e-16
outer loop
vertex 16.0 -45.17815 31.220375
vertex 16.0 -44.51 11.0
vertex 16.0 -44.51 30.005
endloop
endfacet
facet normal 1.0 9.64406287519563e-18 1.45324098526515e-16
outer loop
vertex 16.0 -44.51 30.005
vertex 16.0 -44.51 11.0
vertex 16.0 52.8863200000001 30.005
endloop
endfacet
facet normal 1.0 9.64406287519563e-18 1.45324098526515e-16
outer loop
vertex 16.0 52.8863200000001 30.005
vertex 16.0 -44.51 11.0
vertex 16.0 52.8863200000001 11.0
endloop
endfacet
facet normal 1.0 9.64406287519563e-18 1.45324098526515e-16
outer loop
vertex 16.0 52.8863200000001 30.005
vertex 16.0 52.8863200000001 11.0
vertex 16.0 53.5545050000001 9.78462499999999
endloop
endfacet
facet normal 1.0 9.64406287519563e-18 1.45324098526515e-16
outer loop
vertex 16.0 52.8863200000001 30.005
vertex 16.0 53.5545050000001 9.78462499999999
vertex 16.0 53.5545050000001 31.220375
endloop
endfacet
facet normal 1.0 9.64406287519563e-18 1.45324098526515e-16
outer loop
vertex 16.0 53.5545050000001 31.220375
vertex 16.0 53.5545050000001 9.78462499999999
vertex 16.0 55.0309800000001 7.752427
endloop
endfacet
facet normal 1.0 9.64406287519563e-18 1.45324098526515e-16
outer loop
vertex 16.0 53.5545050000001 31.220375
vertex 16.0 55.0309800000001 7.752427
vertex 16.0 55.0309800000001 33.252573
endloop
endfacet
facet normal 1.0 9.64406287519563e-18 1.45324098526515e-16
outer loop
vertex 16.0 55.0309800000001 33.252573
vertex 16.0 55.0309800000001 7.752427
vertex 16.0 56.7504950000001 5.92130399999995
endloop
endfacet
facet normal 1.0 9.64406287519563e-18 1.45324098526515e-16
outer loop
vertex 16.0 55.0309800000001 33.252573
vertex 16.0 56.7504950000001 5.92130399999995
vertex 16.0 56.7504950000001 35.083696
endloop
endfacet
facet normal 1.0 9.64406287519563e-18 1.45324098526515e-16
outer loop
vertex 16.0 56.7504950000001 35.083696
vertex 16.0 56.7504950000001 5.92130399999995
vertex 16.0 58.6859950000001 4.32013799999998
endloop
endfacet
facet normal 1.0 9.64406287519563e-18 1.45324098526515e-16
outer loop
vertex 16.0 56.7504950000001 35.083696
vertex 16.0 58.6859950000001 4.32013799999998
vertex 16.0 58.6859950000001 36.684862
endloop
endfacet
facet normal 1.0 9.64406287519563e-18 1.45324098526515e-16
outer loop
vertex 16.0 58.6859950000001 36.684862
vertex 16.0 58.6859950000001 4.32013799999998
vertex 16.0 60.8068900000001 2.9741745
endloop
endfacet
facet normal 1.0 9.64406287519563e-18 1.45324098526515e-16
outer loop
vertex 16.0 58.6859950000001 36.684862
vertex 16.0 60.8068900000001 2.9741745
vertex 16.0 59.9431600000001 19.684032
endloop
endfacet
facet normal 1.0 9.64406287519563e-18 1.45324098526515e-16
outer loop
vertex 16.0 59.9431600000001 19.684032
vertex 16.0 60.8068900000001 2.9741745
vertex 16.0 64.9569046595838 11.0
endloop
endfacet
facet normal 1.0 9.64406287519563e-18 1.45324098526515e-16
outer loop
vertex 16.0 64.9569046595838 11.0
vertex 16.0 60.8068900000001 2.9741745
vertex 16.0 63.0797550000001 1.90464449999999
endloop
endfacet
facet normal 1.0 9.64406287519563e-18 1.45324098526515e-16
outer loop
vertex 16.0 64.9569046595838 11.0
vertex 16.0 63.0797550000001 1.90464449999999
vertex 16.0 65.4687500000001 1.12841449999999
endloop
endfacet
facet normal 1.0 9.64406287519563e-18 1.45324098526515e-16
outer loop
vertex 16.0 64.9569046595838 11.0
vertex 16.0 65.4687500000001 1.12841449999999
vertex 16.0 88.0 11.0
endloop
endfacet
facet normal 1.0 9.64406287519563e-18 1.45324098526515e-16
outer loop
vertex 16.0 88.0 11.0
vertex 16.0 65.4687500000001 1.12841449999999
vertex 16.0 67.9362150000001 0.657724000000003
endloop
endfacet
facet normal 1.0 9.64406287519563e-18 1.45324098526515e-16
outer loop
vertex 16.0 88.0 11.0
vertex 16.0 67.9362150000001 0.657724000000003
vertex 16.0 70.4431600000001 0.499999999999998
endloop
endfacet
facet normal 1.0 9.64406287519563e-18 1.45324098526515e-16
outer loop
vertex 16.0 88.0 11.0
vertex 16.0 70.4431600000001 0.499999999999998
vertex 16.0 72.9501400000001 0.657724000000004
endloop
endfacet
facet normal 1.0 9.64406287519563e-18 1.45324098526515e-16
outer loop
vertex 16.0 88.0 11.0
vertex 16.0 72.9501400000001 0.657724000000004
vertex 16.0 75.4175700000001 1.12841449999998
endloop
endfacet
facet normal 1.0 9.64406287519563e-18 1.45324098526515e-16
outer loop
vertex 16.0 88.0 11.0
vertex 16.0 75.4175700000001 1.12841449999998
vertex 16.0 77.8066000000001 1.9046445
endloop
endfacet
facet normal 1.0 9.64406287519563e-18 1.45324098526515e-16
outer loop
vertex 16.0 88.0 11.0
vertex 16.0 77.8066000000001 1.9046445
vertex 16.0 80.0794300000001 2.97417449999999
endloop
endfacet
facet normal 1.0 9.64406287519563e-18 1.45324098526515e-16
outer loop
vertex 16.0 88.0 11.0
vertex 16.0 80.0794300000001 2.97417449999999
vertex 16.0 82.2003600000001 4.32013799999998
endloop
endfacet
facet normal 1.0 9.64406287519563e-18 1.45324098526515e-16
outer loop
vertex 16.0 88.0 11.0
vertex 16.0 82.2003600000001 4.32013799999998
vertex 16.0 84.1358250000001 5.92130399999995
endloop
endfacet
facet normal 1.0 9.64406287519563e-18 1.45324098526515e-16
outer loop
vertex 16.0 88.0 11.0
vertex 16.0 84.1358250000001 5.92130399999995
vertex 16.0 85.8553400000001 7.75242699999999
endloop
endfacet
facet normal 1.0 9.64406287519563e-18 1.45324098526515e-16
outer loop
vertex 16.0 88.0 11.0
vertex 16.0 85.8553400000001 7.75242699999999
vertex 16.0 87.3318500000001 9.78462499999999
endloop
endfacet
facet normal 1.0 9.64406287519563e-18 1.45324098526515e-16
outer loop
vertex 16.0 58.6859950000001 36.684862
vertex 16.0 59.9431600000001 21.320968
vertex 16.0 60.8068900000001 38.0308255
endloop
endfacet
facet normal 1.0 9.64406287519563e-18 1.45324098526515e-16
outer loop
vertex 16.0 59.9431600000001 21.320968
vertex 16.0 58.6859950000001 36.684862
vertex 16.0 59.9431600000001 19.684032
endloop
endfacet
facet normal 1.0 9.64406287519563e-18 1.45324098526515e-16
outer loop
vertex 16.0 60.8068900000001 38.0308255
vertex 16.0 59.9431600000001 21.320968
vertex 16.0 64.9569046595838 30.005
endloop
endfacet
facet normal 1.0 9.64406287519563e-18 1.45324098526515e-16
outer loop
vertex 16.0 60.8068900000001 38.0308255
vertex 16.0 64.9569046595838 30.005
vertex 16.0 63.0797550000001 39.1003555
endloop
endfacet
facet normal 1.0 9.64406287519563e-18 1.45324098526515e-16
outer loop
vertex 16.0 63.0797550000001 39.1003555
vertex 16.0 64.9569046595838 30.005
vertex 16.0 65.4687500000001 39.8765855
endloop
endfacet
facet normal 1.0 9.64406287519563e-18 1.45324098526515e-16
outer loop
vertex 16.0 65.4687500000001 39.8765855
vertex 16.0 64.9569046595838 30.005
vertex 16.0 88.0000000000001 30.005
endloop
endfacet
facet normal 1.0 9.64406287519563e-18 1.45324098526515e-16
outer loop
vertex 16.0 65.4687500000001 39.8765855
vertex 16.0 88.0000000000001 30.005
vertex 16.0 67.9362150000001 40.347276
endloop
endfacet
facet normal 1.0 9.64406287519563e-18 1.45324098526515e-16
outer loop
vertex 16.0 67.9362150000001 40.347276
vertex 16.0 88.0000000000001 30.005
vertex 16.0 70.4431600000001 40.505
endloop
endfacet
facet normal 1.0 9.64406287519563e-18 1.45324098526515e-16
outer loop
vertex 16.0 70.4431600000001 40.505
vertex 16.0 88.0000000000001 30.005
vertex 16.0 72.9501400000001 40.347276
endloop
endfacet
facet normal 1.0 9.64406287519563e-18 1.45324098526515e-16
outer loop
vertex 16.0 72.9501400000001 40.347276
vertex 16.0 88.0000000000001 30.005
vertex 16.0 75.4175700000001 39.8765855
endloop
endfacet
facet normal 1.0 9.64406287519563e-18 1.45324098526515e-16
outer loop
vertex 16.0 75.4175700000001 39.8765855
vertex 16.0 88.0000000000001 30.005
vertex 16.0 77.8066000000001 39.1003555
endloop
endfacet
facet normal 1.0 9.64406287519563e-18 1.45324098526515e-16
outer loop
vertex 16.0 77.8066000000001 39.1003555
vertex 16.0 88.0000000000001 30.005
vertex 16.0 80.0794300000001 38.0308255
endloop
endfacet
facet normal 1.0 9.64406287519563e-18 1.45324098526515e-16
outer loop
vertex 16.0 80.0794300000001 38.0308255
vertex 16.0 88.0000000000001 30.005
vertex 16.0 82.2003600000001 36.684862
endloop
endfacet
facet normal 1.0 9.64406287519563e-18 1.45324098526515e-16
outer loop
vertex 16.0 82.2003600000001 36.684862
vertex 16.0 88.0000000000001 30.005
vertex 16.0 84.1358250000001 35.083696
endloop
endfacet
facet normal 1.0 9.64406287519563e-18 1.45324098526515e-16
outer loop
vertex 16.0 84.1358250000001 35.083696
vertex 16.0 88.0000000000001 30.005
vertex 16.0 85.8553400000001 33.252573
endloop
endfacet
facet normal 1.0 9.64406287519563e-18 1.45324098526515e-16
outer loop
vertex 16.0 85.8553400000001 33.252573
vertex 16.0 88.0000000000001 30.005
vertex 16.0 87.3318500000001 31.220375
endloop
endfacet
facet normal 1.28244189246934e-18 0.18737992316914 0.982287516154576
outer loop
vertex 16.0 -59.55986 40.347276
vertex 4.33146851719357e-15 -57.092395 39.8765855
vertex 4.33146851719357e-15 -59.55986 40.347276
endloop
endfacet
facet normal 1.28244189246934e-18 0.18737992316914 0.982287516154576
outer loop
vertex 4.33146851719357e-15 -57.092395 39.8765855
vertex 16.0 -59.55986 40.347276
vertex 16.0 -57.092395 39.8765855
endloop
endfacet
facet normal 3.17457077509663e-32 -7.34267625305141e-16 -1.0
outer loop
vertex 16.0 88.0000000000001 30.005
vertex -5.77529135625809e-15 64.9569046595838 30.005
vertex -2.59888111031614e-14 88.0000000000001 30.005
endloop
endfacet
facet normal 3.17457077509663e-32 -7.34267625305141e-16 -1.0
outer loop
vertex -5.77529135625809e-15 64.9569046595838 30.005
vertex 16.0 88.0000000000001 30.005
vertex 16.0 64.9569046595838 30.005
endloop
endfacet
facet normal -9.18827870729046e-19 -0.425779589784396 0.904826912134598
outer loop
vertex -5.77529135625809e-15 60.8068900000001 38.0308255
vertex 16.0 63.0797550000001 39.1003555
vertex -4.62023308500648e-14 63.0797550000001 39.1003555
endloop
endfacet
facet normal -9.18827870729046e-19 -0.425779589784396 0.904826912134598
outer loop
vertex 16.0 63.0797550000001 39.1003555
vertex -5.77529135625809e-15 60.8068900000001 38.0308255
vertex 16.0 60.8068900000001 38.0308255
endloop
endfacet
facet normal -3.25097996993742e-19 -0.062789800814738 0.9980267736457
outer loop
vertex 4.33146851719357e-15 -64.57382 40.347276
vertex 16.0 -62.06684 40.505
vertex -1.58820512297098e-14 -62.06684 40.505
endloop
endfacet
facet normal -3.25097996993742e-19 -0.062789800814738 0.9980267736457
outer loop
vertex 16.0 -62.06684 40.505
vertex 4.33146851719357e-15 -64.57382 40.347276
vertex 16.0 -64.57382 40.347276
endloop
endfacet
facet normal -8.74801108110719e-19 -0.0627906739804745 0.998026718711016
outer loop
vertex 4.33146851719357e-15 67.9362150000001 40.347276
vertex 16.0 70.4431600000001 40.505
vertex -1.58820512297098e-14 70.4431600000001 40.505
endloop
endfacet
facet normal -8.74801108110719e-19 -0.0627906739804745 0.998026718711016
outer loop
vertex 16.0 70.4431600000001 40.505
vertex 4.33146851719357e-15 67.9362150000001 40.347276
vertex 16.0 67.9362150000001 40.347276
endloop
endfacet
facet normal 7.54033982012323e-16 0.309012348668274 -0.95105802576421
outer loop
vertex 16.0 77.8066000000001 1.9046445
vertex 8.66293703438714e-15 75.4175700000001 1.12841449999998
vertex 8.66293703438714e-15 77.8066000000001 1.90464449999999
endloop
endfacet
facet normal 7.54033982012323e-16 0.309012348668274 -0.95105802576421
outer loop
vertex 8.66293703438714e-15 75.4175700000001 1.12841449999998
vertex 16.0 77.8066000000001 1.9046445
vertex 16.0 75.4175700000001 1.12841449999998
endloop
endfacet
facet normal 7.66792448794157e-16 -0.535827534262193 -0.844327456338178
outer loop
vertex 16.0 -71.70311 2.9741745
vertex 8.66293703438714e-15 -73.8240050000001 4.320138
vertex 4.33146851719357e-15 -71.70311 2.9741745
endloop
endfacet
facet normal 7.66792448794157e-16 -0.535827534262193 -0.844327456338178
outer loop
vertex 8.66293703438714e-15 -73.8240050000001 4.320138
vertex 16.0 -71.70311 2.9741745
vertex 16.0 -73.824005 4.32013799999999
endloop
endfacet
facet normal 2.42377094774241e-19 -0.425779589784406 -0.904826912134593
outer loop
vertex 8.66293703438714e-15 -69.430245 1.90464449999998
vertex 16.0 -71.70311 2.9741745
vertex 4.33146851719357e-15 -71.70311 2.9741745
endloop
endfacet
facet normal 2.42377094774241e-19 -0.425779589784406 -0.904826912134593
outer loop
vertex 16.0 -71.70311 2.9741745
vertex 8.66293703438714e-15 -69.430245 1.90464449999998
vertex 16.0 -69.430245 1.90464449999998
endloop
endfacet
facet normal 3.95611416873077e-19 -0.968581036723076 -0.248698161031504
outer loop
vertex 16.0 -81.715035 16.754406
vertex -1.58820512297098e-14 -81.09032 14.321388
vertex 16.0 -81.09032 14.321388
endloop
endfacet
facet normal 3.95611416873077e-19 -0.968581036723076 -0.248698161031504
outer loop
vertex -1.58820512297098e-14 -81.09032 14.321388
vertex 16.0 -81.715035 16.754406
vertex -2.59888111031614e-14 -81.715035 16.754406
endloop
endfacet
facet normal -2.12581460077125e-18 0.535821230618661 0.844331456726743
outer loop
vertex -5.77529135625809e-15 80.0794300000001 38.0308255
vertex 16.0 82.2003600000001 36.684862
vertex -2.59888111031614e-14 82.2003600000001 36.684862
endloop
endfacet
facet normal -2.12581460077125e-18 0.535821230618661 0.844331456726743
outer loop
vertex 16.0 82.2003600000001 36.684862
vertex -5.77529135625809e-15 80.0794300000001 38.0308255
vertex 16.0 80.0794300000001 38.0308255
endloop
endfacet
facet normal -1.66461218323448e-15 0.728973385830096 -0.684542038702815
outer loop
vertex 4.33146851719357e-15 84.1358250000001 5.92130399999999
vertex 16.0 85.8553400000001 7.75242699999999
vertex 16.0 84.1358250000001 5.92130399999995
endloop
endfacet
facet normal -1.66461218323448e-15 0.728973385830096 -0.684542038702815
outer loop
vertex 16.0 85.8553400000001 7.75242699999999
vertex 4.33146851719357e-15 84.1358250000001 5.92130399999999
vertex -5.77529135625809e-15 85.8553400000001 7.75242699999999
endloop
endfacet
facet normal -1.17730407752528e-18 -0.929777235815172 0.368122658579852
outer loop
vertex 16.0 -80.16562 29.0191514999999
vertex -2.02135197469033e-14 -81.09032 26.683612
vertex 16.0 -81.09032 26.683612
endloop
endfacet
facet normal -1.17730407752528e-18 -0.929777235815172 0.368122658579852
outer loop
vertex -2.02135197469033e-14 -81.09032 26.683612
vertex 16.0 -80.16562 29.0191514999999
vertex -2.59888111031614e-14 -80.16562 29.0191514999999
endloop
endfacet
facet normal -2.44865701207692e-18 0.876309133528006 0.481749211203709
outer loop
vertex -1.58820512297098e-14 -45.17815 31.220375
vertex 16.0 -44.51 30.005
vertex -2.59888111031614e-14 -44.51 30.005
endloop
endfacet
facet normal -2.44865701207692e-18 0.876309133528006 0.481749211203709
outer loop
vertex 16.0 -44.51 30.005
vertex -1.58820512297098e-14 -45.17815 31.220375
vertex 16.0 -45.17815 31.220375
endloop
endfacet
facet normal 1.46936688411611e-18 -0.309016443553716 -0.951056695267644
outer loop
vertex 16.0 65.4687500000001 1.12841449999999
vertex 8.66293703438714e-15 63.0797550000001 1.90464449999999
vertex 8.66293703438714e-15 65.4687500000001 1.12841449999999
endloop
endfacet
facet normal 1.46936688411611e-18 -0.309016443553716 -0.951056695267644
outer loop
vertex 8.66293703438714e-15 63.0797550000001 1.90464449999999
vertex 16.0 65.4687500000001 1.12841449999999
vertex 16.0 63.0797550000001 1.90464449999999
endloop
endfacet
facet normal -2.25094607909145e-17 -0.866025276129037 0.500000221105577
outer loop
vertex 16.0 -56.5805495838811 11.0
vertex -1.58820512297098e-14 -51.094275416119 20.5025
vertex 0.0 -56.5805495838811 11.0
endloop
endfacet
facet normal -2.25094607909145e-17 -0.866025276129037 0.500000221105577
outer loop
vertex -1.58820512297098e-14 -51.094275416119 20.5025
vertex 16.0 -56.5805495838811 11.0
vertex 16.0 -51.094275416119 20.5025
endloop
endfacet
facet normal -5.9776298528447e-33 1.54201214139165e-15 -1.0
outer loop
vertex 16.0 -56.580549583881 30.005
vertex -5.77529135625809e-15 -67.553095416119 30.005
vertex -2.59888111031614e-14 -56.580549583881 30.005
endloop
endfacet
facet normal -5.9776298528447e-33 1.54201214139165e-15 -1.0
outer loop
vertex -5.77529135625809e-15 -67.553095416119 30.005
vertex 16.0 -56.580549583881 30.005
vertex 16.0 -67.553095416119 30.005
endloop
endfacet
facet normal 8.36129838066082e-18 0.866025276129041 -0.50000022110557
outer loop
vertex -5.77529135625809e-15 -67.553095416119 30.005
vertex 16.0 -73.039369583881 20.5025
vertex -2.02135197469033e-14 -73.039369583881 20.5025
endloop
endfacet
facet normal 8.36129838066082e-18 0.866025276129041 -0.50000022110557
outer loop
vertex 16.0 -73.039369583881 20.5025
vertex -5.77529135625809e-15 -67.553095416119 30.005
vertex 16.0 -67.553095416119 30.005
endloop
endfacet
facet normal -1.0 -5.16652292839202e-18 -4.18846002636585e-16
outer loop
vertex 2.88764567812905e-14 -81.715035 24.2505940000001
vertex 0.0 -82.0298600000001 19.246532
vertex 8.66293703438714e-15 -82.0298600000001 21.758468
endloop
endfacet
facet normal -1.0 -5.16652292839202e-18 -4.18846002636585e-16
outer loop
vertex 0.0 -82.0298600000001 19.246532
vertex 2.88764567812905e-14 -81.715035 24.2505940000001
vertex -2.59888111031614e-14 -81.715035 16.754406
endloop
endfacet
facet normal -1.0 -5.16652292839202e-18 -4.18846002636585e-16
outer loop
vertex -2.59888111031614e-14 -81.715035 16.754406
vertex 2.88764567812905e-14 -81.715035 24.2505940000001
vertex -2.02135197469033e-14 -81.09032 26.683612
endloop
endfacet
facet normal -1.0 -5.16652292839202e-18 -4.18846002636585e-16
outer loop
vertex -2.59888111031614e-14 -81.715035 16.754406
vertex -2.02135197469033e-14 -81.09032 26.683612
vertex -1.58820512297098e-14 -81.09032 14.321388
endloop
endfacet
facet normal -1.0 -5.16652292839202e-18 -4.18846002636585e-16
outer loop
vertex -1.58820512297098e-14 -81.09032 14.321388
vertex -2.02135197469033e-14 -81.09032 26.683612
vertex -2.59888111031614e-14 -80.16562 29.0191514999999
endloop
endfacet
facet normal -1.0 -5.16652292839202e-18 -4.18846002636585e-16
outer loop
vertex -1.58820512297098e-14 -81.09032 14.321388
vertex -2.59888111031614e-14 -80.16562 29.0191514999999
vertex -5.77529135625809e-15 -80.16562 11.9858485
endloop
endfacet
facet normal -1.0 -5.16652292839202e-18 -4.18846002636585e-16
outer loop
vertex -5.77529135625809e-15 -80.16562 11.9858485
vertex -2.59888111031614e-14 -80.16562 29.0191514999999
vertex -1.58820512297098e-14 -78.955495 31.220375
endloop
endfacet
facet normal -1.0 -5.16652292839202e-18 -4.18846002636585e-16
outer loop
vertex -5.77529135625809e-15 -80.16562 11.9858485
vertex -1.58820512297098e-14 -78.955495 31.220375
vertex 8.66293703438714e-15 -78.9554950000001 9.784625
endloop
endfacet
facet normal -1.0 -5.16652292839202e-18 -4.18846002636585e-16
outer loop
vertex 8.66293703438714e-15 -78.9554950000001 9.784625
vertex -1.58820512297098e-14 -78.955495 31.220375
vertex -5.77529135625809e-15 -77.47902 7.75242700000001
endloop
endfacet
facet normal -1.0 -5.16652292839202e-18 -4.18846002636585e-16
outer loop
vertex -5.77529135625809e-15 -77.47902 7.75242700000001
vertex -1.58820512297098e-14 -78.955495 31.220375
vertex 1.44382283906452e-14 -77.47902 33.252573
endloop
endfacet
facet normal -1.0 -5.16652292839202e-18 -4.18846002636585e-16
outer loop
vertex -5.77529135625809e-15 -77.47902 7.75242700000001
vertex 1.44382283906452e-14 -77.47902 33.252573
vertex 1.44382283906452e-14 -75.75947 35.083696
endloop
endfacet
facet normal -1.0 -5.16652292839202e-18 -4.18846002636585e-16
outer loop
vertex -5.77529135625809e-15 -77.47902 7.75242700000001
vertex 1.44382283906452e-14 -75.75947 35.083696
vertex 4.33146851719357e-15 -75.75947 5.92130400000002
endloop
endfacet
facet normal -1.0 -5.16652292839202e-18 -4.18846002636585e-16
outer loop
vertex 4.33146851719357e-15 -75.75947 5.92130400000002
vertex 1.44382283906452e-14 -75.75947 35.083696
vertex 8.66293703438714e-15 -73.8240050000001 4.320138
endloop
endfacet
facet normal -1.0 -5.16652292839202e-18 -4.18846002636585e-16
outer loop
vertex 8.66293703438714e-15 -73.8240050000001 4.320138
vertex 1.44382283906452e-14 -75.75947 35.083696
vertex -2.59888111031614e-14 -73.824005 36.684862
endloop
endfacet
facet normal -1.0 -5.16652292839202e-18 -4.18846002636585e-16
outer loop
vertex 8.66293703438714e-15 -73.8240050000001 4.320138
vertex -2.59888111031614e-14 -73.824005 36.684862
vertex -2.02135197469033e-14 -73.039369583881 20.5025
endloop
endfacet
facet normal -1.0 -5.16652292839202e-18 -4.18846002636585e-16
outer loop
vertex 8.66293703438714e-15 -73.8240050000001 4.320138
vertex -2.02135197469033e-14 -73.039369583881 20.5025
vertex 4.33146851719357e-15 -71.70311 2.9741745
endloop
endfacet
facet normal -1.0 -5.16652292839202e-18 -4.18846002636585e-16
outer loop
vertex 4.33146851719357e-15 -71.70311 2.9741745
vertex -2.02135197469033e-14 -73.039369583881 20.5025
vertex 8.66293703438714e-15 -67.553095416119 11.0
endloop
endfacet
facet normal -1.0 -5.16652292839202e-18 -4.18846002636585e-16
outer loop
vertex 4.33146851719357e-15 -71.70311 2.9741745
vertex 8.66293703438714e-15 -67.553095416119 11.0
vertex 8.66293703438714e-15 -69.430245 1.90464449999998
endloop
endfacet
facet normal -1.0 -5.16652292839202e-18 -4.18846002636585e-16
outer loop
vertex 8.66293703438714e-15 -69.430245 1.90464449999998
vertex 8.66293703438714e-15 -67.553095416119 11.0
vertex 8.66293703438714e-15 -67.04125 1.12841449999995
endloop
endfacet
facet normal -1.0 -5.16652292839202e-18 -4.18846002636585e-16
outer loop
vertex 8.66293703438714e-15 -67.04125 1.12841449999995
vertex 8.66293703438714e-15 -67.553095416119 11.0
vertex 0.0 -56.5805495838811 11.0
endloop
endfacet
facet normal -1.0 -5.16652292839202e-18 -4.18846002636585e-16
outer loop
vertex 8.66293703438714e-15 -67.04125 1.12841449999995
vertex 0.0 -56.5805495838811 11.0
vertex 1.44382283906452e-14 -64.5738200000001 0.657724000000023
endloop
endfacet
facet normal -1.0 -5.16652292839202e-18 -4.18846002636585e-16
outer loop
vertex 1.44382283906452e-14 -64.5738200000001 0.657724000000023
vertex 0.0 -56.5805495838811 11.0
vertex -1.58820512297098e-14 -62.0668400000001 0.50000000000001
endloop
endfacet
facet normal -1.0 -5.16652292839202e-18 -4.18846002636585e-16
outer loop
vertex -1.58820512297098e-14 -62.0668400000001 0.50000000000001
vertex 0.0 -56.5805495838811 11.0
vertex 1.44382283906452e-14 -59.5598600000001 0.657724
endloop
endfacet
facet normal -1.0 -5.16652292839202e-18 -4.18846002636585e-16
outer loop
vertex 1.44382283906452e-14 -59.5598600000001 0.657724
vertex 0.0 -56.5805495838811 11.0
vertex 8.66293703438714e-15 -57.0923950000001 1.12841449999999
endloop
endfacet
facet normal -1.0 -5.16652292839202e-18 -4.18846002636585e-16
outer loop
vertex 8.66293703438714e-15 -57.0923950000001 1.12841449999999
vertex 0.0 -56.5805495838811 11.0
vertex 8.66293703438714e-15 -54.7034000000001 1.90464449999999
endloop
endfacet
facet normal -1.0 -5.16652292839202e-18 -4.18846002636585e-16
outer loop
vertex 8.66293703438714e-15 -54.7034000000001 1.90464449999999
vertex 0.0 -56.5805495838811 11.0
vertex -1.58820512297098e-14 -51.094275416119 20.5025
endloop
endfacet
facet normal -1.0 -5.16652292839202e-18 -4.18846002636585e-16
outer loop
vertex 8.66293703438714e-15 -54.7034000000001 1.90464449999999
vertex -1.58820512297098e-14 -51.094275416119 20.5025
vertex 4.33146851719357e-15 -52.430535 2.97417449999999
endloop
endfacet
facet normal -1.0 -5.16652292839202e-18 -4.18846002636585e-16
outer loop
vertex 4.33146851719357e-15 -52.430535 2.97417449999999
vertex -1.58820512297098e-14 -51.094275416119 20.5025
vertex 8.66293703438714e-15 -50.3096400000001 4.32013800000001
endloop
endfacet
facet normal -1.0 -5.16652292839202e-18 -4.18846002636585e-16
outer loop
vertex -5.77529135625809e-15 -71.7031100000001 38.0308255
vertex -2.02135197469033e-14 -73.039369583881 20.5025
vertex -2.59888111031614e-14 -73.824005 36.684862
endloop
endfacet
facet normal -1.0 -5.16652292839202e-18 -4.18846002636585e-16
outer loop
vertex -2.02135197469033e-14 -73.039369583881 20.5025
vertex -5.77529135625809e-15 -71.7031100000001 38.0308255
vertex -5.77529135625809e-15 -67.553095416119 30.005
endloop
endfacet
facet normal -1.0 -5.16652292839202e-18 -4.18846002636585e-16
outer loop
vertex -5.77529135625809e-15 -67.553095416119 30.005
vertex -5.77529135625809e-15 -71.7031100000001 38.0308255
vertex -4.62023308500648e-14 -69.4302450000001 39.1003555
endloop
endfacet
facet normal -1.0 -5.16652292839202e-18 -4.18846002636585e-16
outer loop
vertex -5.77529135625809e-15 -67.553095416119 30.005
vertex -4.62023308500648e-14 -69.4302450000001 39.1003555
vertex 4.33146851719357e-15 -67.04125 39.8765855
endloop
endfacet
facet normal -1.0 -5.16652292839202e-18 -4.18846002636585e-16
outer loop
vertex -5.77529135625809e-15 -67.553095416119 30.005
vertex 4.33146851719357e-15 -67.04125 39.8765855
vertex -2.59888111031614e-14 -56.580549583881 30.005
endloop
endfacet
facet normal -1.0 -5.16652292839202e-18 -4.18846002636585e-16
outer loop
vertex -2.59888111031614e-14 -56.580549583881 30.005
vertex 4.33146851719357e-15 -67.04125 39.8765855
vertex 4.33146851719357e-15 -64.57382 40.347276
endloop
endfacet
facet normal -1.0 -5.16652292839202e-18 -4.18846002636585e-16
outer loop
vertex -2.59888111031614e-14 -56.580549583881 30.005
vertex 4.33146851719357e-15 -64.57382 40.347276
vertex -1.58820512297098e-14 -62.06684 40.505
endloop
endfacet
facet normal -1.0 -5.16652292839202e-18 -4.18846002636585e-16
outer loop
vertex -2.59888111031614e-14 -56.580549583881 30.005
vertex -1.58820512297098e-14 -62.06684 40.505
vertex 4.33146851719357e-15 -59.55986 40.347276
endloop
endfacet
facet normal -1.0 -5.16652292839202e-18 -4.18846002636585e-16
outer loop
vertex -2.59888111031614e-14 -56.580549583881 30.005
vertex 4.33146851719357e-15 -59.55986 40.347276
vertex 4.33146851719357e-15 -57.092395 39.8765855
endloop
endfacet
facet normal -1.0 -5.16652292839202e-18 -4.18846002636585e-16
outer loop
vertex -2.59888111031614e-14 -56.580549583881 30.005
vertex 4.33146851719357e-15 -57.092395 39.8765855
vertex -4.62023308500648e-14 -54.7034 39.1003555
endloop
endfacet
facet normal -1.0 -5.16652292839202e-18 -4.18846002636585e-16
outer loop
vertex -2.59888111031614e-14 -56.580549583881 30.005
vertex -4.62023308500648e-14 -54.7034 39.1003555
vertex -1.58820512297098e-14 -51.094275416119 20.5025
endloop
endfacet
facet normal -1.0 -5.16652292839202e-18 -4.18846002636585e-16
outer loop
vertex -1.58820512297098e-14 -51.094275416119 20.5025
vertex -4.62023308500648e-14 -54.7034 39.1003555
vertex -5.77529135625809e-15 -52.430535 38.0308255
endloop
endfacet
facet normal -1.0 -5.16652292839202e-18 -4.18846002636585e-16
outer loop
vertex -1.58820512297098e-14 -51.094275416119 20.5025
vertex -5.77529135625809e-15 -52.430535 38.0308255
vertex -2.59888111031614e-14 -50.30964 36.684862
endloop
endfacet
facet normal -1.0 -5.16652292839202e-18 -4.18846002636585e-16
outer loop
vertex -1.58820512297098e-14 -51.094275416119 20.5025
vertex -2.59888111031614e-14 -50.30964 36.684862
vertex 8.66293703438714e-15 -50.3096400000001 4.32013800000001
endloop
endfacet
facet normal -1.0 -5.16652292839202e-18 -4.18846002636585e-16
outer loop
vertex 8.66293703438714e-15 -50.3096400000001 4.32013800000001
vertex -2.59888111031614e-14 -50.30964 36.684862
vertex 4.33146851719357e-15 -48.374175 5.92130400000001
endloop
endfacet
facet normal -1.0 -5.16652292839202e-18 -4.18846002636585e-16
outer loop
vertex 4.33146851719357e-15 -48.374175 5.92130400000001
vertex -2.59888111031614e-14 -50.30964 36.684862
vertex 1.44382283906452e-14 -48.374175 35.083696
endloop
endfacet
facet normal -1.0 -5.16652292839202e-18 -4.18846002636585e-16
outer loop
vertex 4.33146851719357e-15 -48.374175 5.92130400000001
vertex 1.44382283906452e-14 -48.374175 35.083696
vertex 1.44382283906452e-14 -46.654625 33.252573
endloop
endfacet
facet normal -1.0 -5.16652292839202e-18 -4.18846002636585e-16
outer loop
vertex 4.33146851719357e-15 -48.374175 5.92130400000001
vertex 1.44382283906452e-14 -46.654625 33.252573
vertex -5.77529135625809e-15 -46.6546250000001 7.75242699999999
endloop
endfacet
facet normal -1.0 -5.16652292839202e-18 -4.18846002636585e-16
outer loop
vertex -5.77529135625809e-15 -46.6546250000001 7.75242699999999
vertex 1.44382283906452e-14 -46.654625 33.252573
vertex 8.66293703438714e-15 -45.17815 9.78462499999999
endloop
endfacet
facet normal -1.0 -5.16652292839202e-18 -4.18846002636585e-16
outer loop
vertex 8.66293703438714e-15 -45.17815 9.78462499999999
vertex 1.44382283906452e-14 -46.654625 33.252573
vertex -1.58820512297098e-14 -45.17815 31.220375
endloop
endfacet
facet normal -1.0 -5.16652292839202e-18 -4.18846002636585e-16
outer loop
vertex 8.66293703438714e-15 -45.17815 9.78462499999999
vertex -1.58820512297098e-14 -45.17815 31.220375
vertex -2.59888111031614e-14 -44.51 30.005
endloop
endfacet
facet normal -1.0 -5.16652292839202e-18 -4.18846002636585e-16
outer loop
vertex 8.66293703438714e-15 -45.17815 9.78462499999999
vertex -2.59888111031614e-14 -44.51 30.005
vertex 0.0 -44.51 11.0
endloop
endfacet
facet normal -1.0 -5.16652292839202e-18 -4.18846002636585e-16
outer loop
vertex 0.0 -44.51 11.0
vertex -2.59888111031614e-14 -44.51 30.005
vertex -2.59888111031614e-14 52.8863200000001 30.005
endloop
endfacet
facet normal -1.0 -5.16652292839202e-18 -4.18846002636585e-16
outer loop
vertex 0.0 -44.51 11.0
vertex -2.59888111031614e-14 52.8863200000001 30.005
vertex 0.0 52.8863200000001 11.0
endloop
endfacet
facet normal -1.0 -5.16652292839202e-18 -4.18846002636585e-16
outer loop
vertex 0.0 52.8863200000001 11.0
vertex -2.59888111031614e-14 52.8863200000001 30.005
vertex -1.58820512297098e-14 53.5545050000001 31.220375
endloop
endfacet
facet normal -1.0 -5.16652292839202e-18 -4.18846002636585e-16
outer loop
vertex 0.0 52.8863200000001 11.0
vertex -1.58820512297098e-14 53.5545050000001 31.220375
vertex 8.66293703438714e-15 53.5545050000001 9.784625
endloop
endfacet
facet normal -1.0 -5.16652292839202e-18 -4.18846002636585e-16
outer loop
vertex 8.66293703438714e-15 53.5545050000001 9.784625
vertex -1.58820512297098e-14 53.5545050000001 31.220375
vertex -5.77529135625809e-15 55.0309800000001 7.752427
endloop
endfacet
facet normal -1.0 -5.16652292839202e-18 -4.18846002636585e-16
outer loop
vertex -5.77529135625809e-15 55.0309800000001 7.752427
vertex -1.58820512297098e-14 53.5545050000001 31.220375
vertex 1.44382283906452e-14 55.0309800000001 33.252573
endloop
endfacet
facet normal -1.0 -5.16652292839202e-18 -4.18846002636585e-16
outer loop
vertex -5.77529135625809e-15 55.0309800000001 7.752427
vertex 1.44382283906452e-14 55.0309800000001 33.252573
vertex 4.33146851719357e-15 56.7504950000001 5.92130399999999
endloop
endfacet
facet normal -1.0 -5.16652292839202e-18 -4.18846002636585e-16
outer loop
vertex 4.33146851719357e-15 56.7504950000001 5.92130399999999
vertex 1.44382283906452e-14 55.0309800000001 33.252573
vertex 1.44382283906452e-14 56.7504950000001 35.083696
endloop
endfacet
facet normal -1.0 -5.16652292839202e-18 -4.18846002636585e-16
outer loop
vertex 4.33146851719357e-15 56.7504950000001 5.92130399999999
vertex 1.44382283906452e-14 56.7504950000001 35.083696
vertex 8.66293703438714e-15 58.6859950000001 4.32013799999999
endloop
endfacet
facet normal -1.0 -5.16652292839202e-18 -4.18846002636585e-16
outer loop
vertex 8.66293703438714e-15 58.6859950000001 4.32013799999999
vertex 1.44382283906452e-14 56.7504950000001 35.083696
vertex -2.59888111031614e-14 58.6859950000001 36.684862
endloop
endfacet
facet normal -1.0 -5.16652292839202e-18 -4.18846002636585e-16
outer loop
vertex 8.66293703438714e-15 58.6859950000001 4.32013799999999
vertex -2.59888111031614e-14 58.6859950000001 36.684862
vertex -5.77529135625809e-15 60.8068900000001 38.0308255
endloop
endfacet
facet normal -1.0 -5.16652292839202e-18 -4.18846002636585e-16
outer loop
vertex 8.66293703438714e-15 58.6859950000001 4.32013799999999
vertex -5.77529135625809e-15 60.8068900000001 38.0308255
vertex -2.02135197469033e-14 59.9431600000001 21.320968
endloop
endfacet
facet normal -1.0 -5.16652292839202e-18 -4.18846002636585e-16
outer loop
vertex -2.02135197469033e-14 59.9431600000001 21.320968
vertex -5.77529135625809e-15 60.8068900000001 38.0308255
vertex -5.77529135625809e-15 64.9569046595838 30.005
endloop
endfacet
facet normal -1.0 -5.16652292839202e-18 -4.18846002636585e-16
outer loop
vertex -5.77529135625809e-15 64.9569046595838 30.005
vertex -5.77529135625809e-15 60.8068900000001 38.0308255
vertex -4.62023308500648e-14 63.0797550000001 39.1003555
endloop
endfacet
facet normal -1.0 -5.16652292839202e-18 -4.18846002636585e-16
outer loop
vertex -5.77529135625809e-15 64.9569046595838 30.005
vertex -4.62023308500648e-14 63.0797550000001 39.1003555
vertex 4.33146851719357e-15 65.4687500000001 39.8765855
endloop
endfacet
facet normal -1.0 -5.16652292839202e-18 -4.18846002636585e-16
outer loop
vertex -5.77529135625809e-15 64.9569046595838 30.005
vertex 4.33146851719357e-15 65.4687500000001 39.8765855
vertex -2.59888111031614e-14 88.0000000000001 30.005
endloop
endfacet
facet normal -1.0 -5.16652292839202e-18 -4.18846002636585e-16
outer loop
vertex -2.59888111031614e-14 88.0000000000001 30.005
vertex 4.33146851719357e-15 65.4687500000001 39.8765855
vertex 4.33146851719357e-15 67.9362150000001 40.347276
endloop
endfacet
facet normal -1.0 -5.16652292839202e-18 -4.18846002636585e-16
outer loop
vertex -2.59888111031614e-14 88.0000000000001 30.005
vertex 4.33146851719357e-15 67.9362150000001 40.347276
vertex -1.58820512297098e-14 70.4431600000001 40.505
endloop
endfacet
facet normal -1.0 -5.16652292839202e-18 -4.18846002636585e-16
outer loop
vertex -2.59888111031614e-14 88.0000000000001 30.005
vertex -1.58820512297098e-14 70.4431600000001 40.505
vertex 4.33146851719357e-15 72.9501400000001 40.347276
endloop
endfacet
facet normal -1.0 -5.16652292839202e-18 -4.18846002636585e-16
outer loop
vertex -2.59888111031614e-14 88.0000000000001 30.005
vertex 4.33146851719357e-15 72.9501400000001 40.347276
vertex 4.33146851719357e-15 75.4175700000001 39.8765855
endloop
endfacet
facet normal -1.0 -5.16652292839202e-18 -4.18846002636585e-16
outer loop
vertex -2.59888111031614e-14 88.0000000000001 30.005
vertex 4.33146851719357e-15 75.4175700000001 39.8765855
vertex -4.62023308500648e-14 77.8066000000001 39.1003555
endloop
endfacet
facet normal -1.0 -5.16652292839202e-18 -4.18846002636585e-16
outer loop
vertex -2.59888111031614e-14 88.0000000000001 30.005
vertex -4.62023308500648e-14 77.8066000000001 39.1003555
vertex -5.77529135625809e-15 80.0794300000001 38.0308255
endloop
endfacet
facet normal -1.0 -5.16652292839202e-18 -4.18846002636585e-16
outer loop
vertex -2.59888111031614e-14 88.0000000000001 30.005
vertex -5.77529135625809e-15 80.0794300000001 38.0308255
vertex -2.59888111031614e-14 82.2003600000001 36.684862
endloop
endfacet
facet normal -1.0 -5.16652292839202e-18 -4.18846002636585e-16
outer loop
vertex -2.59888111031614e-14 88.0000000000001 30.005
vertex -2.59888111031614e-14 82.2003600000001 36.684862
vertex 1.44382283906452e-14 84.1358250000001 35.083696
endloop
endfacet
facet normal -1.0 -5.16652292839202e-18 -4.18846002636585e-16
outer loop
vertex -2.59888111031614e-14 88.0000000000001 30.005
vertex 1.44382283906452e-14 84.1358250000001 35.083696
vertex 1.44382283906452e-14 85.8553400000001 33.252573
endloop
endfacet
facet normal -1.0 -5.16652292839202e-18 -4.18846002636585e-16
outer loop
vertex -2.59888111031614e-14 88.0000000000001 30.005
vertex 1.44382283906452e-14 85.8553400000001 33.252573
vertex -1.58820512297098e-14 87.3318500000001 31.220375
endloop
endfacet
facet normal -1.0 -5.16652292839202e-18 -4.18846002636585e-16
outer loop
vertex 8.66293703438714e-15 58.6859950000001 4.32013799999999
vertex -4.04270394938067e-14 59.9431600000001 19.6840319999999
vertex 4.33146851719357e-15 60.8068900000001 2.97417449999998
endloop
endfacet
facet normal -1.0 -5.16652292839202e-18 -4.18846002636585e-16
outer loop
vertex -4.04270394938067e-14 59.9431600000001 19.6840319999999
vertex 8.66293703438714e-15 58.6859950000001 4.32013799999999
vertex -2.02135197469033e-14 59.9431600000001 21.320968
endloop
endfacet
facet normal -1.0 -5.16652292839202e-18 -4.18846002636585e-16
outer loop
vertex 4.33146851719357e-15 60.8068900000001 2.97417449999998
vertex -4.04270394938067e-14 59.9431600000001 19.6840319999999
vertex 0.0 64.9569046595838 11.0
endloop
endfacet
facet normal -1.0 -5.16652292839202e-18 -4.18846002636585e-16
outer loop
vertex 4.33146851719357e-15 60.8068900000001 2.97417449999998
vertex 0.0 64.9569046595838 11.0
vertex 8.66293703438714e-15 63.0797550000001 1.90464449999999
endloop
endfacet
facet normal -1.0 -5.16652292839202e-18 -4.18846002636585e-16
outer loop
vertex 8.66293703438714e-15 63.0797550000001 1.90464449999999
vertex 0.0 64.9569046595838 11.0
vertex 8.66293703438714e-15 65.4687500000001 1.12841449999999
endloop
endfacet
facet normal -1.0 -5.16652292839202e-18 -4.18846002636585e-16
outer loop
vertex 8.66293703438714e-15 65.4687500000001 1.12841449999999
vertex 0.0 64.9569046595838 11.0
vertex 0.0 88.0 11.0
endloop
endfacet
facet normal -1.0 -5.16652292839202e-18 -4.18846002636585e-16
outer loop
vertex 8.66293703438714e-15 65.4687500000001 1.12841449999999
vertex 0.0 88.0 11.0
vertex 1.44382283906452e-14 67.9362150000001 0.657723999999996
endloop
endfacet
facet normal -1.0 -5.16652292839202e-18 -4.18846002636585e-16
outer loop
vertex 1.44382283906452e-14 67.9362150000001 0.657723999999996
vertex 0.0 88.0 11.0
vertex -1.58820512297098e-14 70.4431600000001 0.499999999999992
endloop
endfacet
facet normal -1.0 -5.16652292839202e-18 -4.18846002636585e-16
outer loop
vertex -1.58820512297098e-14 70.4431600000001 0.499999999999992
vertex 0.0 88.0 11.0
vertex 1.44382283906452e-14 72.9501400000001 0.657723999999995
endloop
endfacet
facet normal -1.0 -5.16652292839202e-18 -4.18846002636585e-16
outer loop
vertex 1.44382283906452e-14 72.9501400000001 0.657723999999995
vertex 0.0 88.0 11.0
vertex 8.66293703438714e-15 75.4175700000001 1.12841449999998
endloop
endfacet
facet normal -1.0 -5.16652292839202e-18 -4.18846002636585e-16
outer loop
vertex 8.66293703438714e-15 75.4175700000001 1.12841449999998
vertex 0.0 88.0 11.0
vertex 8.66293703438714e-15 77.8066000000001 1.90464449999999
endloop
endfacet
facet normal -1.0 -5.16652292839202e-18 -4.18846002636585e-16
outer loop
vertex 8.66293703438714e-15 77.8066000000001 1.90464449999999
vertex 0.0 88.0 11.0
vertex 4.33146851719357e-15 80.0794300000001 2.97417449999997
endloop
endfacet
facet normal -1.0 -5.16652292839202e-18 -4.18846002636585e-16
outer loop
vertex 4.33146851719357e-15 80.0794300000001 2.97417449999997
vertex 0.0 88.0 11.0
vertex 8.66293703438714e-15 82.2003600000001 4.32013799999999
endloop
endfacet
facet normal -1.0 -5.16652292839202e-18 -4.18846002636585e-16
outer loop
vertex 8.66293703438714e-15 82.2003600000001 4.32013799999999
vertex 0.0 88.0 11.0
vertex 4.33146851719357e-15 84.1358250000001 5.92130399999999
endloop
endfacet
facet normal -1.0 -5.16652292839202e-18 -4.18846002636585e-16
outer loop
vertex 4.33146851719357e-15 84.1358250000001 5.92130399999999
vertex 0.0 88.0 11.0
vertex -5.77529135625809e-15 85.8553400000001 7.75242699999999
endloop
endfacet
facet normal -1.0 -5.16652292839202e-18 -4.18846002636585e-16
outer loop
vertex -5.77529135625809e-15 85.8553400000001 7.75242699999999
vertex 0.0 88.0 11.0
vertex 8.66293703438714e-15 87.3318500000001 9.78462499999999
endloop
endfacet
facet normal 1.54385162536221e-18 -0.87630800096057 -0.481751271355342
outer loop
vertex 16.0 -78.9554950000001 9.784625
vertex -5.77529135625809e-15 -80.16562 11.9858485
vertex 8.66293703438714e-15 -78.9554950000001 9.784625
endloop
endfacet
facet normal 1.54385162536221e-18 -0.87630800096057 -0.481751271355342
outer loop
vertex -5.77529135625809e-15 -80.16562 11.9858485
vertex 16.0 -78.9554950000001 9.784625
vertex 16.0 -80.16562 11.9858485000001
endloop
endfacet
facet normal -0.0 0.728966432830515 0.684549442923121
outer loop
vertex 1.44382283906452e-14 -48.374175 35.083696
vertex 16.0 -46.654625 33.252573
vertex 1.44382283906452e-14 -46.654625 33.252573
endloop
endfacet
facet normal -0.0 0.728966432830515 0.684549442923121
outer loop
vertex 16.0 -46.654625 33.252573
vertex 1.44382283906452e-14 -48.374175 35.083696
vertex 16.0 -48.374175 35.083696
endloop
endfacet
facet normal -4.92886627533294e-18 -0.929777235815169 -0.36812265857986
outer loop
vertex 16.0 -80.16562 11.9858485000001
vertex -1.58820512297098e-14 -81.09032 14.321388
vertex -5.77529135625809e-15 -80.16562 11.9858485
endloop
endfacet
facet normal -4.92886627533294e-18 -0.929777235815169 -0.36812265857986
outer loop
vertex -1.58820512297098e-14 -81.09032 14.321388
vertex 16.0 -80.16562 11.9858485000001
vertex 16.0 -81.09032 14.321388
endloop
endfacet
facet normal 0.0 -0.728973385830089 0.684542038702822
outer loop
vertex 16.0 56.7504950000001 35.083696
vertex 1.44382283906452e-14 55.0309800000001 33.252573
vertex 16.0 55.0309800000001 33.252573
endloop
endfacet
facet normal 0.0 -0.728973385830089 0.684542038702822
outer loop
vertex 1.44382283906452e-14 55.0309800000001 33.252573
vertex 16.0 56.7504950000001 35.083696
vertex 1.44382283906452e-14 56.7504950000001 35.083696
endloop
endfacet
endsolid model
