solid model
facet normal -3.87516011615285e-15 0.637426377601106 -0.770511267366242
outer loop
vertex 7.99999999999998 -50.3096400000001 4.32013799999997
vertex 4.33146851719357e-15 -48.374175 5.92130400000001
vertex 7.99999999999997 -48.374175 5.92130399999998
endloop
endfacet
facet normal 1.12058493420208e-15 0.062789800814727 -0.998026773645701
outer loop
vertex 8.00000000000001 70.4431600000001 0.499999999999996
vertex 1.44382283906452e-14 72.9501400000001 0.657723999999995
vertex 8.00000000000001 72.9501400000001 0.657724000000003
endloop
endfacet
facet normal 1.08163756093754e-17 -0.968581036723083 -0.248698161031475
outer loop
vertex 7.99999999999999 -81.715035 16.754406
vertex -1.58820512297098e-14 -81.09032 14.321388
vertex 8.00000000000001 -81.09032 14.321388
endloop
endfacet
facet normal 1.06652997170653e-17 -0.187379923169146 0.982287516154575
outer loop
vertex 8.0 67.9362150000001 40.347276
vertex 4.33146851719357e-15 65.4687500000001 39.8765855
vertex 7.99999999999997 65.4687500000001 39.8765855
endloop
endfacet
facet normal 0.0 -0.992114885884908 -0.125331772530253
outer loop
vertex 0.0 -82.0298600000001 19.246532
vertex -2.59888111031614e-14 -81.715035 16.754406
vertex 7.99999999999999 -81.715035 16.754406
endloop
endfacet
facet normal 0.0 -0.309016443553713 0.951056695267645
outer loop
vertex 7.99999999999997 65.4687500000001 39.8765855
vertex 4.33146851719357e-15 65.4687500000001 39.8765855
vertex -4.62023308500648e-14 63.0797550000001 39.1003555
endloop
endfacet
facet normal -1.91718447851771e-15 0.63742637760111 -0.770511267366238
outer loop
vertex 7.99999999999998 -50.3096400000001 4.32013799999997
vertex 8.66293703438714e-15 -50.3096400000001 4.32013800000001
vertex 4.33146851719357e-15 -48.374175 5.92130400000001
endloop
endfacet
facet normal 0.0 -0.187382487790095 0.98228702692726
outer loop
vertex 8.0 -64.57382 40.347276
vertex 4.33146851719357e-15 -67.04125 39.8765855
vertex 7.99999999999997 -67.04125 39.8765855
endloop
endfacet
facet normal -2.10939513030646e-15 0.535827534262194 -0.844327456338178
outer loop
vertex 8.00000000000002 -52.430535 2.97417450000003
vertex 8.66293703438714e-15 -50.3096400000001 4.32013800000001
vertex 7.99999999999998 -50.3096400000001 4.32013799999997
endloop
endfacet
facet normal -1.05466775273965e-15 0.535821230618658 -0.844331456726745
outer loop
vertex 8.00000000000002 80.0794300000001 2.97417449999999
vertex 8.66293703438714e-15 82.2003600000001 4.32013799999999
vertex 7.99999999999998 82.2003600000001 4.32013799999998
endloop
endfacet
facet normal -1.91718447851773e-15 -0.637426377601103 -0.770511267366244
outer loop
vertex 7.99999999999998 -73.824005 4.32013799999999
vertex 7.99999999999997 -75.75947 5.92130399999997
vertex 8.66293703438714e-15 -73.8240050000001 4.320138
endloop
endfacet
facet normal 5.33279848874828e-18 -0.187382487790095 0.98228702692726
outer loop
vertex 8.0 -64.57382 40.347276
vertex 4.33146851719357e-15 -64.57382 40.347276
vertex 4.33146851719357e-15 -67.04125 39.8765855
endloop
endfacet
facet normal -1.29497796895266e-17 -0.80901761385129 0.58778439965549
outer loop
vertex 1.44382283906452e-14 55.0309800000001 33.252573
vertex 7.99999999999998 53.5545050000001 31.220375
vertex 8.00000000000001 55.0309800000001 33.252573
endloop
endfacet
facet normal 0.0 0.876309133527997 0.481749211203725
outer loop
vertex 7.99999999999998 -45.17815 31.220375
vertex 7.99999999999997 -44.51 30.005
vertex -1.58820512297098e-14 -45.17815 31.220375
endloop
endfacet
facet normal -1.0 0.0 0.0
outer loop
vertex 1.44382283906452e-14 -46.654625 33.252573
vertex 1.44382283906452e-14 -77.47902 33.252573
vertex 1.44382283906452e-14 -75.75947 35.083696
endloop
endfacet
facet normal 0.0 0.876309133528008 0.481749211203705
outer loop
vertex -1.58820512297098e-14 87.3318500000001 31.220375
vertex 7.99999999999997 88.0000000000001 30.005
vertex -2.59888111031614e-14 88.0000000000001 30.005
endloop
endfacet
facet normal 0.0 -0.809017613851287 0.587784399655494
outer loop
vertex 1.44382283906452e-14 -77.47902 33.252573
vertex -1.58820512297098e-14 -78.955495 31.220375
vertex 7.99999999999998 -78.955495 31.220375
endloop
endfacet
facet normal 1.10157067935265e-17 -0.309016443553715 -0.951056695267645
outer loop
vertex 7.99999999999999 -69.430245 1.90464449999998
vertex 8.66293703438714e-15 -67.04125 1.12841449999995
vertex 7.99999999999998 -67.04125 1.12841449999995
endloop
endfacet
facet normal -2.62432068899785e-18 0.0627898008147248 0.998026773645701
outer loop
vertex 8.0 72.9501400000001 40.347276
vertex 4.33146851719357e-15 72.9501400000001 40.347276
vertex -1.58820512297098e-14 70.4431600000001 40.505
endloop
endfacet
facet normal 1.10157067935263e-17 0.309016443553711 0.951056695267646
outer loop
vertex 7.99999999999998 -54.7034 39.1003555
vertex -4.62023308500648e-14 -54.7034 39.1003555
vertex 4.33146851719357e-15 -57.092395 39.8765855
endloop
endfacet
facet normal -1.0 -1.77493703674728e-30 -7.12778939371564e-15
outer loop
vertex 0.0 64.9569046595838 11.0
vertex 8.66293703438714e-15 53.5545050000001 9.784625
vertex 0.0 52.8863200000001 11.0
endloop
endfacet
facet normal 0.0 -1.0 1.2490009027033e-16
outer loop
vertex 8.66293703438714e-15 -82.0298600000001 21.758468
vertex 0.0 -82.0298600000001 19.246532
vertex 7.99999999999999 -82.0298600000001 19.246532
endloop
endfacet
facet normal 2.24630416555985e-15 0.425784957816815 -0.904824386108671
outer loop
vertex 8.00000000000002 80.0794300000001 2.97417449999999
vertex 7.99999999999999 77.8066000000001 1.9046445
vertex 4.33146851719357e-15 80.0794300000001 2.97417449999997
endloop
endfacet
facet normal -1.0 -3.31321580192825e-29 -1.28157539416341e-13
outer loop
vertex 4.33146851719357e-15 -59.55986 40.347276
vertex 4.33146851719357e-15 -64.57382 40.347276
vertex -1.58820512297098e-14 -62.06684 40.505
endloop
endfacet
facet normal 0.0 -1.2490009027033e-16 -1.0
outer loop
vertex 7.99999999999999 -44.51 11.0
vertex 0.0 -44.51 11.0
vertex 0.0 52.8863200000001 11.0
endloop
endfacet
facet normal 0.0 -0.92977723581516 0.368122658579881
outer loop
vertex 7.99999999999998 -80.16562 29.0191514999999
vertex -2.02135197469033e-14 -81.09032 26.683612
vertex 7.99999999999998 -81.09032 26.683612
endloop
endfacet
facet normal 2.87437267283302e-17 0.728973385830095 0.684542038702816
outer loop
vertex 8.00000000000001 84.1358250000001 35.083696
vertex 8.00000000000001 85.8553400000001 33.252573
vertex 1.44382283906452e-14 85.8553400000001 33.252573
endloop
endfacet
facet normal 0.0 0.187379923169139 -0.982287516154577
outer loop
vertex 8.00000000000001 -59.5598600000001 0.657724
vertex 8.66293703438714e-15 -57.0923950000001 1.12841449999999
vertex 7.99999999999998 -57.0923950000001 1.12841449999999
endloop
endfacet
facet normal -1.15788874513394e-17 0.425784957816819 0.904824386108669
outer loop
vertex 7.99999999999998 77.8066000000001 39.1003555
vertex 7.99999999999997 80.0794300000001 38.0308255
vertex -4.62023308500648e-14 77.8066000000001 39.1003555
endloop
endfacet
facet normal -1.0 4.93038065763132e-32 -1.67135503601261e-15
outer loop
vertex 0.0 52.8863200000001 11.0
vertex 0.0 -44.51 11.0
vertex -1.58820512297098e-14 -51.094275416119 20.5025
endloop
endfacet
facet normal -1.0 -2.53845858031777e-16 -4.44904969132014e-15
outer loop
vertex -4.04270394938067e-14 59.9431600000001 19.6840319999999
vertex 0.0 52.8863200000001 11.0
vertex -1.58820512297098e-14 -51.094275416119 20.5025
endloop
endfacet
facet normal -1.0 -1.30030276154492e-16 1.23483873205197e-14
outer loop
vertex -4.04270394938067e-14 59.9431600000001 19.6840319999999
vertex -1.58820512297098e-14 -51.094275416119 20.5025
vertex -2.02135197469033e-14 59.9431600000001 21.320968
endloop
endfacet
facet normal 8.91047029627754e-16 0.728966432830514 -0.684549442923122
outer loop
vertex 8.00000000000001 -46.654625 7.75242700000001
vertex 4.33146851719357e-15 -48.374175 5.92130400000001
vertex -5.77529135625809e-15 -46.6546250000001 7.75242699999999
endloop
endfacet
facet normal 1.43718633641651e-17 0.728973385830095 0.684542038702816
outer loop
vertex 8.00000000000001 84.1358250000001 35.083696
vertex 1.44382283906452e-14 85.8553400000001 33.252573
vertex 1.44382283906452e-14 84.1358250000001 35.083696
endloop
endfacet
facet normal 0.0 0.809017613851287 -0.587784399655494
outer loop
vertex 8.0 -45.17815 9.78462499999999
vertex 8.00000000000001 -46.654625 7.75242700000001
vertex 8.66293703438714e-15 -45.17815 9.78462499999999
endloop
endfacet
facet normal 1.09999430787726e-15 0.425784957816812 -0.904824386108672
outer loop
vertex 7.99999999999999 77.8066000000001 1.9046445
vertex 8.66293703438714e-15 77.8066000000001 1.90464449999999
vertex 4.33146851719357e-15 80.0794300000001 2.97417449999997
endloop
endfacet
facet normal 1.35970530391324e-17 -0.63742637760111 0.770511267366238
outer loop
vertex 8.00000000000004 -73.824005 36.684862
vertex -2.59888111031614e-14 -73.824005 36.684862
vertex 1.44382283906452e-14 -75.75947 35.083696
endloop
endfacet
facet normal -2.71941060782653e-17 0.63742637760111 0.770511267366238
outer loop
vertex 8.00000000000001 -48.374175 35.083696
vertex 1.44382283906452e-14 -48.374175 35.083696
vertex -2.59888111031614e-14 -50.30964 36.684862
endloop
endfacet
facet normal -1.29497796895265e-17 -0.809017613851289 -0.587784399655492
outer loop
vertex 8.66293703438714e-15 -78.9554950000001 9.784625
vertex 8.00000000000001 -77.47902 7.75242700000001
vertex 8.0 -78.9554950000001 9.784625
endloop
endfacet
facet normal 0.0 -1.2490009027033e-16 -1.0
outer loop
vertex 7.99999999999999 -44.51 11.0
vertex 0.0 52.8863200000001 11.0
vertex 7.99999999999999 52.8863200000001 11.0
endloop
endfacet
facet normal 0.0 -0.968581036723083 0.248698161031475
outer loop
vertex 7.99999999999998 -81.09032 26.683612
vertex 2.88764567812905e-14 -81.715035 24.2505940000001
vertex 7.99999999999997 -81.715035 24.2505940000001
endloop
endfacet
facet normal 2.6243206889978e-18 0.0627898008147242 0.998026773645701
outer loop
vertex 8.0 -59.55986 40.347276
vertex -1.58820512297098e-14 -62.06684 40.505
vertex 7.99999999999998 -62.06684 40.505
endloop
endfacet
facet normal 0.0 -0.18738248779009 -0.982287026927261
outer loop
vertex 7.99999999999998 -67.04125 1.12841449999995
vertex 8.66293703438714e-15 -67.04125 1.12841449999995
vertex 1.44382283906452e-14 -64.5738200000001 0.657724000000023
endloop
endfacet
facet normal -9.78987818817546e-16 0.637426377601108 -0.770511267366241
outer loop
vertex 7.99999999999998 82.2003600000001 4.32013799999998
vertex 8.66293703438714e-15 82.2003600000001 4.32013799999999
vertex 4.33146851719357e-15 84.1358250000001 5.92130399999999
endloop
endfacet
facet normal 1.29496736323041e-17 0.809010988089065 0.587793519146949
outer loop
vertex 8.00000000000001 85.8553400000001 33.252573
vertex 7.99999999999998 87.3318500000001 31.220375
vertex 1.44382283906452e-14 85.8553400000001 33.252573
endloop
endfacet
facet normal -1.06655969774963e-17 0.187382487790092 0.98228702692726
outer loop
vertex 8.0 72.9501400000001 40.347276
vertex 7.99999999999997 75.4175700000001 39.8765855
vertex 4.33146851719357e-15 72.9501400000001 40.347276
endloop
endfacet
facet normal 1.1578563170101e-17 0.425779589784398 0.904826912134597
outer loop
vertex 7.99999999999998 -54.7034 39.1003555
vertex 7.99999999999997 -52.430535 38.0308255
vertex -4.62023308500648e-14 -54.7034 39.1003555
endloop
endfacet
facet normal -6.76483179178843e-16 -0.876298479915673 -0.481768589778829
outer loop
vertex 7.99999999999999 52.8863200000001 11.0
vertex 8.66293703438714e-15 53.5545050000001 9.784625
vertex 8.0 53.5545050000001 9.78462499999999
endloop
endfacet
facet normal 4.31151788529555e-17 0.728966432830517 0.684549442923118
outer loop
vertex 8.00000000000001 -48.374175 35.083696
vertex 8.00000000000001 -46.654625 33.252573
vertex 1.44382283906452e-14 -46.654625 33.252573
endloop
endfacet
facet normal 7.25187662613477e-16 0.809017613851289 -0.587784399655492
outer loop
vertex 8.66293703438714e-15 -45.17815 9.78462499999999
vertex 8.00000000000001 -46.654625 7.75242700000001
vertex -5.77529135625809e-15 -46.6546250000001 7.75242699999999
endloop
endfacet
facet normal 0.0 1.0 -1.2490009027033e-16
outer loop
vertex 7.99999999999998 59.9431600000001 21.320968
vertex 8.0 59.9431600000001 19.684032
vertex -2.02135197469033e-14 59.9431600000001 21.320968
endloop
endfacet
facet normal 2.31577749026791e-17 0.425784957816819 0.904824386108669
outer loop
vertex 7.99999999999997 80.0794300000001 38.0308255
vertex -5.77529135625809e-15 80.0794300000001 38.0308255
vertex -4.62023308500648e-14 77.8066000000001 39.1003555
endloop
endfacet
facet normal 0.0 0.309016443553715 -0.951056695267645
outer loop
vertex 7.99999999999999 -54.7034000000001 1.90464449999999
vertex 7.99999999999998 -57.0923950000001 1.12841449999999
vertex 8.66293703438714e-15 -54.7034000000001 1.90464449999999
endloop
endfacet
facet normal 1.05598662060309e-17 -0.992114885884908 -0.125331772530253
outer loop
vertex 0.0 -82.0298600000001 19.246532
vertex 7.99999999999999 -81.715035 16.754406
vertex 7.99999999999999 -82.0298600000001 19.246532
endloop
endfacet
facet normal 0.0 -0.637419534268099 0.77051692864819
outer loop
vertex 8.00000000000004 58.6859950000001 36.684862
vertex 1.44382283906452e-14 56.7504950000001 35.083696
vertex 8.00000000000001 56.7504950000001 35.083696
endloop
endfacet
facet normal 0.0 -0.876298479915671 -0.481768589778833
outer loop
vertex 0.0 52.8863200000001 11.0
vertex 8.66293703438714e-15 53.5545050000001 9.784625
vertex 7.99999999999999 52.8863200000001 11.0
endloop
endfacet
facet normal -8.54685459508756e-16 -0.80901761385129 -0.58778439965549
outer loop
vertex 8.66293703438714e-15 53.5545050000001 9.784625
vertex 8.00000000000001 55.0309800000001 7.752427
vertex 8.0 53.5545050000001 9.78462499999999
endloop
endfacet
facet normal -1.35966611874507e-17 -0.637419534268099 0.77051692864819
outer loop
vertex 8.00000000000004 58.6859950000001 36.684862
vertex -2.59888111031614e-14 58.6859950000001 36.684862
vertex 1.44382283906452e-14 56.7504950000001 35.083696
endloop
endfacet
facet normal -1.29497796895264e-17 -0.809017613851289 -0.587784399655492
outer loop
vertex 8.66293703438714e-15 -78.9554950000001 9.784625
vertex -5.77529135625809e-15 -77.47902 7.75242700000001
vertex 8.00000000000001 -77.47902 7.75242700000001
endloop
endfacet
facet normal 1.2372092493896e-15 -0.187382487790086 -0.982287026927261
outer loop
vertex 8.00000000000001 -64.5738200000001 0.657724000000023
vertex 7.99999999999998 -67.04125 1.12841449999995
vertex 1.44382283906452e-14 -64.5738200000001 0.657724000000023
endloop
endfacet
facet normal -1.15785631701012e-17 0.425779589784398 0.904826912134597
outer loop
vertex 7.99999999999997 -52.430535 38.0308255
vertex -5.77529135625809e-15 -52.430535 38.0308255
vertex -4.62023308500648e-14 -54.7034 39.1003555
endloop
endfacet
facet normal -1.29497796895264e-17 -0.809017613851292 -0.587784399655487
outer loop
vertex 8.66293703438714e-15 53.5545050000001 9.784625
vertex -5.77529135625809e-15 55.0309800000001 7.752427
vertex 8.00000000000001 55.0309800000001 7.752427
endloop
endfacet
facet normal -3.42050348067121e-15 -0.728973385830098 -0.684542038702813
outer loop
vertex 8.00000000000001 55.0309800000001 7.752427
vertex 4.33146851719357e-15 56.7504950000001 5.92130399999999
vertex 7.99999999999997 56.7504950000001 5.92130399999995
endloop
endfacet
facet normal -1.31487177625289e-31 4.177633687148e-14 1.0
outer loop
vertex 7.99999999999999 64.9569046595838 11.0
vertex 0.0 65.1931600000001 11.0
vertex 0.0 64.9569046595838 11.0
endloop
endfacet
facet normal -2.39108455073989e-17 -0.876308000960556 0.481751271355369
outer loop
vertex -1.58820512297098e-14 -78.955495 31.220375
vertex 7.99999999999998 -80.16562 29.0191514999999
vertex 7.99999999999998 -78.955495 31.220375
endloop
endfacet
facet normal -2.58993472646082e-17 0.809010988089065 0.587793519146949
outer loop
vertex 1.44382283906452e-14 85.8553400000001 33.252573
vertex 7.99999999999998 87.3318500000001 31.220375
vertex -1.58820512297098e-14 87.3318500000001 31.220375
endloop
endfacet
facet normal 0.0 0.0627898008147242 0.998026773645701
outer loop
vertex 8.0 -59.55986 40.347276
vertex 4.33146851719357e-15 -59.55986 40.347276
vertex -1.58820512297098e-14 -62.06684 40.505
endloop
endfacet
facet normal -1.43717262843185e-17 -0.728966432830517 0.684549442923118
outer loop
vertex 1.44382283906452e-14 -75.75947 35.083696
vertex 8.00000000000001 -77.47902 33.252573
vertex 8.00000000000001 -75.75947 35.083696
endloop
endfacet
facet normal -2.87437267283301e-17 -0.72897338583009 -0.684542038702821
outer loop
vertex -5.77529135625809e-15 55.0309800000001 7.752427
vertex 4.33146851719357e-15 56.7504950000001 5.92130399999999
vertex 8.00000000000001 55.0309800000001 7.752427
endloop
endfacet
facet normal -3.8342584548612e-15 -0.637419534268099 -0.77051692864819
outer loop
vertex 7.99999999999997 56.7504950000001 5.92130399999995
vertex 4.33146851719357e-15 56.7504950000001 5.92130399999999
vertex 8.66293703438714e-15 58.6859950000001 4.32013799999999
endloop
endfacet
facet normal -2.16327512187509e-17 -0.968581036723083 0.248698161031475
outer loop
vertex -2.02135197469033e-14 -81.09032 26.683612
vertex 2.88764567812905e-14 -81.715035 24.2505940000001
vertex 7.99999999999998 -81.09032 26.683612
endloop
endfacet
facet normal 1.25442528934097e-15 -0.0627898008147252 -0.998026773645701
outer loop
vertex 8.00000000000001 -64.5738200000001 0.657724000000023
vertex 1.44382283906452e-14 -64.5738200000001 0.657724000000023
vertex -1.58820512297098e-14 -62.0668400000001 0.50000000000001
endloop
endfacet
facet normal 5.33279848874817e-18 0.187382487790092 0.98228702692726
outer loop
vertex 7.99999999999997 75.4175700000001 39.8765855
vertex 4.33146851719357e-15 75.4175700000001 39.8765855
vertex 4.33146851719357e-15 72.9501400000001 40.347276
endloop
endfacet
facet normal 0.0 -0.80901761385129 0.58778439965549
outer loop
vertex 1.44382283906452e-14 55.0309800000001 33.252573
vertex -1.58820512297098e-14 53.5545050000001 31.220375
vertex 7.99999999999998 53.5545050000001 31.220375
endloop
endfacet
facet normal -1.24078559145841e-17 0.53582123061866 0.844331456726744
outer loop
vertex 8.00000000000004 82.2003600000001 36.684862
vertex -5.77529135625809e-15 80.0794300000001 38.0308255
vertex 7.99999999999997 80.0794300000001 38.0308255
endloop
endfacet
facet normal -9.51766283121579e-16 -0.637419534268092 -0.770516928648196
outer loop
vertex 7.99999999999998 58.6859950000001 4.32013799999998
vertex 7.99999999999997 56.7504950000001 5.92130399999995
vertex 8.66293703438714e-15 58.6859950000001 4.32013799999999
endloop
endfacet
facet normal -1.0298811518555e-15 -0.535827534262205 -0.844327456338171
outer loop
vertex 7.99999999999998 58.6859950000001 4.32013799999998
vertex 8.66293703438714e-15 58.6859950000001 4.32013799999999
vertex 4.33146851719357e-15 60.8068900000001 2.97417449999998
endloop
endfacet
facet normal 9.80422323961694e-18 0.87630913352801 -0.481749211203702
outer loop
vertex 7.99999999999999 88.0 11.0
vertex 8.66293703438714e-15 87.3318500000001 9.78462499999999
vertex 0.0 88.0 11.0
endloop
endfacet
facet normal -1.10153994392843e-17 0.309012348668273 -0.951058025764211
outer loop
vertex 7.99999999999998 75.4175700000001 1.12841449999998
vertex 8.66293703438714e-15 75.4175700000001 1.12841449999998
vertex 8.66293703438714e-15 77.8066000000001 1.90464449999999
endloop
endfacet
facet normal 2.10939513030642e-15 0.535827534262205 -0.844327456338171
outer loop
vertex 8.00000000000002 -52.430535 2.97417450000003
vertex 4.33146851719357e-15 -52.430535 2.97417449999999
vertex 8.66293703438714e-15 -50.3096400000001 4.32013800000001
endloop
endfacet
facet normal 9.80422323961708e-18 0.876309133528008 0.481749211203705
outer loop
vertex 7.99999999999998 87.3318500000001 31.220375
vertex 7.99999999999997 88.0000000000001 30.005
vertex -1.58820512297098e-14 87.3318500000001 31.220375
endloop
endfacet
facet normal -1.10157067935265e-17 -0.309016443553711 0.951056695267646
outer loop
vertex 7.99999999999997 -67.04125 39.8765855
vertex 4.33146851719357e-15 -67.04125 39.8765855
vertex -4.62023308500648e-14 -69.4302450000001 39.1003555
endloop
endfacet
facet normal 1.0 -3.35228281887117e-30 -8.12085380143373e-15
outer loop
vertex 7.99999999999998 87.3318500000001 31.220375
vertex 7.99999999999997 52.8863200000001 30.005
vertex 7.99999999999997 64.9569046595838 30.005
endloop
endfacet
facet normal 1.0 3.56750835189011e-32 -8.12085380143384e-15
outer loop
vertex 7.99999999999998 87.3318500000001 31.220375
vertex 7.99999999999998 53.5545050000001 31.220375
vertex 7.99999999999997 52.8863200000001 30.005
endloop
endfacet
facet normal 1.10388928717086e-15 0.187382487790086 -0.982287026927261
outer loop
vertex 8.00000000000001 72.9501400000001 0.657724000000003
vertex 1.44382283906452e-14 72.9501400000001 0.657723999999995
vertex 8.66293703438714e-15 75.4175700000001 1.12841449999998
endloop
endfacet
facet normal -1.0 3.64848168664718e-30 7.10473506550305e-15
outer loop
vertex 8.66293703438714e-15 87.3318500000001 9.78462499999999
vertex -5.77529135625809e-15 55.0309800000001 7.752427
vertex 8.66293703438714e-15 53.5545050000001 9.784625
endloop
endfacet
facet normal 0.0 0.809010988089065 -0.587793519146949
outer loop
vertex 8.66293703438714e-15 87.3318500000001 9.78462499999999
vertex 8.00000000000001 85.8553400000001 7.75242699999999
vertex -5.77529135625809e-15 85.8553400000001 7.75242699999999
endloop
endfacet
facet normal -1.15785631701012e-17 0.425779589784391 -0.9048269121346
outer loop
vertex 7.99999999999999 -54.7034000000001 1.90464449999999
vertex 8.66293703438714e-15 -54.7034000000001 1.90464449999999
vertex 4.33146851719357e-15 -52.430535 2.97417449999999
endloop
endfacet
facet normal 0.0 -1.2490009027033e-16 -1.0
outer loop
vertex 7.99999999999997 64.9569046595838 30.005
vertex -5.77529135625809e-15 64.9569046595838 30.005
vertex -2.59888111031614e-14 88.0000000000001 30.005
endloop
endfacet
facet normal 1.0 0.0 5.23782123836921e-14
outer loop
vertex 7.99999999999997 80.0794300000001 38.0308255
vertex 7.99999999999997 60.8068900000001 38.0308255
vertex 8.00000000000004 58.6859950000001 36.684862
endloop
endfacet
facet normal 1.0 -4.73316543132607e-30 2.93317989348678e-14
outer loop
vertex 7.99999999999998 82.2003600000001 4.32013799999998
vertex 8.00000000000002 60.8068900000001 2.9741745
vertex 8.00000000000002 80.0794300000001 2.97417449999999
endloop
endfacet
facet normal 2.28097694450991e-15 0.425779589784398 -0.904826912134597
outer loop
vertex 8.00000000000002 -52.430535 2.97417450000003
vertex 7.99999999999999 -54.7034000000001 1.90464449999999
vertex 4.33146851719357e-15 -52.430535 2.97417449999999
endloop
endfacet
facet normal 1.0 5.12759588393658e-30 2.93317989348678e-14
outer loop
vertex 7.99999999999998 82.2003600000001 4.32013799999998
vertex 7.99999999999998 58.6859950000001 4.32013799999998
vertex 8.00000000000002 60.8068900000001 2.9741745
endloop
endfacet
facet normal -1.0 -1.77493703674728e-30 -7.12778939371558e-15
outer loop
vertex 0.0 -44.51 11.0
vertex 8.66293703438714e-15 -45.17815 9.78462499999999
vertex 0.0 -56.5805495838811 11.0
endloop
endfacet
facet normal -1.0 -2.95822839457879e-31 -1.67135503601261e-15
outer loop
vertex 0.0 -44.51 11.0
vertex 0.0 -56.5805495838811 11.0
vertex -1.58820512297098e-14 -51.094275416119 20.5025
endloop
endfacet
facet normal -3.86156306311369e-15 0.6374263776011 -0.770511267366247
outer loop
vertex 7.99999999999998 82.2003600000001 4.32013799999998
vertex 4.33146851719357e-15 84.1358250000001 5.92130399999999
vertex 7.99999999999997 84.1358250000001 5.92130399999995
endloop
endfacet
facet normal 4.8585185064774e-17 0.86602469356974 -0.500001230125925
outer loop
vertex 7.99999999999997 64.9569046595838 30.005
vertex 7.99999999999998 59.9431600000001 21.320968
vertex -5.77529135625809e-15 64.9569046595838 30.005
endloop
endfacet
facet normal 9.80422323961681e-18 0.876309133527999 -0.481749211203722
outer loop
vertex 7.99999999999999 -44.51 11.0
vertex 8.0 -45.17815 9.78462499999999
vertex 8.66293703438714e-15 -45.17815 9.78462499999999
endloop
endfacet
facet normal 1.0 1.18329135783152e-29 6.59023951153217e-14
outer loop
vertex 8.00000000000001 72.9501400000001 0.657724000000003
vertex 7.99999999999998 65.4687500000001 1.12841449999999
vertex 8.00000000000001 67.9362150000001 0.657724000000001
endloop
endfacet
facet normal 0.0 0.87630913352801 -0.481749211203702
outer loop
vertex 7.99999999999999 88.0 11.0
vertex 8.0 87.3318500000001 9.78462499999999
vertex 8.66293703438714e-15 87.3318500000001 9.78462499999999
endloop
endfacet
facet normal 1.0 9.86076131526265e-31 6.16418453109661e-15
outer loop
vertex 7.99999999999997 84.1358250000001 5.92130399999995
vertex 7.99999999999997 56.7504950000001 5.92130399999995
vertex 7.99999999999998 58.6859950000001 4.32013799999998
endloop
endfacet
facet normal 1.0 -4.33873497871556e-30 -2.23302934848962e-14
outer loop
vertex 7.99999999999997 84.1358250000001 5.92130399999995
vertex 8.00000000000001 55.0309800000001 7.752427
vertex 7.99999999999997 56.7504950000001 5.92130399999995
endloop
endfacet
facet normal 1.0 -3.54987407349455e-30 -2.23302934848962e-14
outer loop
vertex 8.00000000000001 85.8553400000001 7.75242699999999
vertex 8.00000000000001 55.0309800000001 7.752427
vertex 7.99999999999997 84.1358250000001 5.92130399999995
endloop
endfacet
facet normal 1.0 0.0 5.55057426992429e-15
outer loop
vertex 8.0 87.3318500000001 9.78462499999999
vertex 8.00000000000001 55.0309800000001 7.752427
vertex 8.00000000000001 85.8553400000001 7.75242699999999
endloop
endfacet
facet normal 5.11756795381393e-16 -0.0627906739804761 -0.998026718711016
outer loop
vertex 8.00000000000001 67.9362150000001 0.657724000000001
vertex -1.58820512297098e-14 70.4431600000001 0.499999999999992
vertex 8.00000000000001 70.4431600000001 0.499999999999996
endloop
endfacet
facet normal 0.0 0.309016443553711 0.951056695267646
outer loop
vertex 7.99999999999998 -54.7034 39.1003555
vertex 4.33146851719357e-15 -57.092395 39.8765855
vertex 7.99999999999997 -57.092395 39.8765855
endloop
endfacet
facet normal 0.0 -0.876308000960556 0.481751271355369
outer loop
vertex -1.58820512297098e-14 -78.955495 31.220375
vertex -2.59888111031614e-14 -80.16562 29.0191514999999
vertex 7.99999999999998 -80.16562 29.0191514999999
endloop
endfacet
facet normal -1.15785631701012e-17 -0.425779589784398 -0.904826912134597
outer loop
vertex 8.00000000000002 60.8068900000001 2.9741745
vertex 8.66293703438714e-15 63.0797550000001 1.90464449999999
vertex 7.99999999999999 63.0797550000001 1.90464449999999
endloop
endfacet
facet normal 0.0 0.866025276129039 0.500000221105572
outer loop
vertex 8.00000000000002 -73.039369583881 20.5025
vertex 8.66293703438714e-15 -67.553095416119 11.0
vertex -2.02135197469033e-14 -73.039369583881 20.5025
endloop
endfacet
facet normal 1.0 0.0 0.0
outer loop
vertex 8.00000000000001 85.8553400000001 33.252573
vertex 8.00000000000001 84.1358250000001 35.083696
vertex 8.00000000000001 55.0309800000001 33.252573
endloop
endfacet
facet normal 1.0 0.0 0.0
outer loop
vertex 8.00000000000001 84.1358250000001 35.083696
vertex 8.00000000000001 56.7504950000001 35.083696
vertex 8.00000000000001 55.0309800000001 33.252573
endloop
endfacet
facet normal 1.0 3.15544362088405e-30 1.27151523245915e-14
outer loop
vertex 7.99999999999997 -57.092395 39.8765855
vertex 7.99999999999997 -67.04125 39.8765855
vertex 7.99999999999998 -69.4302450000001 39.1003555
endloop
endfacet
facet normal 0.0 -0.728966432830514 -0.684549442923122
outer loop
vertex -5.77529135625809e-15 -77.47902 7.75242700000001
vertex 4.33146851719357e-15 -75.75947 5.92130400000002
vertex 8.00000000000001 -77.47902 7.75242700000001
endloop
endfacet
facet normal 1.43717262843185e-17 -0.728966432830517 0.684549442923119
outer loop
vertex 1.44382283906452e-14 -75.75947 35.083696
vertex 1.44382283906452e-14 -77.47902 33.252573
vertex 8.00000000000001 -77.47902 33.252573
endloop
endfacet
facet normal 0.0 -0.866025276129038 -0.500000221105574
outer loop
vertex -2.59888111031614e-14 -56.580549583881 30.005
vertex -1.58820512297098e-14 -51.094275416119 20.5025
vertex 7.99999999999997 -56.580549583881 30.005
endloop
endfacet
facet normal 0.0 -0.876298479915669 0.481768589778836
outer loop
vertex -1.58820512297098e-14 53.5545050000001 31.220375
vertex -2.59888111031614e-14 52.8863200000001 30.005
vertex 7.99999999999997 52.8863200000001 30.005
endloop
endfacet
facet normal 0.0 0.637426377601108 0.77051126736624
outer loop
vertex 8.00000000000004 82.2003600000001 36.684862
vertex 8.00000000000001 84.1358250000001 35.083696
vertex -2.59888111031614e-14 82.2003600000001 36.684862
endloop
endfacet
facet normal -2.87437267283301e-17 -0.728973385830091 0.68454203870282
outer loop
vertex 1.44382283906452e-14 56.7504950000001 35.083696
vertex 8.00000000000001 55.0309800000001 33.252573
vertex 8.00000000000001 56.7504950000001 35.083696
endloop
endfacet
facet normal 1.0 6.7053176943786e-30 2.9331798934868e-14
outer loop
vertex 7.99999999999998 -50.3096400000001 4.32013799999997
vertex 7.99999999999998 -73.824005 4.32013799999999
vertex 8.00000000000002 -52.430535 2.97417450000003
endloop
endfacet
facet normal 1.0 9.86076131526265e-31 6.16418453109661e-15
outer loop
vertex 7.99999999999998 -50.3096400000001 4.32013799999997
vertex 7.99999999999997 -75.75947 5.92130399999997
vertex 7.99999999999998 -73.824005 4.32013799999999
endloop
endfacet
facet normal -4.29714615901114e-15 -0.728966432830523 -0.684549442923112
outer loop
vertex 8.00000000000001 -77.47902 7.75242700000001
vertex 4.33146851719357e-15 -75.75947 5.92130400000002
vertex 7.99999999999997 -75.75947 5.92130399999997
endloop
endfacet
facet normal 1.0 2.66240555512091e-30 8.12085380143377e-15
outer loop
vertex 8.0 -45.17815 9.78462499999999
vertex 7.99999999999999 -56.5805495838811 11.0
vertex 7.99999999999999 -67.553095416119 11.0
endloop
endfacet
facet normal -1.0 -1.18329135783152e-30 -5.51943254137033e-15
outer loop
vertex -5.77529135625809e-15 85.8553400000001 7.75242699999999
vertex 4.33146851719357e-15 84.1358250000001 5.92130399999999
vertex -5.77529135625809e-15 55.0309800000001 7.752427
endloop
endfacet
facet normal -1.0 5.91645678915759e-31 -4.65533055311256e-15
outer loop
vertex 0.0 64.9569046595838 11.0
vertex 0.0 52.8863200000001 11.0
vertex -4.04270394938067e-14 59.9431600000001 19.6840319999999
endloop
endfacet
facet normal -1.0 -9.46633086265214e-30 1.92236309124509e-13
outer loop
vertex 1.44382283906452e-14 72.9501400000001 0.657723999999995
vertex -1.58820512297098e-14 70.4431600000001 0.499999999999992
vertex 1.44382283906452e-14 67.9362150000001 0.657723999999996
endloop
endfacet
facet normal -1.0 -7.88860905221012e-31 -1.22698277451069e-14
outer loop
vertex 1.44382283906452e-14 72.9501400000001 0.657723999999995
vertex 1.44382283906452e-14 67.9362150000001 0.657723999999996
vertex 8.66293703438714e-15 65.4687500000001 1.12841449999999
endloop
endfacet
facet normal -1.0 -7.88860905221012e-31 -1.22698277451069e-14
outer loop
vertex 8.66293703438714e-15 75.4175700000001 1.12841449999998
vertex 1.44382283906452e-14 72.9501400000001 0.657723999999995
vertex 8.66293703438714e-15 65.4687500000001 1.12841449999999
endloop
endfacet
facet normal -1.0 0.0 0.0
outer loop
vertex 8.66293703438714e-15 75.4175700000001 1.12841449999998
vertex 8.66293703438714e-15 65.4687500000001 1.12841449999999
vertex 8.66293703438714e-15 63.0797550000001 1.90464449999999
endloop
endfacet
facet normal -2.08457871700872e-15 -0.535827534262205 -0.844327456338171
outer loop
vertex 7.99999999999998 -73.824005 4.32013799999999
vertex 8.66293703438714e-15 -73.8240050000001 4.320138
vertex 4.33146851719357e-15 -71.70311 2.9741745
endloop
endfacet
facet normal 2.13421154360416e-15 -0.535827534262197 -0.844327456338176
outer loop
vertex 8.00000000000002 60.8068900000001 2.9741745
vertex 7.99999999999998 58.6859950000001 4.32013799999998
vertex 4.33146851719357e-15 60.8068900000001 2.97417449999998
endloop
endfacet
facet normal 7.50555717053378e-16 -0.0627898008147267 -0.998026773645701
outer loop
vertex 8.00000000000001 -64.5738200000001 0.657724000000023
vertex -1.58820512297098e-14 -62.0668400000001 0.50000000000001
vertex 8.00000000000001 -62.06684 0.500000000000041
endloop
endfacet
facet normal 0.0 -0.535827534262199 0.844327456338175
outer loop
vertex 8.00000000000004 58.6859950000001 36.684862
vertex 7.99999999999997 60.8068900000001 38.0308255
vertex -2.59888111031614e-14 58.6859950000001 36.684862
endloop
endfacet
facet normal 2.4816413297723e-17 0.535827534262199 0.844327456338175
outer loop
vertex 8.00000000000004 -50.30964 36.684862
vertex -5.77529135625809e-15 -52.430535 38.0308255
vertex 7.99999999999997 -52.430535 38.0308255
endloop
endfacet
facet normal 2.58995593790531e-17 0.809017613851287 0.587784399655495
outer loop
vertex 8.00000000000001 -46.654625 33.252573
vertex 7.99999999999998 -45.17815 31.220375
vertex 1.44382283906452e-14 -46.654625 33.252573
endloop
endfacet
facet normal -1.1578563170101e-17 -0.425779589784397 0.904826912134597
outer loop
vertex 7.99999999999998 -69.4302450000001 39.1003555
vertex -4.62023308500648e-14 -69.4302450000001 39.1003555
vertex -5.77529135625809e-15 -71.7031100000001 38.0308255
endloop
endfacet
facet normal 1.0 5.91645678915759e-31 -1.84925535932895e-14
outer loop
vertex 8.00000000000004 -50.30964 36.684862
vertex 8.00000000000004 -73.824005 36.684862
vertex 8.00000000000001 -75.75947 35.083696
endloop
endfacet
facet normal 0.0 -0.992114885884908 0.125331772530253
outer loop
vertex 2.88764567812905e-14 -81.715035 24.2505940000001
vertex 8.66293703438714e-15 -82.0298600000001 21.758468
vertex 8.00000000000001 -82.0298600000001 21.758468
endloop
endfacet
facet normal 5.33279848874817e-18 0.187382487790082 -0.982287026927262
outer loop
vertex 8.00000000000001 72.9501400000001 0.657724000000003
vertex 8.66293703438714e-15 75.4175700000001 1.12841449999998
vertex 7.99999999999998 75.4175700000001 1.12841449999998
endloop
endfacet
facet normal 1.0 -1.18329135783152e-30 -3.11598506358884e-15
outer loop
vertex 7.99999999999999 -44.51 11.0
vertex 8.00000000000002 -51.094275416119 20.5025
vertex 7.99999999999999 -56.5805495838811 11.0
endloop
endfacet
facet normal -1.10153994392842e-17 0.309012348668269 0.951058025764212
outer loop
vertex 7.99999999999998 77.8066000000001 39.1003555
vertex -4.62023308500648e-14 77.8066000000001 39.1003555
vertex 4.33146851719357e-15 75.4175700000001 39.8765855
endloop
endfacet
facet normal 1.0 7.88860905221012e-31 -9.22824295617482e-15
outer loop
vertex 7.99999999999997 80.0794300000001 38.0308255
vertex 7.99999999999998 77.8066000000001 39.1003555
vertex 7.99999999999997 60.8068900000001 38.0308255
endloop
endfacet
facet normal 1.0 7.88860905221012e-31 -9.22824295617482e-15
outer loop
vertex 7.99999999999998 77.8066000000001 39.1003555
vertex 7.99999999999998 63.0797550000001 39.1003555
vertex 7.99999999999997 60.8068900000001 38.0308255
endloop
endfacet
facet normal -1.0 -3.10371729915632e-17 -1.08150889911871e-15
outer loop
vertex -2.02135197469033e-14 59.9431600000001 21.320968
vertex -1.58820512297098e-14 -51.094275416119 20.5025
vertex -2.59888111031614e-14 -56.580549583881 30.005
endloop
endfacet
facet normal 5.09118213665579e-16 0.062789800814725 -0.998026773645701
outer loop
vertex 8.00000000000001 70.4431600000001 0.499999999999996
vertex -1.58820512297098e-14 70.4431600000001 0.499999999999992
vertex 1.44382283906452e-14 72.9501400000001 0.657723999999995
endloop
endfacet
facet normal 2.29255550768002e-15 -0.425779589784391 -0.9048269121346
outer loop
vertex 8.00000000000002 -71.70311 2.9741745
vertex 4.33146851719357e-15 -71.70311 2.9741745
vertex 8.66293703438714e-15 -69.430245 1.90464449999998
endloop
endfacet
facet normal 1.25442528934095e-15 0.0627898008147259 -0.998026773645701
outer loop
vertex 8.00000000000001 -62.06684 0.500000000000041
vertex 1.44382283906452e-14 -59.5598600000001 0.657724
vertex 8.00000000000001 -59.5598600000001 0.657724
endloop
endfacet
facet normal 0.0 0.309012348668269 0.951058025764212
outer loop
vertex 7.99999999999998 77.8066000000001 39.1003555
vertex 4.33146851719357e-15 75.4175700000001 39.8765855
vertex 7.99999999999997 75.4175700000001 39.8765855
endloop
endfacet
facet normal 0.0 0.63742637760111 0.770511267366238
outer loop
vertex 8.00000000000004 -50.30964 36.684862
vertex 8.00000000000001 -48.374175 35.083696
vertex -2.59888111031614e-14 -50.30964 36.684862
endloop
endfacet
facet normal 1.0 1.50106638908843e-15 -2.24934346879256e-15
outer loop
vertex 7.99999999999999 -67.553095416119 11.0
vertex 8.00000000000002 -73.039369583881 20.5025
vertex 8.00000000000001 -80.16562 11.9858485
endloop
endfacet
facet normal -9.71703701295474e-17 0.86602469356974 -0.500001230125925
outer loop
vertex -5.77529135625809e-15 64.9569046595838 30.005
vertex 7.99999999999998 59.9431600000001 21.320968
vertex -2.02135197469033e-14 59.9431600000001 21.320968
endloop
endfacet
facet normal 1.0 2.12992444409673e-29 6.59023951153214e-14
outer loop
vertex 8.00000000000001 -59.5598600000001 0.657724
vertex 7.99999999999998 -67.04125 1.12841449999995
vertex 8.00000000000001 -64.5738200000001 0.657724000000023
endloop
endfacet
facet normal 1.0 1.10440526730942e-29 6.59023951153214e-14
outer loop
vertex 7.99999999999998 -57.0923950000001 1.12841449999999
vertex 7.99999999999998 -67.04125 1.12841449999995
vertex 8.00000000000001 -59.5598600000001 0.657724
endloop
endfacet
facet normal 1.0 -2.56379794196829e-30 -1.27151523245913e-14
outer loop
vertex 7.99999999999998 -57.0923950000001 1.12841449999999
vertex 7.99999999999999 -69.430245 1.90464449999998
vertex 7.99999999999998 -67.04125 1.12841449999995
endloop
endfacet
facet normal -1.0 3.15544362088405e-30 1.50178810546522e-14
outer loop
vertex -2.59888111031614e-14 -50.30964 36.684862
vertex -2.59888111031614e-14 -73.824005 36.684862
vertex -5.77529135625809e-15 -71.7031100000001 38.0308255
endloop
endfacet
facet normal -1.0 -1.42167695796382e-31 -7.12778939371563e-15
outer loop
vertex 8.66293703438714e-15 53.5545050000001 9.784625
vertex 0.0 65.1931600000001 11.0
vertex 0.0 88.0 11.0
endloop
endfacet
facet normal -1.0 -1.42167695796382e-31 -7.12778939371563e-15
outer loop
vertex 0.0 65.1931600000001 11.0
vertex 8.66293703438714e-15 53.5545050000001 9.784625
vertex 0.0 64.9569046595838 11.0
endloop
endfacet
facet normal -1.0 -1.42167695796382e-31 -7.12778939371563e-15
outer loop
vertex 0.0 88.0 11.0
vertex 0.0 65.1931600000001 11.0
vertex 0.0 75.8731650000001 11.0
endloop
endfacet
facet normal -6.07314813309677e-15 0.866024693569738 0.500001230125929
outer loop
vertex 8.0 59.9431600000001 19.684032
vertex 0.0 64.9569046595838 11.0
vertex -4.04270394938067e-14 59.9431600000001 19.6840319999999
endloop
endfacet
facet normal 1.0 8.08582427851537e-30 -1.27151523245912e-14
outer loop
vertex 7.99999999999999 77.8066000000001 1.9046445
vertex 7.99999999999999 63.0797550000001 1.90464449999999
vertex 7.99999999999998 75.4175700000001 1.12841449999998
endloop
endfacet
facet normal 1.0 9.07190041004164e-30 -2.76847288685244e-14
outer loop
vertex 7.99999999999999 77.8066000000001 1.9046445
vertex 8.00000000000002 60.8068900000001 2.9741745
vertex 7.99999999999999 63.0797550000001 1.90464449999999
endloop
endfacet
facet normal 1.0 1.28189897098414e-30 8.12085380143376e-15
outer loop
vertex 7.99999999999999 -44.51 11.0
vertex 7.99999999999999 -56.5805495838811 11.0
vertex 8.0 -45.17815 9.78462499999999
endloop
endfacet
facet normal 1.0 -2.56379794196829e-30 -1.27151523245913e-14
outer loop
vertex 7.99999999999998 75.4175700000001 1.12841449999998
vertex 7.99999999999999 63.0797550000001 1.90464449999999
vertex 7.99999999999998 65.4687500000001 1.12841449999999
endloop
endfacet
facet normal -4.82695382889213e-15 -0.63742637760111 -0.770511267366239
outer loop
vertex 7.99999999999997 -75.75947 5.92130399999997
vertex 4.33146851719357e-15 -75.75947 5.92130400000002
vertex 8.66293703438714e-15 -73.8240050000001 4.320138
endloop
endfacet
facet normal -1.0 -3.94430452610506e-30 -7.12778939371557e-15
outer loop
vertex 0.0 88.0 11.0
vertex 8.66293703438714e-15 87.3318500000001 9.78462499999999
vertex 8.66293703438714e-15 53.5545050000001 9.784625
endloop
endfacet
facet normal 1.0 9.86076131526265e-32 -8.12085380143384e-15
outer loop
vertex 7.99999999999998 -45.17815 31.220375
vertex 7.99999999999997 -67.553095416119 30.005
vertex 7.99999999999997 -56.580549583881 30.005
endloop
endfacet
facet normal 1.0 0.0 0.0
outer loop
vertex 8.00000000000001 -59.5598600000001 0.657724
vertex 8.00000000000001 -64.5738200000001 0.657724000000023
vertex 8.00000000000001 -62.06684 0.500000000000041
endloop
endfacet
facet normal -1.35970530391325e-17 0.637426377601108 0.77051126736624
outer loop
vertex 8.00000000000001 84.1358250000001 35.083696
vertex 1.44382283906452e-14 84.1358250000001 35.083696
vertex -2.59888111031614e-14 82.2003600000001 36.684862
endloop
endfacet
facet normal 4.85851850647738e-17 0.86602469356974 0.500001230125925
outer loop
vertex 8.0 59.9431600000001 19.684032
vertex 7.99999999999999 64.9569046595838 11.0
vertex 0.0 64.9569046595838 11.0
endloop
endfacet
facet normal 1.0 -1.38050658413677e-30 -8.12085380143384e-15
outer loop
vertex 7.99999999999997 -44.51 30.005
vertex 7.99999999999998 -45.17815 31.220375
vertex 7.99999999999997 -56.580549583881 30.005
endloop
endfacet
facet normal 1.0 1.28189897098414e-30 8.12085380143376e-15
outer loop
vertex 7.99999999999999 88.0 11.0
vertex 8.0 53.5545050000001 9.78462499999999
vertex 8.0 87.3318500000001 9.78462499999999
endloop
endfacet
facet normal 1.0 7.88860905221012e-31 8.12085380143376e-15
outer loop
vertex 7.99999999999999 88.0 11.0
vertex 7.99999999999999 64.9569046595838 11.0
vertex 8.0 53.5545050000001 9.78462499999999
endloop
endfacet
facet normal 1.0 -2.46519032881566e-32 -1.13655531081848e-15
outer loop
vertex 7.99999999999999 64.9569046595838 11.0
vertex 8.0 59.9431600000001 19.684032
vertex 7.99999999999999 52.8863200000001 11.0
endloop
endfacet
facet normal 1.0 -1.38050658413677e-30 -8.12085380143384e-15
outer loop
vertex 7.99999999999997 88.0000000000001 30.005
vertex 7.99999999999998 87.3318500000001 31.220375
vertex 7.99999999999997 64.9569046595838 30.005
endloop
endfacet
facet normal -1.24082066488615e-17 -0.535827534262199 0.844327456338175
outer loop
vertex 7.99999999999997 -71.7031100000001 38.0308255
vertex -5.77529135625809e-15 -71.7031100000001 38.0308255
vertex -2.59888111031614e-14 -73.824005 36.684862
endloop
endfacet
facet normal 2.12174336139384e-15 0.535821230618666 -0.844331456726739
outer loop
vertex 8.00000000000002 80.0794300000001 2.97417449999999
vertex 4.33146851719357e-15 80.0794300000001 2.97417449999997
vertex 8.66293703438714e-15 82.2003600000001 4.32013799999999
endloop
endfacet
facet normal 1.0 -4.73316543132607e-30 -6.29068317009858e-14
outer loop
vertex 7.99999999999997 75.4175700000001 39.8765855
vertex 8.0 72.9501400000001 40.347276
vertex 7.99999999999997 65.4687500000001 39.8765855
endloop
endfacet
facet normal 9.80422323961682e-18 0.876309133527999 -0.481749211203722
outer loop
vertex 7.99999999999999 -44.51 11.0
vertex 8.66293703438714e-15 -45.17815 9.78462499999999
vertex 0.0 -44.51 11.0
endloop
endfacet
facet normal 1.0 8.67746995743113e-30 6.59023951153219e-14
outer loop
vertex 7.99999999999998 75.4175700000001 1.12841449999998
vertex 7.99999999999998 65.4687500000001 1.12841449999999
vertex 8.00000000000001 72.9501400000001 0.657724000000003
endloop
endfacet
facet normal -2.31571263402024e-17 -0.425779589784398 0.904826912134597
outer loop
vertex 7.99999999999998 -69.4302450000001 39.1003555
vertex -5.77529135625809e-15 -71.7031100000001 38.0308255
vertex 7.99999999999997 -71.7031100000001 38.0308255
endloop
endfacet
facet normal -5.33264985853262e-18 -0.187379923169146 0.982287516154575
outer loop
vertex 8.0 67.9362150000001 40.347276
vertex 4.33146851719357e-15 67.9362150000001 40.347276
vertex 4.33146851719357e-15 65.4687500000001 39.8765855
endloop
endfacet
facet normal -2.6243938224687e-18 -0.0627906739804739 0.998026718711016
outer loop
vertex 8.0 67.9362150000001 40.347276
vertex 7.99999999999998 70.4431600000001 40.505
vertex 4.33146851719357e-15 67.9362150000001 40.347276
endloop
endfacet
facet normal 9.65209624394406e-16 -0.187379923169137 -0.982287516154577
outer loop
vertex 8.00000000000001 67.9362150000001 0.657724000000001
vertex 7.99999999999998 65.4687500000001 1.12841449999999
vertex 1.44382283906452e-14 67.9362150000001 0.657723999999996
endloop
endfacet
facet normal -4.05631332037968e-31 2.31628175072561e-16 1.0
outer loop
vertex 7.99999999999997 52.8863200000001 30.005
vertex -2.59888111031614e-14 52.8863200000001 30.005
vertex -2.59888111031614e-14 -44.51 30.005
endloop
endfacet
facet normal -2.62432068899785e-18 -0.0627898008147247 0.998026773645701
outer loop
vertex 8.0 -64.57382 40.347276
vertex 7.99999999999998 -62.06684 40.505
vertex 4.33146851719357e-15 -64.57382 40.347276
endloop
endfacet
facet normal 2.20314135870527e-17 -0.309016443553711 0.951056695267646
outer loop
vertex 7.99999999999998 -69.4302450000001 39.1003555
vertex 7.99999999999997 -67.04125 39.8765855
vertex -4.62023308500648e-14 -69.4302450000001 39.1003555
endloop
endfacet
facet normal 1.0 -9.86076131526265e-31 -1.52640792422918e-14
outer loop
vertex 7.99999999999998 87.3318500000001 31.220375
vertex 8.00000000000001 85.8553400000001 33.252573
vertex 7.99999999999998 53.5545050000001 31.220375
endloop
endfacet
facet normal 1.0 1.33365088396055e-15 -4.39118592648082e-15
outer loop
vertex 7.99999999999999 -67.553095416119 11.0
vertex 8.00000000000001 -80.16562 11.9858485
vertex 8.0 -78.9554950000001 9.784625
endloop
endfacet
facet normal 1.0 -2.56379794196829e-30 -1.52640792422918e-14
outer loop
vertex 8.00000000000001 85.8553400000001 33.252573
vertex 8.00000000000001 55.0309800000001 33.252573
vertex 7.99999999999998 53.5545050000001 31.220375
endloop
endfacet
facet normal 0.0 0.809017613851287 0.587784399655494
outer loop
vertex 1.44382283906452e-14 -46.654625 33.252573
vertex 7.99999999999998 -45.17815 31.220375
vertex -1.58820512297098e-14 -45.17815 31.220375
endloop
endfacet
facet normal -1.24082066488615e-17 -0.535827534262199 0.844327456338175
outer loop
vertex 7.99999999999997 60.8068900000001 38.0308255
vertex -5.77529135625809e-15 60.8068900000001 38.0308255
vertex -2.59888111031614e-14 58.6859950000001 36.684862
endloop
endfacet
facet normal -2.48164132977224e-17 0.535827534262199 0.844327456338175
outer loop
vertex 8.00000000000004 -50.30964 36.684862
vertex -2.59888111031614e-14 -50.30964 36.684862
vertex -5.77529135625809e-15 -52.430535 38.0308255
endloop
endfacet
facet normal 0.0 1.2490009027033e-16 1.0
outer loop
vertex 7.99999999999999 -56.5805495838811 11.0
vertex 0.0 -56.5805495838811 11.0
vertex 8.66293703438714e-15 -67.553095416119 11.0
endloop
endfacet
facet normal -2.55518115512574e-32 1.16269681353293e-16 1.0
outer loop
vertex 7.99999999999999 88.0 11.0
vertex 0.0 88.0 11.0
vertex 0.0 75.8731650000001 11.0
endloop
endfacet
facet normal -3.42050348067122e-15 0.728973385830101 -0.684542038702809
outer loop
vertex 8.00000000000001 85.8553400000001 7.75242699999999
vertex 7.99999999999997 84.1358250000001 5.92130399999995
vertex 4.33146851719357e-15 84.1358250000001 5.92130399999999
endloop
endfacet
facet normal 1.0 5.91645678915759e-31 8.12085380143377e-15
outer loop
vertex 7.99999999999999 64.9569046595838 11.0
vertex 7.99999999999999 52.8863200000001 11.0
vertex 8.0 53.5545050000001 9.78462499999999
endloop
endfacet
facet normal 9.86772077248232e-16 -0.0627906739804748 -0.998026718711016
outer loop
vertex 8.00000000000001 67.9362150000001 0.657724000000001
vertex 1.44382283906452e-14 67.9362150000001 0.657723999999996
vertex -1.58820512297098e-14 70.4431600000001 0.499999999999992
endloop
endfacet
facet normal 1.0 1.68389466041583e-16 -1.2733923836829e-15
outer loop
vertex 8.0 59.9431600000001 19.684032
vertex 8.00000000000002 -51.094275416119 20.5025
vertex 7.99999999999999 52.8863200000001 11.0
endloop
endfacet
facet normal 1.0 2.66663652269967e-16 1.20589719926957e-14
outer loop
vertex 7.99999999999998 59.9431600000001 21.320968
vertex 8.00000000000002 -51.094275416119 20.5025
vertex 8.0 59.9431600000001 19.684032
endloop
endfacet
facet normal 0.0 1.0 -1.2490009027033e-16
outer loop
vertex -2.02135197469033e-14 59.9431600000001 21.320968
vertex 8.0 59.9431600000001 19.684032
vertex -4.04270394938067e-14 59.9431600000001 19.6840319999999
endloop
endfacet
facet normal 1.0 2.36658271566304e-30 -1.84925535932895e-14
outer loop
vertex 8.00000000000001 -48.374175 35.083696
vertex 8.00000000000004 -50.30964 36.684862
vertex 8.00000000000001 -75.75947 35.083696
endloop
endfacet
facet normal 1.0 -1.18329135783152e-30 -3.11598506358884e-15
outer loop
vertex 7.99999999999999 52.8863200000001 11.0
vertex 8.00000000000002 -51.094275416119 20.5025
vertex 7.99999999999999 -44.51 11.0
endloop
endfacet
facet normal -1.29496736323041e-17 0.809010988089065 -0.587793519146949
outer loop
vertex 8.0 87.3318500000001 9.78462499999999
vertex 8.00000000000001 85.8553400000001 7.75242699999999
vertex 8.66293703438714e-15 87.3318500000001 9.78462499999999
endloop
endfacet
facet normal 1.0 9.86076131526265e-31 1.27151523245915e-14
outer loop
vertex 7.99999999999997 75.4175700000001 39.8765855
vertex 7.99999999999997 65.4687500000001 39.8765855
vertex 7.99999999999998 63.0797550000001 39.1003555
endloop
endfacet
facet normal 1.0 0.0 0.0
outer loop
vertex 8.00000000000001 72.9501400000001 0.657724000000003
vertex 8.00000000000001 67.9362150000001 0.657724000000001
vertex 8.00000000000001 70.4431600000001 0.499999999999996
endloop
endfacet
facet normal 5.27993310301553e-18 -0.992114885884908 0.125331772530253
outer loop
vertex 2.88764567812905e-14 -81.715035 24.2505940000001
vertex 8.00000000000001 -82.0298600000001 21.758468
vertex 7.99999999999997 -81.715035 24.2505940000001
endloop
endfacet
facet normal -1.06652997170655e-17 0.187379923169148 0.982287516154575
outer loop
vertex 7.99999999999997 -57.092395 39.8765855
vertex 4.33146851719357e-15 -57.092395 39.8765855
vertex 4.33146851719357e-15 -59.55986 40.347276
endloop
endfacet
facet normal 1.0 1.26217744835362e-29 5.23782123836922e-14
outer loop
vertex 8.00000000000004 82.2003600000001 36.684862
vertex 7.99999999999997 80.0794300000001 38.0308255
vertex 8.00000000000004 58.6859950000001 36.684862
endloop
endfacet
facet normal 1.0 5.12759588393658e-30 2.9331798934868e-14
outer loop
vertex 8.00000000000002 -52.430535 2.97417450000003
vertex 7.99999999999998 -73.824005 4.32013799999999
vertex 8.00000000000002 -71.70311 2.9741745
endloop
endfacet
facet normal -1.0 2.95822839457879e-31 7.10473506550309e-15
outer loop
vertex 8.66293703438714e-15 87.3318500000001 9.78462499999999
vertex -5.77529135625809e-15 85.8553400000001 7.75242699999999
vertex -5.77529135625809e-15 55.0309800000001 7.752427
endloop
endfacet
facet normal -1.0 0.0 0.0
outer loop
vertex 1.44382283906452e-14 -46.654625 33.252573
vertex 1.44382283906452e-14 -75.75947 35.083696
vertex 1.44382283906452e-14 -48.374175 35.083696
endloop
endfacet
facet normal -1.0 -1.18329135783152e-30 -2.52484998393712e-14
outer loop
vertex 1.44382283906452e-14 -48.374175 35.083696
vertex 1.44382283906452e-14 -75.75947 35.083696
vertex -2.59888111031614e-14 -73.824005 36.684862
endloop
endfacet
facet normal -1.0 -4.33873497871556e-30 -2.52484998393712e-14
outer loop
vertex 1.44382283906452e-14 -48.374175 35.083696
vertex -2.59888111031614e-14 -73.824005 36.684862
vertex -2.59888111031614e-14 -50.30964 36.684862
endloop
endfacet
facet normal 1.0 3.47098798297245e-29 1.2515384708627e-13
outer loop
vertex 8.0 72.9501400000001 40.347276
vertex 7.99999999999998 70.4431600000001 40.505
vertex 8.0 67.9362150000001 40.347276
endloop
endfacet
facet normal 1.0 2.89567755116861e-31 1.13655531081848e-15
outer loop
vertex 7.99999999999998 59.9431600000001 21.320968
vertex 7.99999999999997 52.8863200000001 30.005
vertex 7.99999999999997 -44.51 30.005
endloop
endfacet
facet normal 1.0 2.89567755116861e-31 1.13655531081848e-15
outer loop
vertex 7.99999999999997 52.8863200000001 30.005
vertex 7.99999999999998 59.9431600000001 21.320968
vertex 7.99999999999997 64.9569046595838 30.005
endloop
endfacet
facet normal 0.0 -1.2490009027033e-16 -1.0
outer loop
vertex 7.99999999999997 64.9569046595838 30.005
vertex -2.59888111031614e-14 88.0000000000001 30.005
vertex 7.99999999999997 88.0000000000001 30.005
endloop
endfacet
facet normal -1.24082066488612e-17 -0.535827534262198 0.844327456338175
outer loop
vertex 8.00000000000004 -73.824005 36.684862
vertex 7.99999999999997 -71.7031100000001 38.0308255
vertex -2.59888111031614e-14 -73.824005 36.684862
endloop
endfacet
facet normal 1.0 -2.56379794196829e-30 -1.27151523245913e-14
outer loop
vertex 7.99999999999999 -54.7034000000001 1.90464449999999
vertex 7.99999999999999 -69.430245 1.90464449999998
vertex 7.99999999999998 -57.0923950000001 1.12841449999999
endloop
endfacet
facet normal 1.0 -1.99397400785245e-16 5.30843065021155e-15
outer loop
vertex 7.99999999999997 -67.553095416119 30.005
vertex 8.00000000000001 -82.0298600000001 21.758468
vertex 8.00000000000002 -73.039369583881 20.5025
endloop
endfacet
facet normal 1.0 -7.02756477835528e-15 1.72952599821559e-14
outer loop
vertex 7.99999999999997 -67.553095416119 30.005
vertex 7.99999999999997 -81.715035 24.2505940000001
vertex 8.00000000000001 -82.0298600000001 21.758468
endloop
endfacet
facet normal 1.0 -6.7053176943786e-30 -2.76847288685244e-14
outer loop
vertex 7.99999999999999 -54.7034000000001 1.90464449999999
vertex 8.00000000000002 -71.70311 2.9741745
vertex 7.99999999999999 -69.430245 1.90464449999998
endloop
endfacet
facet normal 1.0 -8.67746995743113e-30 -2.76847288685244e-14
outer loop
vertex 8.00000000000002 -52.430535 2.97417450000003
vertex 8.00000000000002 -71.70311 2.9741745
vertex 7.99999999999999 -54.7034000000001 1.90464449999999
endloop
endfacet
facet normal 0.0 -0.425779589784397 0.904826912134597
outer loop
vertex 7.99999999999998 63.0797550000001 39.1003555
vertex -4.62023308500648e-14 63.0797550000001 39.1003555
vertex -5.77529135625809e-15 60.8068900000001 38.0308255
endloop
endfacet
facet normal -2.62432068899785e-18 -0.0627898008147247 0.998026773645701
outer loop
vertex 7.99999999999998 -62.06684 40.505
vertex -1.58820512297098e-14 -62.06684 40.505
vertex 4.33146851719357e-15 -64.57382 40.347276
endloop
endfacet
facet normal 1.0 -1.10440526730942e-29 -6.29068317009857e-14
outer loop
vertex 8.0 72.9501400000001 40.347276
vertex 8.0 67.9362150000001 40.347276
vertex 7.99999999999997 65.4687500000001 39.8765855
endloop
endfacet
facet normal 8.11523728436293e-17 -0.866025276129038 -0.500000221105574
outer loop
vertex 7.99999999999997 -56.580549583881 30.005
vertex -1.58820512297098e-14 -51.094275416119 20.5025
vertex 8.00000000000002 -51.094275416119 20.5025
endloop
endfacet
facet normal 1.0 7.88860905221012e-30 5.23782123836922e-14
outer loop
vertex 8.00000000000004 -50.30964 36.684862
vertex 7.99999999999997 -52.430535 38.0308255
vertex 8.00000000000004 -73.824005 36.684862
endloop
endfacet
facet normal 7.47931396364367e-16 0.0627898008147247 -0.998026773645701
outer loop
vertex 8.00000000000001 -62.06684 0.500000000000041
vertex -1.58820512297098e-14 -62.0668400000001 0.50000000000001
vertex 1.44382283906452e-14 -59.5598600000001 0.657724
endloop
endfacet
facet normal 3.88493390685797e-17 -0.809017613851287 0.587784399655495
outer loop
vertex 1.44382283906452e-14 -77.47902 33.252573
vertex 7.99999999999998 -78.955495 31.220375
vertex 8.00000000000001 -77.47902 33.252573
endloop
endfacet
facet normal -1.94766358920641e-16 2.44755875101714e-16 1.0
outer loop
vertex 7.99999999999999 88.0 11.0
vertex 0.0 75.8731650000001 11.0
vertex 7.99999999999999 64.9569046595838 11.0
endloop
endfacet
facet normal 1.0 5.91645678915759e-31 1.27151523245915e-14
outer loop
vertex 7.99999999999998 77.8066000000001 39.1003555
vertex 7.99999999999997 75.4175700000001 39.8765855
vertex 7.99999999999998 63.0797550000001 39.1003555
endloop
endfacet
facet normal 1.23184211732106e-15 0.187379923169143 -0.982287516154576
outer loop
vertex 8.00000000000001 -59.5598600000001 0.657724
vertex 1.44382283906452e-14 -59.5598600000001 0.657724
vertex 8.66293703438714e-15 -57.0923950000001 1.12841449999999
endloop
endfacet
facet normal 9.80410404607033e-18 -0.876298479915669 0.481768589778836
outer loop
vertex -1.58820512297098e-14 53.5545050000001 31.220375
vertex 7.99999999999997 52.8863200000001 30.005
vertex 7.99999999999998 53.5545050000001 31.220375
endloop
endfacet
facet normal -2.13305994341308e-17 0.187379923169148 0.982287516154575
outer loop
vertex 8.0 -59.55986 40.347276
vertex 7.99999999999997 -57.092395 39.8765855
vertex 4.33146851719357e-15 -59.55986 40.347276
endloop
endfacet
facet normal 0.0 -1.0 1.2490009027033e-16
outer loop
vertex 8.66293703438714e-15 -82.0298600000001 21.758468
vertex 7.99999999999999 -82.0298600000001 19.246532
vertex 8.00000000000001 -82.0298600000001 21.758468
endloop
endfacet
facet normal -1.0 -4.73316543132607e-30 6.51015799019085e-14
outer loop
vertex -4.62023308500648e-14 -54.7034 39.1003555
vertex 4.33146851719357e-15 -67.04125 39.8765855
vertex 4.33146851719357e-15 -57.092395 39.8765855
endloop
endfacet
facet normal -1.0 0.0 0.0
outer loop
vertex 4.33146851719357e-15 -57.092395 39.8765855
vertex 4.33146851719357e-15 -67.04125 39.8765855
vertex 4.33146851719357e-15 -64.57382 40.347276
endloop
endfacet
facet normal 1.0 3.94430452610506e-31 5.55057426992428e-15
outer loop
vertex 8.0 87.3318500000001 9.78462499999999
vertex 8.0 53.5545050000001 9.78462499999999
vertex 8.00000000000001 55.0309800000001 7.752427
endloop
endfacet
facet normal 1.0 5.91645678915759e-31 -1.84925535932895e-14
outer loop
vertex 8.00000000000004 82.2003600000001 36.684862
vertex 8.00000000000004 58.6859950000001 36.684862
vertex 8.00000000000001 56.7504950000001 35.083696
endloop
endfacet
facet normal 1.0 3.15926650554052e-16 5.37570888360226e-15
outer loop
vertex 7.99999999999998 59.9431600000001 21.320968
vertex 7.99999999999997 -56.580549583881 30.005
vertex 8.00000000000002 -51.094275416119 20.5025
endloop
endfacet
facet normal 1.0 -1.12166159961113e-30 1.13655531081845e-15
outer loop
vertex 7.99999999999998 59.9431600000001 21.320968
vertex 7.99999999999997 -44.51 30.005
vertex 7.99999999999997 -56.580549583881 30.005
endloop
endfacet
facet normal 1.0 2.95822839457879e-31 6.16418453109661e-15
outer loop
vertex 7.99999999999997 84.1358250000001 5.92130399999995
vertex 7.99999999999998 58.6859950000001 4.32013799999998
vertex 7.99999999999998 82.2003600000001 4.32013799999998
endloop
endfacet
facet normal 0.0 -0.0627906739804739 0.998026718711016
outer loop
vertex 7.99999999999998 70.4431600000001 40.505
vertex -1.58820512297098e-14 70.4431600000001 40.505
vertex 4.33146851719357e-15 67.9362150000001 40.347276
endloop
endfacet
facet normal 0.0 0.0627898008147248 0.998026773645701
outer loop
vertex 8.0 72.9501400000001 40.347276
vertex -1.58820512297098e-14 70.4431600000001 40.505
vertex 7.99999999999998 70.4431600000001 40.505
endloop
endfacet
facet normal 1.17864774000341e-15 0.309012348668276 -0.95105802576421
outer loop
vertex 7.99999999999999 77.8066000000001 1.9046445
vertex 7.99999999999998 75.4175700000001 1.12841449999998
vertex 8.66293703438714e-15 77.8066000000001 1.90464449999999
endloop
endfacet
facet normal 1.0 -5.91645678915759e-30 -2.76847288685247e-14
outer loop
vertex 8.00000000000002 80.0794300000001 2.97417449999999
vertex 8.00000000000002 60.8068900000001 2.9741745
vertex 7.99999999999999 77.8066000000001 1.9046445
endloop
endfacet
facet normal -1.0 0.0 0.0
outer loop
vertex 8.66293703438714e-15 77.8066000000001 1.90464449999999
vertex 8.66293703438714e-15 75.4175700000001 1.12841449999998
vertex 8.66293703438714e-15 63.0797550000001 1.90464449999999
endloop
endfacet
facet normal -1.0 -6.90253292068385e-31 -4.04988033733851e-15
outer loop
vertex 8.66293703438714e-15 77.8066000000001 1.90464449999999
vertex 8.66293703438714e-15 63.0797550000001 1.90464449999999
vertex 4.33146851719357e-15 60.8068900000001 2.97417449999998
endloop
endfacet
facet normal -1.0 -1.97215226305253e-31 -4.0498803373385e-15
outer loop
vertex 4.33146851719357e-15 80.0794300000001 2.97417449999997
vertex 8.66293703438714e-15 77.8066000000001 1.90464449999999
vertex 4.33146851719357e-15 60.8068900000001 2.97417449999998
endloop
endfacet
facet normal -1.0 -4.93038065763132e-32 3.21811736885399e-15
outer loop
vertex 8.66293703438714e-15 82.2003600000001 4.32013799999999
vertex 4.33146851719357e-15 80.0794300000001 2.97417449999997
vertex 4.33146851719357e-15 60.8068900000001 2.97417449999998
endloop
endfacet
facet normal -1.0 4.93038065763132e-31 3.21811736885399e-15
outer loop
vertex 8.66293703438714e-15 82.2003600000001 4.32013799999999
vertex 4.33146851719357e-15 60.8068900000001 2.97417449999998
vertex 8.66293703438714e-15 58.6859950000001 4.32013799999999
endloop
endfacet
facet normal -1.0 -4.93038065763132e-31 -2.7051964113612e-15
outer loop
vertex 8.66293703438714e-15 82.2003600000001 4.32013799999999
vertex 8.66293703438714e-15 58.6859950000001 4.32013799999999
vertex 4.33146851719357e-15 56.7504950000001 5.92130399999999
endloop
endfacet
facet normal -1.0 -4.93038065763132e-31 -2.7051964113612e-15
outer loop
vertex 4.33146851719357e-15 84.1358250000001 5.92130399999999
vertex 8.66293703438714e-15 82.2003600000001 4.32013799999999
vertex 4.33146851719357e-15 56.7504950000001 5.92130399999999
endloop
endfacet
facet normal -1.0 9.86076131526265e-32 -5.51943254137033e-15
outer loop
vertex 4.33146851719357e-15 84.1358250000001 5.92130399999999
vertex 4.33146851719357e-15 56.7504950000001 5.92130399999999
vertex -5.77529135625809e-15 55.0309800000001 7.752427
endloop
endfacet
facet normal 2.1218033369553e-15 -0.535827534262194 -0.844327456338178
outer loop
vertex 8.00000000000002 -71.70311 2.9741745
vertex 7.99999999999998 -73.824005 4.32013799999999
vertex 4.33146851719357e-15 -71.70311 2.9741745
endloop
endfacet
facet normal 0.0 -0.425779589784398 -0.904826912134597
outer loop
vertex 8.00000000000002 -71.70311 2.9741745
vertex 8.66293703438714e-15 -69.430245 1.90464449999998
vertex 7.99999999999999 -69.430245 1.90464449999998
endloop
endfacet
facet normal 0.0 -0.968581036723083 -0.248698161031475
outer loop
vertex -2.59888111031614e-14 -81.715035 16.754406
vertex -1.58820512297098e-14 -81.09032 14.321388
vertex 7.99999999999999 -81.715035 16.754406
endloop
endfacet
facet normal 0.0 -0.425779589784398 0.904826912134597
outer loop
vertex 7.99999999999998 63.0797550000001 39.1003555
vertex -5.77529135625809e-15 60.8068900000001 38.0308255
vertex 7.99999999999997 60.8068900000001 38.0308255
endloop
endfacet
facet normal 1.0 -5.91645678915759e-31 6.16418453109657e-15
outer loop
vertex 7.99999999999997 -48.374175 5.92130399999998
vertex 7.99999999999997 -75.75947 5.92130399999997
vertex 7.99999999999998 -50.3096400000001 4.32013799999997
endloop
endfacet
facet normal 4.05631332037968e-31 2.31628175072561e-16 1.0
outer loop
vertex 7.99999999999997 52.8863200000001 30.005
vertex -2.59888111031614e-14 -44.51 30.005
vertex 7.99999999999997 -44.51 30.005
endloop
endfacet
facet normal 2.48157118291676e-17 0.53582123061866 0.844331456726744
outer loop
vertex 8.00000000000004 82.2003600000001 36.684862
vertex -2.59888111031614e-14 82.2003600000001 36.684862
vertex -5.77529135625809e-15 80.0794300000001 38.0308255
endloop
endfacet
facet normal 1.0 1.97215226305253e-30 -1.84925535932895e-14
outer loop
vertex 8.00000000000001 84.1358250000001 35.083696
vertex 8.00000000000004 82.2003600000001 36.684862
vertex 8.00000000000001 56.7504950000001 35.083696
endloop
endfacet
facet normal 1.0 1.26217744835362e-29 5.23782123836922e-14
outer loop
vertex 7.99999999999997 -52.430535 38.0308255
vertex 7.99999999999997 -71.7031100000001 38.0308255
vertex 8.00000000000004 -73.824005 36.684862
endloop
endfacet
facet normal 1.0 1.77493703674728e-30 -9.22824295617482e-15
outer loop
vertex 7.99999999999997 -52.430535 38.0308255
vertex 7.99999999999998 -54.7034 39.1003555
vertex 7.99999999999997 -71.7031100000001 38.0308255
endloop
endfacet
facet normal -1.10157067935266e-17 -0.309016443553717 -0.951056695267644
outer loop
vertex 7.99999999999999 63.0797550000001 1.90464449999999
vertex 8.66293703438714e-15 63.0797550000001 1.90464449999999
vertex 8.66293703438714e-15 65.4687500000001 1.12841449999999
endloop
endfacet
facet normal 0.0 0.728973385830094 -0.684542038702817
outer loop
vertex 8.00000000000001 85.8553400000001 7.75242699999999
vertex 4.33146851719357e-15 84.1358250000001 5.92130399999999
vertex -5.77529135625809e-15 85.8553400000001 7.75242699999999
endloop
endfacet
facet normal 1.12678463836486e-17 -0.929777235815161 0.368122658579881
outer loop
vertex -2.59888111031614e-14 -80.16562 29.0191514999999
vertex -2.02135197469033e-14 -81.09032 26.683612
vertex 7.99999999999998 -80.16562 29.0191514999999
endloop
endfacet
facet normal -9.80422323961696e-18 0.876309133527997 0.481749211203725
outer loop
vertex -1.58820512297098e-14 -45.17815 31.220375
vertex 7.99999999999997 -44.51 30.005
vertex -2.59888111031614e-14 -44.51 30.005
endloop
endfacet
facet normal 1.0 -1.38050658413677e-30 -8.12085380143384e-15
outer loop
vertex 7.99999999999998 -45.17815 31.220375
vertex 7.99999999999998 -78.955495 31.220375
vertex 7.99999999999997 -67.553095416119 30.005
endloop
endfacet
facet normal 1.0 -2.56379794196829e-30 -1.52640792422918e-14
outer loop
vertex 7.99999999999998 -45.17815 31.220375
vertex 8.00000000000001 -46.654625 33.252573
vertex 7.99999999999998 -78.955495 31.220375
endloop
endfacet
facet normal 1.0 -1.97215226305253e-30 -1.52640792422918e-14
outer loop
vertex 8.00000000000001 -46.654625 33.252573
vertex 8.00000000000001 -77.47902 33.252573
vertex 7.99999999999998 -78.955495 31.220375
endloop
endfacet
facet normal 1.0 0.0 0.0
outer loop
vertex 8.00000000000001 -46.654625 33.252573
vertex 8.00000000000001 -48.374175 35.083696
vertex 8.00000000000001 -77.47902 33.252573
endloop
endfacet
facet normal 1.0 0.0 0.0
outer loop
vertex 8.00000000000001 -48.374175 35.083696
vertex 8.00000000000001 -75.75947 35.083696
vertex 8.00000000000001 -77.47902 33.252573
endloop
endfacet
facet normal 1.10157067935266e-17 -0.309016443553717 -0.951056695267644
outer loop
vertex 7.99999999999999 63.0797550000001 1.90464449999999
vertex 8.66293703438714e-15 65.4687500000001 1.12841449999999
vertex 7.99999999999998 65.4687500000001 1.12841449999999
endloop
endfacet
facet normal -1.10157067935265e-17 0.309016443553715 -0.951056695267645
outer loop
vertex 7.99999999999998 -57.0923950000001 1.12841449999999
vertex 8.66293703438714e-15 -57.0923950000001 1.12841449999999
vertex 8.66293703438714e-15 -54.7034000000001 1.90464449999999
endloop
endfacet
facet normal 1.0 5.36425415550288e-29 1.2515384708627e-13
outer loop
vertex 8.0 -59.55986 40.347276
vertex 7.99999999999998 -62.06684 40.505
vertex 8.0 -64.57382 40.347276
endloop
endfacet
facet normal 0.0 -0.866025276129038 0.500000221105574
outer loop
vertex -1.58820512297098e-14 -51.094275416119 20.5025
vertex 0.0 -56.5805495838811 11.0
vertex 8.00000000000002 -51.094275416119 20.5025
endloop
endfacet
facet normal 0.0 -0.866025276129038 0.500000221105574
outer loop
vertex 8.00000000000002 -51.094275416119 20.5025
vertex 0.0 -56.5805495838811 11.0
vertex 7.99999999999999 -56.5805495838811 11.0
endloop
endfacet
facet normal 0.0 -1.2490009027033e-16 -1.0
outer loop
vertex 7.99999999999997 -67.553095416119 30.005
vertex -2.59888111031614e-14 -56.580549583881 30.005
vertex 7.99999999999997 -56.580549583881 30.005
endloop
endfacet
facet normal 0.0 -1.2490009027033e-16 -1.0
outer loop
vertex 7.99999999999997 -67.553095416119 30.005
vertex -5.77529135625809e-15 -67.553095416119 30.005
vertex -2.59888111031614e-14 -56.580549583881 30.005
endloop
endfacet
facet normal 8.11523728436293e-17 0.866025276129039 -0.500000221105573
outer loop
vertex -5.77529135625809e-15 -67.553095416119 30.005
vertex 8.00000000000002 -73.039369583881 20.5025
vertex -2.02135197469033e-14 -73.039369583881 20.5025
endloop
endfacet
facet normal -1.0 -1.97215226305253e-31 1.49199436375565e-14
outer loop
vertex -1.58820512297098e-14 87.3318500000001 31.220375
vertex 1.44382283906452e-14 55.0309800000001 33.252573
vertex 1.44382283906452e-14 85.8553400000001 33.252573
endloop
endfacet
facet normal -1.0 0.0 0.0
outer loop
vertex 1.44382283906452e-14 85.8553400000001 33.252573
vertex 1.44382283906452e-14 55.0309800000001 33.252573
vertex 1.44382283906452e-14 56.7504950000001 35.083696
endloop
endfacet
facet normal -1.0 0.0 0.0
outer loop
vertex 1.44382283906452e-14 85.8553400000001 33.252573
vertex 1.44382283906452e-14 56.7504950000001 35.083696
vertex 1.44382283906452e-14 84.1358250000001 35.083696
endloop
endfacet
facet normal -1.0 -1.18329135783152e-30 -2.52484998393712e-14
outer loop
vertex 1.44382283906452e-14 84.1358250000001 35.083696
vertex 1.44382283906452e-14 56.7504950000001 35.083696
vertex -2.59888111031614e-14 58.6859950000001 36.684862
endloop
endfacet
facet normal -1.0 -4.33873497871556e-30 -2.52484998393712e-14
outer loop
vertex 1.44382283906452e-14 84.1358250000001 35.083696
vertex -2.59888111031614e-14 58.6859950000001 36.684862
vertex -2.59888111031614e-14 82.2003600000001 36.684862
endloop
endfacet
facet normal -1.0 3.15544362088405e-30 1.50178810546522e-14
outer loop
vertex -2.59888111031614e-14 82.2003600000001 36.684862
vertex -2.59888111031614e-14 58.6859950000001 36.684862
vertex -5.77529135625809e-15 60.8068900000001 38.0308255
endloop
endfacet
facet normal -1.0 1.97215226305253e-30 1.50178810546522e-14
outer loop
vertex -2.59888111031614e-14 82.2003600000001 36.684862
vertex -5.77529135625809e-15 60.8068900000001 38.0308255
vertex -5.77529135625809e-15 80.0794300000001 38.0308255
endloop
endfacet
facet normal -1.0 -3.94430452610506e-30 -3.77988831484921e-14
outer loop
vertex -5.77529135625809e-15 80.0794300000001 38.0308255
vertex -5.77529135625809e-15 60.8068900000001 38.0308255
vertex -4.62023308500648e-14 63.0797550000001 39.1003555
endloop
endfacet
facet normal -1.0 -6.31088724176809e-30 -3.77988831484921e-14
outer loop
vertex -5.77529135625809e-15 80.0794300000001 38.0308255
vertex -4.62023308500648e-14 63.0797550000001 39.1003555
vertex -4.62023308500648e-14 77.8066000000001 39.1003555
endloop
endfacet
facet normal -1.0 6.31088724176809e-30 6.51015799019085e-14
outer loop
vertex -4.62023308500648e-14 77.8066000000001 39.1003555
vertex -4.62023308500648e-14 63.0797550000001 39.1003555
vertex 4.33146851719357e-15 65.4687500000001 39.8765855
endloop
endfacet
facet normal -1.0 1.57772181044202e-30 6.51015799019085e-14
outer loop
vertex -4.62023308500648e-14 77.8066000000001 39.1003555
vertex 4.33146851719357e-15 65.4687500000001 39.8765855
vertex 4.33146851719357e-15 75.4175700000001 39.8765855
endloop
endfacet
facet normal -1.0 0.0 0.0
outer loop
vertex 4.33146851719357e-15 75.4175700000001 39.8765855
vertex 4.33146851719357e-15 65.4687500000001 39.8765855
vertex 4.33146851719357e-15 67.9362150000001 40.347276
endloop
endfacet
facet normal -1.0 0.0 0.0
outer loop
vertex 4.33146851719357e-15 75.4175700000001 39.8765855
vertex 4.33146851719357e-15 67.9362150000001 40.347276
vertex 4.33146851719357e-15 72.9501400000001 40.347276
endloop
endfacet
facet normal -1.0 -2.20881053461883e-29 -1.28157539416341e-13
outer loop
vertex 4.33146851719357e-15 72.9501400000001 40.347276
vertex 4.33146851719357e-15 67.9362150000001 40.347276
vertex -1.58820512297098e-14 70.4431600000001 40.505
endloop
endfacet
facet normal -1.0 1.26217744835362e-29 1.92236309124509e-13
outer loop
vertex 1.44382283906452e-14 -59.5598600000001 0.657724
vertex -1.58820512297098e-14 -62.0668400000001 0.50000000000001
vertex 1.44382283906452e-14 -64.5738200000001 0.657724000000023
endloop
endfacet
facet normal -1.0 -1.77493703674728e-30 -1.22698277451068e-14
outer loop
vertex 1.44382283906452e-14 -59.5598600000001 0.657724
vertex 1.44382283906452e-14 -64.5738200000001 0.657724000000023
vertex 8.66293703438714e-15 -67.04125 1.12841449999995
endloop
endfacet
facet normal -1.0 1.97215226305253e-31 -1.22698277451068e-14
outer loop
vertex 8.66293703438714e-15 -57.0923950000001 1.12841449999999
vertex 1.44382283906452e-14 -59.5598600000001 0.657724
vertex 8.66293703438714e-15 -67.04125 1.12841449999995
endloop
endfacet
facet normal -1.0 0.0 0.0
outer loop
vertex 8.66293703438714e-15 -57.0923950000001 1.12841449999999
vertex 8.66293703438714e-15 -67.04125 1.12841449999995
vertex 8.66293703438714e-15 -69.430245 1.90464449999998
endloop
endfacet
facet normal -1.0 0.0 0.0
outer loop
vertex 8.66293703438714e-15 -54.7034000000001 1.90464449999999
vertex 8.66293703438714e-15 -57.0923950000001 1.12841449999999
vertex 8.66293703438714e-15 -69.430245 1.90464449999998
endloop
endfacet
facet normal -1.0 -9.86076131526265e-31 -4.04988033733851e-15
outer loop
vertex 8.66293703438714e-15 -54.7034000000001 1.90464449999999
vertex 8.66293703438714e-15 -69.430245 1.90464449999998
vertex 4.33146851719357e-15 -71.70311 2.9741745
endloop
endfacet
facet normal -1.0 -6.90253292068385e-31 -4.04988033733851e-15
outer loop
vertex 4.33146851719357e-15 -52.430535 2.97417449999999
vertex 8.66293703438714e-15 -54.7034000000001 1.90464449999999
vertex 4.33146851719357e-15 -71.70311 2.9741745
endloop
endfacet
facet normal -1.0 1.4791141972894e-31 3.21811736885399e-15
outer loop
vertex 4.33146851719357e-15 -52.430535 2.97417449999999
vertex 4.33146851719357e-15 -71.70311 2.9741745
vertex 8.66293703438714e-15 -73.8240050000001 4.320138
endloop
endfacet
facet normal -1.0 -4.93038065763132e-32 3.21811736885399e-15
outer loop
vertex 8.66293703438714e-15 -50.3096400000001 4.32013800000001
vertex 4.33146851719357e-15 -52.430535 2.97417449999999
vertex 8.66293703438714e-15 -73.8240050000001 4.320138
endloop
endfacet
facet normal -1.0 -5.42341872339446e-31 -2.7051964113612e-15
outer loop
vertex 8.66293703438714e-15 -50.3096400000001 4.32013800000001
vertex 8.66293703438714e-15 -73.8240050000001 4.320138
vertex 4.33146851719357e-15 -75.75947 5.92130400000002
endloop
endfacet
facet normal -1.0 -4.93038065763132e-31 -2.7051964113612e-15
outer loop
vertex 4.33146851719357e-15 -48.374175 5.92130400000001
vertex 8.66293703438714e-15 -50.3096400000001 4.32013800000001
vertex 4.33146851719357e-15 -75.75947 5.92130400000002
endloop
endfacet
facet normal -1.0 -5.91645678915759e-31 -5.51943254137036e-15
outer loop
vertex 4.33146851719357e-15 -48.374175 5.92130400000001
vertex 4.33146851719357e-15 -75.75947 5.92130400000002
vertex -5.77529135625809e-15 -77.47902 7.75242700000001
endloop
endfacet
facet normal -1.0 9.86076131526265e-31 -5.51943254137036e-15
outer loop
vertex -5.77529135625809e-15 -46.6546250000001 7.75242699999999
vertex 4.33146851719357e-15 -48.374175 5.92130400000001
vertex -5.77529135625809e-15 -77.47902 7.75242700000001
endloop
endfacet
facet normal -1.0 1.08468374467889e-30 7.10473506550305e-15
outer loop
vertex -5.77529135625809e-15 -46.6546250000001 7.75242699999999
vertex -5.77529135625809e-15 -77.47902 7.75242700000001
vertex 8.66293703438714e-15 -78.9554950000001 9.784625
endloop
endfacet
facet normal -1.0 1.4791141972894e-30 7.10473506550305e-15
outer loop
vertex 8.66293703438714e-15 -45.17815 9.78462499999999
vertex -5.77529135625809e-15 -46.6546250000001 7.75242699999999
vertex 8.66293703438714e-15 -78.9554950000001 9.784625
endloop
endfacet
facet normal -1.0 0.0 0.0
outer loop
vertex 8.66293703438714e-15 -45.17815 9.78462499999999
vertex 8.66293703438714e-15 -78.9554950000001 9.784625
vertex 8.66293703438714e-15 -67.553095416119 11.0
endloop
endfacet
facet normal -1.0 6.60439267809132e-16 -6.19610608449695e-15
outer loop
vertex 8.66293703438714e-15 -67.553095416119 11.0
vertex 8.66293703438714e-15 -78.9554950000001 9.784625
vertex -5.77529135625809e-15 -80.16562 11.9858485
endloop
endfacet
facet normal -1.0 -7.8951021639253e-16 -1.4534812709864e-14
outer loop
vertex 8.66293703438714e-15 -45.17815 9.78462499999999
vertex 8.66293703438714e-15 -67.553095416119 11.0
vertex 0.0 -56.5805495838811 11.0
endloop
endfacet
facet normal -1.0 9.5010195537252e-16 -2.49028539508445e-15
outer loop
vertex 8.66293703438714e-15 -67.553095416119 11.0
vertex -5.77529135625809e-15 -80.16562 11.9858485
vertex -2.02135197469033e-14 -73.039369583881 20.5025
endloop
endfacet
facet normal -1.0 2.13527169665286e-15 -3.48196814293091e-15
outer loop
vertex -2.02135197469033e-14 -73.039369583881 20.5025
vertex -5.77529135625809e-15 -80.16562 11.9858485
vertex -1.58820512297098e-14 -81.09032 14.321388
endloop
endfacet
facet normal -1.0 2.21464780966741e-15 -3.58535619836566e-15
outer loop
vertex -2.02135197469033e-14 -73.039369583881 20.5025
vertex -1.58820512297098e-14 -81.09032 14.321388
vertex -2.59888111031614e-14 -81.715035 16.754406
endloop
endfacet
facet normal -1.0 -3.64090686353388e-15 9.96842158054982e-15
outer loop
vertex -2.02135197469033e-14 -73.039369583881 20.5025
vertex -2.59888111031614e-14 -81.715035 16.754406
vertex 0.0 -82.0298600000001 19.246532
endloop
endfacet
facet normal -1.0 -2.73010560359313e-15 3.44870929609159e-15
outer loop
vertex -2.02135197469033e-14 -73.039369583881 20.5025
vertex 0.0 -82.0298600000001 19.246532
vertex 8.66293703438714e-15 -82.0298600000001 21.758468
endloop
endfacet
facet normal -1.0 -2.77574770114572e-15 3.12199329646574e-15
outer loop
vertex -5.77529135625809e-15 -67.553095416119 30.005
vertex -2.02135197469033e-14 -73.039369583881 20.5025
vertex 8.66293703438714e-15 -82.0298600000001 21.758468
endloop
endfacet
facet normal -1.0 -6.05325534692924e-15 8.87564908897078e-15
outer loop
vertex -5.77529135625809e-15 -67.553095416119 30.005
vertex 8.66293703438714e-15 -82.0298600000001 21.758468
vertex 2.88764567812905e-14 -81.715035 24.2505940000001
endloop
endfacet
facet normal -1.0 6.42146472920495e-15 -2.18253880022668e-14
outer loop
vertex -5.77529135625809e-15 -67.553095416119 30.005
vertex 2.88764567812905e-14 -81.715035 24.2505940000001
vertex -2.02135197469033e-14 -81.09032 26.683612
endloop
endfacet
facet normal -1.0 1.85329232697754e-15 -3.20655282045736e-15
outer loop
vertex -5.77529135625809e-15 -67.553095416119 30.005
vertex -2.02135197469033e-14 -81.09032 26.683612
vertex -2.59888111031614e-14 -80.16562 29.0191514999999
endloop
endfacet
facet normal -1.0 1.29961457839467e-15 3.87696378026649e-15
outer loop
vertex -5.77529135625809e-15 -67.553095416119 30.005
vertex -2.59888111031614e-14 -80.16562 29.0191514999999
vertex -1.58820512297098e-14 -78.955495 31.220375
endloop
endfacet
facet normal -1.0 -1.8421905049159e-15 -2.55988086970148e-14
outer loop
vertex -2.59888111031614e-14 -56.580549583881 30.005
vertex -5.77529135625809e-15 -67.553095416119 30.005
vertex -1.58820512297098e-14 -78.955495 31.220375
endloop
endfacet
facet normal -1.0 5.91645678915759e-31 8.31575429266819e-15
outer loop
vertex -2.59888111031614e-14 -44.51 30.005
vertex -2.59888111031614e-14 -56.580549583881 30.005
vertex -1.58820512297098e-14 -78.955495 31.220375
endloop
endfacet
facet normal -1.0 3.94430452610506e-31 8.31575429266819e-15
outer loop
vertex -2.59888111031614e-14 -44.51 30.005
vertex -1.58820512297098e-14 -78.955495 31.220375
vertex -1.58820512297098e-14 -45.17815 31.220375
endloop
endfacet
facet normal -1.0 1.97215226305253e-30 1.49199436375565e-14
outer loop
vertex -1.58820512297098e-14 -45.17815 31.220375
vertex -1.58820512297098e-14 -78.955495 31.220375
vertex 1.44382283906452e-14 -77.47902 33.252573
endloop
endfacet
facet normal -1.0 -1.97215226305253e-31 1.49199436375565e-14
outer loop
vertex -1.58820512297098e-14 -45.17815 31.220375
vertex 1.44382283906452e-14 -77.47902 33.252573
vertex 1.44382283906452e-14 -46.654625 33.252573
endloop
endfacet
facet normal 3.30471203805794e-17 -0.309016443553713 0.951056695267645
outer loop
vertex 7.99999999999998 63.0797550000001 39.1003555
vertex 7.99999999999997 65.4687500000001 39.8765855
vertex -4.62023308500648e-14 63.0797550000001 39.1003555
endloop
endfacet
facet normal -1.2493306504731e-15 -5.28083363733987e-16 1.0
outer loop
vertex 7.99999999999999 64.9569046595838 11.0
vertex 0.0 75.8731650000001 11.0
vertex 0.0 65.1931600000001 11.0
endloop
endfacet
facet normal 1.62304745687261e-16 0.866025276129039 -0.500000221105573
outer loop
vertex 7.99999999999997 -67.553095416119 30.005
vertex 8.00000000000002 -73.039369583881 20.5025
vertex -5.77529135625809e-15 -67.553095416119 30.005
endloop
endfacet
facet normal 0.0 -0.929777235815166 -0.368122658579866
outer loop
vertex 8.00000000000001 -81.09032 14.321388
vertex -5.77529135625809e-15 -80.16562 11.9858485
vertex 8.00000000000001 -80.16562 11.9858485
endloop
endfacet
facet normal 0.0 -0.876308000960548 -0.481751271355383
outer loop
vertex -5.77529135625809e-15 -80.16562 11.9858485
vertex 8.66293703438714e-15 -78.9554950000001 9.784625
vertex 8.00000000000001 -80.16562 11.9858485
endloop
endfacet
facet normal 1.19554227537003e-17 -0.876308000960548 -0.481751271355383
outer loop
vertex 8.00000000000001 -80.16562 11.9858485
vertex 8.66293703438714e-15 -78.9554950000001 9.784625
vertex 8.0 -78.9554950000001 9.784625
endloop
endfacet
facet normal -1.43717262843185e-17 0.728966432830517 0.684549442923118
outer loop
vertex 8.00000000000001 -48.374175 35.083696
vertex 1.44382283906452e-14 -46.654625 33.252573
vertex 1.44382283906452e-14 -48.374175 35.083696
endloop
endfacet
facet normal 1.0 7.88860905221012e-31 -9.22824295617482e-15
outer loop
vertex 7.99999999999998 -54.7034 39.1003555
vertex 7.99999999999998 -69.4302450000001 39.1003555
vertex 7.99999999999997 -71.7031100000001 38.0308255
endloop
endfacet
facet normal 1.0 5.91645678915759e-31 1.27151523245915e-14
outer loop
vertex 7.99999999999998 -54.7034 39.1003555
vertex 7.99999999999997 -57.092395 39.8765855
vertex 7.99999999999998 -69.4302450000001 39.1003555
endloop
endfacet
facet normal -8.11523728436304e-17 0.866025276129039 0.500000221105572
outer loop
vertex 8.00000000000002 -73.039369583881 20.5025
vertex 7.99999999999999 -67.553095416119 11.0
vertex 8.66293703438714e-15 -67.553095416119 11.0
endloop
endfacet
facet normal 0.0 1.2490009027033e-16 1.0
outer loop
vertex 7.99999999999999 -56.5805495838811 11.0
vertex 8.66293703438714e-15 -67.553095416119 11.0
vertex 7.99999999999999 -67.553095416119 11.0
endloop
endfacet
facet normal -1.12678463836476e-17 -0.929777235815166 -0.368122658579867
outer loop
vertex -1.58820512297098e-14 -81.09032 14.321388
vertex -5.77529135625809e-15 -80.16562 11.9858485
vertex 8.00000000000001 -81.09032 14.321388
endloop
endfacet
facet normal 1.0 1.84033550778001e-15 -4.52917647368842e-15
outer loop
vertex 7.99999999999997 -67.553095416119 30.005
vertex 7.99999999999998 -81.09032 26.683612
vertex 7.99999999999997 -81.715035 24.2505940000001
endloop
endfacet
facet normal 1.0 8.07537200834067e-16 -3.19724692993332e-16
outer loop
vertex 7.99999999999997 -67.553095416119 30.005
vertex 7.99999999999998 -80.16562 29.0191514999999
vertex 7.99999999999998 -81.09032 26.683612
endloop
endfacet
facet normal 1.0 8.17682705984664e-16 -4.49521952032412e-16
outer loop
vertex 7.99999999999997 -67.553095416119 30.005
vertex 7.99999999999998 -78.955495 31.220375
vertex 7.99999999999998 -80.16562 29.0191514999999
endloop
endfacet
facet normal -5.33264985853266e-18 -0.18737992316914 -0.982287516154576
outer loop
vertex 7.99999999999998 65.4687500000001 1.12841449999999
vertex 8.66293703438714e-15 65.4687500000001 1.12841449999999
vertex 1.44382283906452e-14 67.9362150000001 0.657723999999996
endloop
endfacet
facet normal -1.0 -3.15544362088405e-30 -3.77988831484921e-14
outer loop
vertex -5.77529135625809e-15 -52.430535 38.0308255
vertex -4.62023308500648e-14 -69.4302450000001 39.1003555
vertex -4.62023308500648e-14 -54.7034 39.1003555
endloop
endfacet
facet normal -1.0 0.0 0.0
outer loop
vertex 4.33146851719357e-15 -57.092395 39.8765855
vertex 4.33146851719357e-15 -64.57382 40.347276
vertex 4.33146851719357e-15 -59.55986 40.347276
endloop
endfacet
facet normal 1.0 -3.15544362088405e-30 -6.29068317009857e-14
outer loop
vertex 8.0 -59.55986 40.347276
vertex 8.0 -64.57382 40.347276
vertex 7.99999999999997 -67.04125 39.8765855
endloop
endfacet
facet normal -2.20314135870529e-17 -0.309016443553715 -0.951056695267645
outer loop
vertex 7.99999999999999 -69.430245 1.90464449999998
vertex 8.66293703438714e-15 -69.430245 1.90464449999998
vertex 8.66293703438714e-15 -67.04125 1.12841449999995
endloop
endfacet
facet normal 1.0 -8.05841992799766e-16 -3.19053516646561e-16
outer loop
vertex 8.00000000000002 -73.039369583881 20.5025
vertex 8.00000000000001 -81.09032 14.321388
vertex 8.00000000000001 -80.16562 11.9858485
endloop
endfacet
facet normal 0.0 -0.728973385830091 0.68454203870282
outer loop
vertex 1.44382283906452e-14 56.7504950000001 35.083696
vertex 1.44382283906452e-14 55.0309800000001 33.252573
vertex 8.00000000000001 55.0309800000001 33.252573
endloop
endfacet
facet normal 2.25781981816972e-15 -0.425779589784391 -0.9048269121346
outer loop
vertex 8.00000000000002 60.8068900000001 2.9741745
vertex 4.33146851719357e-15 60.8068900000001 2.97417449999998
vertex 8.66293703438714e-15 63.0797550000001 1.90464449999999
endloop
endfacet
facet normal -1.0 3.53754812185047e-30 -6.65047221873188e-16
outer loop
vertex -2.02135197469033e-14 59.9431600000001 21.320968
vertex -2.59888111031614e-14 -56.580549583881 30.005
vertex -2.59888111031614e-14 -44.51 30.005
endloop
endfacet
facet normal -1.0 1.13658541760702e-16 5.75456760296604e-16
outer loop
vertex -2.59888111031614e-14 52.8863200000001 30.005
vertex -2.02135197469033e-14 59.9431600000001 21.320968
vertex -2.59888111031614e-14 -44.51 30.005
endloop
endfacet
facet normal -1.0 1.13658541760702e-16 5.75456760296604e-16
outer loop
vertex -2.02135197469033e-14 59.9431600000001 21.320968
vertex -2.59888111031614e-14 52.8863200000001 30.005
vertex -5.77529135625809e-15 64.9569046595838 30.005
endloop
endfacet
facet normal -1.0 1.67460983183233e-15 7.39509262817543e-15
outer loop
vertex -5.77529135625809e-15 64.9569046595838 30.005
vertex -2.59888111031614e-14 52.8863200000001 30.005
vertex -1.58820512297098e-14 53.5545050000001 31.220375
endloop
endfacet
facet normal -1.0 -8.77205056364542e-16 -1.65455127096804e-14
outer loop
vertex -2.59888111031614e-14 88.0000000000001 30.005
vertex -5.77529135625809e-15 64.9569046595838 30.005
vertex -1.58820512297098e-14 53.5545050000001 31.220375
endloop
endfacet
facet normal -1.0 1.97215226305253e-30 8.31575429266819e-15
outer loop
vertex -2.59888111031614e-14 88.0000000000001 30.005
vertex -1.58820512297098e-14 53.5545050000001 31.220375
vertex -1.58820512297098e-14 87.3318500000001 31.220375
endloop
endfacet
facet normal -1.0 1.77493703674728e-30 1.49199436375565e-14
outer loop
vertex -1.58820512297098e-14 87.3318500000001 31.220375
vertex -1.58820512297098e-14 53.5545050000001 31.220375
vertex 1.44382283906452e-14 55.0309800000001 33.252573
endloop
endfacet
facet normal 1.0 4.33873497871556e-30 -2.23302934848962e-14
outer loop
vertex 7.99999999999997 -48.374175 5.92130399999998
vertex 8.00000000000001 -77.47902 7.75242700000001
vertex 7.99999999999997 -75.75947 5.92130399999997
endloop
endfacet
facet normal 0.0 -0.63742637760111 0.770511267366238
outer loop
vertex 8.00000000000004 -73.824005 36.684862
vertex 1.44382283906452e-14 -75.75947 35.083696
vertex 8.00000000000001 -75.75947 35.083696
endloop
endfacet
facet normal -1.0 1.97215226305253e-30 1.50178810546522e-14
outer loop
vertex -2.59888111031614e-14 -50.30964 36.684862
vertex -5.77529135625809e-15 -71.7031100000001 38.0308255
vertex -5.77529135625809e-15 -52.430535 38.0308255
endloop
endfacet
facet normal -1.0 -4.73316543132607e-30 6.51015799019085e-14
outer loop
vertex -4.62023308500648e-14 -54.7034 39.1003555
vertex -4.62023308500648e-14 -69.4302450000001 39.1003555
vertex 4.33146851719357e-15 -67.04125 39.8765855
endloop
endfacet
facet normal -1.0 -6.31088724176809e-30 -3.77988831484921e-14
outer loop
vertex -5.77529135625809e-15 -52.430535 38.0308255
vertex -5.77529135625809e-15 -71.7031100000001 38.0308255
vertex -4.62023308500648e-14 -69.4302450000001 39.1003555
endloop
endfacet
facet normal 1.0 -3.15544362088405e-30 -6.29068317009857e-14
outer loop
vertex 7.99999999999997 -57.092395 39.8765855
vertex 8.0 -59.55986 40.347276
vertex 7.99999999999997 -67.04125 39.8765855
endloop
endfacet
facet normal 1.0 3.94430452610506e-30 -2.23302934848962e-14
outer loop
vertex 8.00000000000001 -46.654625 7.75242700000001
vertex 8.00000000000001 -77.47902 7.75242700000001
vertex 7.99999999999997 -48.374175 5.92130399999998
endloop
endfacet
facet normal 1.0 -1.97215226305253e-30 5.55057426992426e-15
outer loop
vertex 8.00000000000001 -46.654625 7.75242700000001
vertex 8.0 -78.9554950000001 9.784625
vertex 8.00000000000001 -77.47902 7.75242700000001
endloop
endfacet
facet normal 1.0 0.0 5.55057426992429e-15
outer loop
vertex 8.0 -45.17815 9.78462499999999
vertex 8.0 -78.9554950000001 9.784625
vertex 8.00000000000001 -46.654625 7.75242700000001
endloop
endfacet
facet normal 1.0 7.88860905221012e-31 8.12085380143376e-15
outer loop
vertex 8.0 -45.17815 9.78462499999999
vertex 7.99999999999999 -67.553095416119 11.0
vertex 8.0 -78.9554950000001 9.784625
endloop
endfacet
facet normal 1.0 -6.45266595188211e-15 7.03598222823635e-15
outer loop
vertex 8.00000000000002 -73.039369583881 20.5025
vertex 7.99999999999999 -81.715035 16.754406
vertex 8.00000000000001 -81.09032 14.321388
endloop
endfacet
facet normal 1.0 -3.23632627012016e-15 -4.0883824412996e-16
outer loop
vertex 8.00000000000002 -73.039369583881 20.5025
vertex 7.99999999999999 -82.0298600000001 19.246532
vertex 7.99999999999999 -81.715035 16.754406
endloop
endfacet
facet normal 1.0 -2.1172119513159e-15 -8.41970042991112e-15
outer loop
vertex 8.00000000000002 -73.039369583881 20.5025
vertex 8.00000000000001 -82.0298600000001 21.758468
vertex 7.99999999999999 -82.0298600000001 19.246532
endloop
endfacet
facet normal -3.42047085566773e-15 0.728966432830523 -0.684549442923112
outer loop
vertex 8.00000000000001 -46.654625 7.75242700000001
vertex 7.99999999999997 -48.374175 5.92130399999998
vertex 4.33146851719357e-15 -48.374175 5.92130400000001
endloop
endfacet
endsolid model
